<svg xmlns="http://www.w3.org/2000/svg" viewBox="0 0 533 299"><path d="M3.374 266.752l9.178 21.961 9.211-21.961h2.803v24.883h-2.102V280.8l.171-11.108-9.263 21.943h-1.624L2.52 269.778l.171 10.954v10.903H.589v-24.883h2.785m38.866 24.883a9.673 9.673 0 0 1-.393-2.58 7.118 7.118 0 0 1-2.743 2.161 8.4 8.4 0 0 1-3.529.761 6.2 6.2 0 0 1-4.315-1.486 4.846 4.846 0 0 1-1.649-3.76 4.952 4.952 0 0 1 2.247-4.274 10.808 10.808 0 0 1 6.264-1.572h3.708v-2.1a4.052 4.052 0 0 0-1.222-3.12 5.057 5.057 0 0 0-3.563-1.136 5.581 5.581 0 0 0-3.537 1.093 3.252 3.252 0 0 0-1.4 2.633l-2.051-.017a4.756 4.756 0 0 1 2.051-3.82 7.9 7.9 0 0 1 5.042-1.615 7.2 7.2 0 0 1 4.879 1.547 5.551 5.551 0 0 1 1.837 4.315v8.75a10.855 10.855 0 0 0 .564 4.016v.2h-2.19m-6.425-1.47a6.86 6.86 0 0 0 3.665-.991 5.831 5.831 0 0 0 2.35-2.648v-4.069h-3.657a9.178 9.178 0 0 0-4.785 1.12 3.36 3.36 0 0 0-1.726 2.982 3.31 3.31 0 0 0 1.153 2.581 4.346 4.346 0 0 0 3 1.029zm18.068-7.84l-2.341 2.256v7.058h-2.051v-26.25h2.051v16.799l1.931-2.084 7.075-6.956h2.581l-7.845 7.793 8.528 10.698h-2.444l-7.485-9.314M66.687 267.8a1.368 1.368 0 0 1 .376-.976 1.343 1.343 0 0 1 1.026-.4 1.368 1.368 0 0 1 1.033.4 1.351 1.351 0 0 1 .385.976 1.321 1.321 0 0 1-.385.968 1.382 1.382 0 0 1-1.033.391 1.356 1.356 0 0 1-1.026-.391 1.338 1.338 0 0 1-.376-.968m.359 5.341H69.1v18.491h-2.054zm9.729.003l.068 3.161a7.332 7.332 0 0 1 2.6-2.605 6.739 6.739 0 0 1 3.435-.9 5.549 5.549 0 0 1 4.426 1.675 7.561 7.561 0 0 1 1.47 5.024v12.134h-2.036v-12.15a5.655 5.655 0 0 0-1.051-3.692 4.119 4.119 0 0 0-3.307-1.214 5.176 5.176 0 0 0-3.358 1.188 6.96 6.96 0 0 0-2.162 3.2v12.664h-2.034v-18.485h1.949m16.632 9.075a11.13 11.13 0 0 1 1.923-6.879 6.2 6.2 0 0 1 5.22-2.538 6.434 6.434 0 0 1 5.743 3.008l.1-2.666h1.914v18.115a7.832 7.832 0 0 1-2 5.657 7.153 7.153 0 0 1-5.415 2.084 8.228 8.228 0 0 1-3.682-.862 7.153 7.153 0 0 1-2.761-2.3l1.145-1.23a6.48 6.48 0 0 0 5.162 2.666 5.247 5.247 0 0 0 4-1.513 6.024 6.024 0 0 0 1.486-4.195v-2.324a6.608 6.608 0 0 1-5.725 2.734 6.167 6.167 0 0 1-5.161-2.564 11.167 11.167 0 0 1-1.948-6.92v-.274m2.068.358a9.644 9.644 0 0 0 1.418 5.581 4.589 4.589 0 0 0 4 2.042 5.465 5.465 0 0 0 5.349-3.384v-8.6a5.838 5.838 0 0 0-2.067-2.708 5.581 5.581 0 0 0-3.248-.932 4.642 4.642 0 0 0-4.016 2.026 10.3 10.3 0 0 0-1.437 5.976zm27.505 9.059v-24.883h6.955a10.828 10.828 0 0 1 5.486 1.393 9.628 9.628 0 0 1 3.785 3.99 12.571 12.571 0 0 1 1.359 5.914v2.289a12.568 12.568 0 0 1-1.35 5.914 9.607 9.607 0 0 1-3.8 3.982 11.145 11.145 0 0 1-5.631 1.4h-6.8m2.1-23.105v21.328h4.715a8.116 8.116 0 0 0 6.307-2.609 10.08 10.08 0 0 0 2.375-7.054v-2.19a9.851 9.851 0 0 0-2.341-6.876 7.983 7.983 0 0 0-6.17-2.6zm29.054 6.358a7.7 7.7 0 0 0-1.384-.119 5 5 0 0 0-3.239 1.067 5.852 5.852 0 0 0-1.888 3.1v12.7h-2.034v-18.491h2l.034 2.939a5.439 5.439 0 0 1 5.213-3.281 3.369 3.369 0 0 1 1.35.222l-.052 1.863m10.242 17.09a8.028 8.028 0 0 1-4.265-1.162 7.925 7.925 0 0 1-2.964-3.238 10.094 10.094 0 0 1-1.06-4.658v-.735a10.874 10.874 0 0 1 1.034-4.8 8.224 8.224 0 0 1 2.88-3.358 7.1 7.1 0 0 1 4-1.222 6.678 6.678 0 0 1 5.34 2.3 9.322 9.322 0 0 1 1.974 6.28v1.145h-13.194v.393a7.74 7.74 0 0 0 1.8 5.239 5.736 5.736 0 0 0 4.537 2.092 6.651 6.651 0 0 0 2.9-.6 6.411 6.411 0 0 0 2.282-1.914l1.282.974a7.462 7.462 0 0 1-6.545 3.264m-.376-17.432a5.117 5.117 0 0 0-3.889 1.692 7.825 7.825 0 0 0-1.922 4.547h11.091v-.223a6.789 6.789 0 0 0-1.521-4.341 4.714 4.714 0 0 0-3.76-1.675zm23.142 17.09a9.673 9.673 0 0 1-.393-2.58 7.133 7.133 0 0 1-2.743 2.161 8.4 8.4 0 0 1-3.529.761 6.2 6.2 0 0 1-4.315-1.486 4.846 4.846 0 0 1-1.649-3.76 4.952 4.952 0 0 1 2.247-4.274 10.806 10.806 0 0 1 6.263-1.572h3.709v-2.1a4.055 4.055 0 0 0-1.222-3.12 5.06 5.06 0 0 0-3.563-1.136 5.584 5.584 0 0 0-3.538 1.093 3.254 3.254 0 0 0-1.4 2.633l-2.051-.017a4.756 4.756 0 0 1 2.051-3.82 7.893 7.893 0 0 1 5.041-1.615 7.207 7.207 0 0 1 4.88 1.547 5.555 5.555 0 0 1 1.837 4.315v8.75a10.855 10.855 0 0 0 .564 4.016v.2h-2.188m-6.426-1.47a6.861 6.861 0 0 0 3.666-.991 5.831 5.831 0 0 0 2.35-2.648v-4.069h-3.657a9.176 9.176 0 0 0-4.785 1.12 3.36 3.36 0 0 0-1.726 2.982 3.307 3.307 0 0 0 1.153 2.581 4.344 4.344 0 0 0 2.998 1.029zm15.538-17.017l.068 3.008a6.849 6.849 0 0 1 2.564-2.513 7.03 7.03 0 0 1 3.418-.837q4.374 0 5.554 3.589a6.942 6.942 0 0 1 2.649-2.657 7.336 7.336 0 0 1 3.657-.932q5.947 0 6.067 6.494v12.339h-2.051V279.45a5.514 5.514 0 0 0-1.068-3.674 4.349 4.349 0 0 0-3.426-1.2 5.455 5.455 0 0 0-3.726 1.427 5.046 5.046 0 0 0-1.692 3.393v12.236h-2.051V279.3a5.065 5.065 0 0 0-1.119-3.546 4.457 4.457 0 0 0-3.392-1.171 5.159 5.159 0 0 0-3.316 1.1 6.466 6.466 0 0 0-2.051 3.272v12.681H194.3v-18.492h1.965m52.573 12.373a4.03 4.03 0 0 0-1.453-3.273 15.359 15.359 0 0 0-5.315-2.29 18.6 18.6 0 0 1-5.64-2.367 5.74 5.74 0 0 1-.179-9.39 9.647 9.647 0 0 1 6.007-1.787 9.967 9.967 0 0 1 4.435.958 7.263 7.263 0 0 1 3.033 2.666 7 7 0 0 1 1.077 3.81h-2.119a5.226 5.226 0 0 0-1.743-4.1 6.784 6.784 0 0 0-4.683-1.552 7.377 7.377 0 0 0-4.546 1.275 3.98 3.98 0 0 0-1.692 3.329 3.767 3.767 0 0 0 1.521 3.1 14.081 14.081 0 0 0 4.871 2.104 22.9 22.9 0 0 1 5.075 1.9 7.234 7.234 0 0 1 2.6 2.349 5.887 5.887 0 0 1 .872 3.231 5.626 5.626 0 0 1-2.35 4.717 10.009 10.009 0 0 1-6.195 1.777 12.153 12.153 0 0 1-4.828-.94 7.365 7.365 0 0 1-3.332-2.632 6.78 6.78 0 0 1-1.137-3.879h2.1a4.966 4.966 0 0 0 1.965 4.152 8.314 8.314 0 0 0 5.23 1.522 7.754 7.754 0 0 0 4.665-1.282 4.007 4.007 0 0 0 1.761-3.4m18.239 3.778q-1.846 2.683-5.9 2.684a5.72 5.72 0 0 1-4.5-1.718 7.517 7.517 0 0 1-1.572-5.084v-12.031h2.034v11.774q0 5.283 4.272 5.282 4.444 0 5.623-3.674v-13.382h2.051v18.491h-1.982l-.035-2.342m16.061-14.406a7.716 7.716 0 0 0-1.385-.119 4.994 4.994 0 0 0-3.238 1.067 5.859 5.859 0 0 0-1.889 3.1v12.7h-2.033v-18.491h2l.033 2.939a5.441 5.441 0 0 1 5.213-3.281 3.363 3.363 0 0 1 1.35.222l-.051 1.863m5.131 16.748v-16.816h-3.06v-1.675h3.06V270.9a6.088 6.088 0 0 1 1.444-4.358 5.286 5.286 0 0 1 4.025-1.521 7.885 7.885 0 0 1 2.171.288l-.155 1.694a7.96 7.96 0 0 0-1.863-.2 3.341 3.341 0 0 0-2.631 1.055 4.34 4.34 0 0 0-.94 2.99v2.3h4.409v1.675h-4.409v16.816h-2.051m21.964-.004a9.673 9.673 0 0 1-.393-2.58 7.133 7.133 0 0 1-2.743 2.161 8.4 8.4 0 0 1-3.528.761 6.2 6.2 0 0 1-4.316-1.486 4.85 4.85 0 0 1-1.649-3.76 4.952 4.952 0 0 1 2.247-4.274 10.808 10.808 0 0 1 6.264-1.572h3.708v-2.1a4.055 4.055 0 0 0-1.222-3.12 5.057 5.057 0 0 0-3.563-1.136 5.584 5.584 0 0 0-3.538 1.093 3.254 3.254 0 0 0-1.4 2.633l-2.051-.017a4.756 4.756 0 0 1 2.051-3.82 7.9 7.9 0 0 1 5.042-1.615 7.2 7.2 0 0 1 4.879 1.547 5.551 5.551 0 0 1 1.837 4.315v8.75a10.88 10.88 0 0 0 .563 4.016v.2h-2.187m-6.426-1.47a6.863 6.863 0 0 0 3.666-.991 5.831 5.831 0 0 0 2.35-2.648v-4.069h-3.657a9.178 9.178 0 0 0-4.785 1.12 3.36 3.36 0 0 0-1.726 2.982 3.307 3.307 0 0 0 1.153 2.581 4.345 4.345 0 0 0 3 1.029zm20.512.089a5.4 5.4 0 0 0 3.58-1.2 4.24 4.24 0 0 0 1.564-3.119h1.965a5.8 5.8 0 0 1-1.059 3.085 6.642 6.642 0 0 1-2.589 2.179 7.821 7.821 0 0 1-3.461.786 7.143 7.143 0 0 1-5.768-2.529 10.223 10.223 0 0 1-2.128-6.8v-.615a11.564 11.564 0 0 1 .957-4.837 7.364 7.364 0 0 1 2.743-3.246 7.566 7.566 0 0 1 4.178-1.146 7.139 7.139 0 0 1 5.017 1.812 6.61 6.61 0 0 1 2.11 4.767h-1.965a4.949 4.949 0 0 0-5.162-4.836 5.1 5.1 0 0 0-4.3 2 9.049 9.049 0 0 0-1.529 5.606v.6a8.847 8.847 0 0 0 1.529 5.52 5.133 5.133 0 0 0 4.316 1.982m18.53 1.718a8.027 8.027 0 0 1-4.264-1.162 7.925 7.925 0 0 1-2.964-3.238 10.094 10.094 0 0 1-1.06-4.658v-.735a10.888 10.888 0 0 1 1.034-4.8 8.229 8.229 0 0 1 2.879-3.358 7.107 7.107 0 0 1 4-1.222 6.678 6.678 0 0 1 5.34 2.3 9.323 9.323 0 0 1 1.975 6.28v1.145h-13.194v.393a7.745 7.745 0 0 0 1.8 5.239 5.734 5.734 0 0 0 4.537 2.092 6.651 6.651 0 0 0 2.9-.6 6.419 6.419 0 0 0 2.282-1.914l1.282.974a7.462 7.462 0 0 1-6.546 3.264m-.375-17.432a5.117 5.117 0 0 0-3.889 1.692 7.818 7.818 0 0 0-1.921 4.547h11.09v-.223a6.788 6.788 0 0 0-1.52-4.341 4.716 4.716 0 0 0-3.761-1.675zm22.544 12.391a2.912 2.912 0 0 0-1.222-2.444 9.421 9.421 0 0 0-3.682-1.445 16.574 16.574 0 0 1-3.821-1.2 5.073 5.073 0 0 1-2.016-1.649 4.111 4.111 0 0 1-.657-2.358 4.4 4.4 0 0 1 1.828-3.615 7.384 7.384 0 0 1 4.682-1.427 7.608 7.608 0 0 1 4.965 1.529 4.914 4.914 0 0 1 1.871 3.992h-2.051a3.317 3.317 0 0 0-1.358-2.7 6.132 6.132 0 0 0-6.665-.178 2.767 2.767 0 0 0-1.222 2.333 2.519 2.519 0 0 0 1.017 2.144 10.745 10.745 0 0 0 3.708 1.393 17.466 17.466 0 0 1 4.033 1.349 5.227 5.227 0 0 1 1.991 1.727 4.745 4.745 0 0 1-1.239 6.187 8.068 8.068 0 0 1-4.93 1.4 8.283 8.283 0 0 1-5.241-1.561 4.813 4.813 0 0 1-2-3.956h2.051a3.553 3.553 0 0 0 1.512 2.794 6.187 6.187 0 0 0 3.683 1 5.808 5.808 0 0 0 3.452-.939 2.82 2.82 0 0 0 1.316-2.375m29.414-2.292h-11.3l-2.564 6.99h-2.2l9.417-24.883h2l9.417 24.883h-2.187l-2.581-6.99m-10.648-1.777h9.981l-4.99-13.552zm21.657-14.458v4.734h3.828v1.675h-3.828v12.335a3.857 3.857 0 0 0 .555 2.293 2.153 2.153 0 0 0 1.854.753 12.726 12.726 0 0 0 1.658-.171l.086 1.66a6.691 6.691 0 0 1-2.188.288 3.645 3.645 0 0 1-3.059-1.222 5.743 5.743 0 0 1-.957-3.6v-12.336h-3.4v-1.675h3.4v-4.734h2.051m11.421 0v4.734h3.828v1.675h-3.828v12.335a3.857 3.857 0 0 0 .555 2.293 2.153 2.153 0 0 0 1.854.753 12.726 12.726 0 0 0 1.658-.171l.086 1.66a6.691 6.691 0 0 1-2.188.288 3.645 3.645 0 0 1-3.059-1.222 5.743 5.743 0 0 1-.957-3.6v-12.336h-3.4v-1.675h3.4v-4.734h2.051m19.912 23.225a9.673 9.673 0 0 1-.393-2.58 7.133 7.133 0 0 1-2.743 2.161 8.4 8.4 0 0 1-3.528.761 6.2 6.2 0 0 1-4.316-1.486 4.85 4.85 0 0 1-1.649-3.76 4.952 4.952 0 0 1 2.247-4.274 10.808 10.808 0 0 1 6.264-1.572h3.708v-2.1a4.055 4.055 0 0 0-1.222-3.12 5.059 5.059 0 0 0-3.564-1.136 5.583 5.583 0 0 0-3.537 1.093 3.254 3.254 0 0 0-1.4 2.633l-2.051-.017a4.756 4.756 0 0 1 2.051-3.82 7.9 7.9 0 0 1 5.042-1.615 7.208 7.208 0 0 1 4.879 1.547 5.551 5.551 0 0 1 1.837 4.315v8.75a10.88 10.88 0 0 0 .563 4.016v.2h-2.187m-6.426-1.47a6.863 6.863 0 0 0 3.666-.991 5.831 5.831 0 0 0 2.35-2.648v-4.069h-3.657a9.176 9.176 0 0 0-4.785 1.12 3.36 3.36 0 0 0-1.726 2.982 3.307 3.307 0 0 0 1.153 2.581 4.342 4.342 0 0 0 2.998 1.029zM443.9 267.8a1.372 1.372 0 0 1 .375-.976 1.339 1.339 0 0 1 1.025-.4 1.369 1.369 0 0 1 1.034.4 1.351 1.351 0 0 1 .385.976 1.321 1.321 0 0 1-.385.968 1.383 1.383 0 0 1-1.034.391 1.314 1.314 0 0 1-1.4-1.359m.358 5.341h2.051v18.491h-2.051zm9.731.003l.069 3.161a7.321 7.321 0 0 1 2.6-2.605 6.744 6.744 0 0 1 3.435-.9 5.552 5.552 0 0 1 4.427 1.675 7.561 7.561 0 0 1 1.47 5.024v12.134h-2.034v-12.15a5.649 5.649 0 0 0-1.051-3.692 4.119 4.119 0 0 0-3.307-1.214 5.176 5.176 0 0 0-3.358 1.188 6.969 6.969 0 0 0-2.163 3.2v12.664h-2.033v-18.485h1.948m29.123 18.491a9.64 9.64 0 0 1-.392-2.58 7.133 7.133 0 0 1-2.743 2.161 8.4 8.4 0 0 1-3.529.761 6.2 6.2 0 0 1-4.315-1.486 4.846 4.846 0 0 1-1.649-3.76 4.952 4.952 0 0 1 2.247-4.274 10.806 10.806 0 0 1 6.266-1.572h3.708v-2.1a4.055 4.055 0 0 0-1.221-3.12 5.059 5.059 0 0 0-3.564-1.136 5.581 5.581 0 0 0-3.537 1.093 3.251 3.251 0 0 0-1.4 2.633l-2.051-.017a4.753 4.753 0 0 1 2.051-3.82 7.894 7.894 0 0 1 5.042-1.615 7.208 7.208 0 0 1 4.879 1.547 5.551 5.551 0 0 1 1.836 4.315v8.75a10.876 10.876 0 0 0 .564 4.016v.2h-2.188m-6.425-1.47a6.866 6.866 0 0 0 3.666-.991 5.823 5.823 0 0 0 2.349-2.648v-4.069h-3.656a9.176 9.176 0 0 0-4.785 1.12 3.359 3.359 0 0 0-1.727 2.982 3.308 3.308 0 0 0 1.154 2.581 4.342 4.342 0 0 0 2.995 1.029zm28.557-7.584a11.137 11.137 0 0 1-1.914 6.862 6.11 6.11 0 0 1-5.143 2.538 6.644 6.644 0 0 1-5.845-2.871l-.086 2.529h-1.914v-26.25h2.034v10.442a6.428 6.428 0 0 1 5.776-3.025 6.171 6.171 0 0 1 5.187 2.5 11.27 11.27 0 0 1 1.9 6.964v.307m-2.051-.358a9.629 9.629 0 0 0-1.418-5.648 4.624 4.624 0 0 0-4-1.992 5.637 5.637 0 0 0-3.333.966 5.876 5.876 0 0 0-2.067 2.828v8.34a5.48 5.48 0 0 0 5.435 3.487 4.591 4.591 0 0 0 3.956-2q1.432-1.996 1.432-5.977zm6.982-16.83h2.051v26.25h-2.051zm14.939 26.592a8.021 8.021 0 0 1-4.263-1.162 7.921 7.921 0 0 1-2.965-3.238 10.094 10.094 0 0 1-1.06-4.658v-.735a10.888 10.888 0 0 1 1.034-4.8 8.229 8.229 0 0 1 2.879-3.358 7.107 7.107 0 0 1 4-1.222 6.675 6.675 0 0 1 5.34 2.3 9.317 9.317 0 0 1 1.975 6.28v1.145h-13.194v.393a7.745 7.745 0 0 0 1.8 5.239 5.734 5.734 0 0 0 4.537 2.092 6.659 6.659 0 0 0 2.9-.6 6.416 6.416 0 0 0 2.281-1.914l1.282.974a7.461 7.461 0 0 1-6.546 3.264m-.375-17.432a5.113 5.113 0 0 0-3.888 1.692 7.812 7.812 0 0 0-1.922 4.547h11.091v-.223a6.794 6.794 0 0 0-1.521-4.341 4.716 4.716 0 0 0-3.76-1.675zm-204.589-71.019c-21.385-12.873-34.841-33.662-35.049-55-.028-.226-.064-.459-.087-.682v74.065c14.716-14.716 31.661-14.25 47.885-12.049a88.752 88.752 0 0 1-8.1-3.735q-2.379-1.239-4.646-2.6M39.643 164.014V63.343l-6.25-15.352v115.661C32.781 199.044 22.72 210.161 0 215.927h72.451c-22.643-5.746-32.177-16.75-32.808-51.913M261.848 8.443H198.08L145.472 149.4 85.69 8.443H20.211c11.555 2.37 18.666 6.814 25.481 23.406l75.552 185.769h5.466l72.623-194.536v168.167c0 17.481-4.741 22.222-16.3 24.592h78.812c-11.555-2.074-16.3-7.111-16.3-24.592V44.886c0-27.26 2.371-33.185 16.3-36.443m165.778 66.134V.513c-15.925 15.924-32.959 14.072-50.364 11.48C408 18.659 425.4 53.469 427.623 74.577m88.433 115.487V44.59c0-26.666 2.37-32.889 16.3-36.147H453.54c11.852 2.666 16.295 7.7 16.295 26.071V179.7c0 26.665-2.073 33.182-16.295 36.146h78.812c-11.556-2.074-16.3-7.407-16.3-25.777m-122.103-87.624L343.683 74.57c-16.464-8.746-25.784-25.325-21.642-40.977 4.11-15.524 20.218-25.285 38.659-24.913-35.053-3.855-66.985 13.5-74.662 42.5-7.178 27.119 9.115 55.874 37.724 70.936l50.268 27.874c16.463 8.746 25.785 25.325 21.641 40.977-4.108 15.525-20.217 25.285-38.662 24.913 35.055 3.856 66.985-13.5 74.663-42.5 7.178-27.118-9.115-55.873-37.723-70.935" fill="#8b6f4c"/></svg>