<?xml version="1.0" standalone="no"?>
<!DOCTYPE svg PUBLIC "-//W3C//DTD SVG 1.1//EN" "http://www.w3.org/Graphics/SVG/1.1/DTD/svg11.dtd" >
<svg xmlns="http://www.w3.org/2000/svg">
<metadata>Generated by IcoMoon</metadata>
<defs>
<font id="base-icon" horiz-adv-x="1024">
<font-face units-per-em="1024" ascent="960" descent="-64" />
<missing-glyph horiz-adv-x="1024" />
<glyph unicode="&#x20;" horiz-adv-x="512" d="" />
<glyph unicode="&#xe900;" glyph-name="up" d="M552-24v847.104l139.648-140.32c15.584-15.648 40.896-15.712 56.576-0.128s15.712 40.928 0.128 56.576l-208 209.024c0 0-0.032 0.032-0.032 0.032-15.584 15.616-40.992 15.68-56.64 0 0 0-0.032-0.032-0.032-0.032l-208-209.024c-15.584-15.648-15.52-40.992 0.128-56.576s40.992-15.52 56.576 0.128l139.648 140.32v-847.104c0-22.080 17.92-40 40-40s40 17.92 40 40z" />
<glyph unicode="&#xe901;" glyph-name="404" d="M209.152 401.312c9.984-9.952 26.144-9.952 36.16 0l50.080 49.984 50.112-49.984c9.984-9.952 26.144-9.952 36.16 0s9.984 26.144 0 36.096l-50.080 49.952 50.080 49.952c9.984 9.952 9.984 26.112 0 36.096s-26.176 9.952-36.16 0l-50.112-49.984-50.080 49.984c-9.984 9.952-26.144 9.952-36.16 0s-9.984-26.112 0-36.096l50.080-49.952-50.080-49.952c-9.984-9.952-9.984-26.144 0-36.096v0zM647.648 401.312c9.984-9.952 26.144-9.952 36.16 0l50.080 49.984 50.112-49.984c9.984-9.952 26.144-9.952 36.16 0s9.984 26.144 0 36.096l-50.080 49.952 50.080 49.952c9.984 9.952 9.984 26.112 0 36.096s-26.144 9.952-36.16 0l-50.112-49.984-50.080 49.984c-9.984 9.952-26.144 9.952-36.16 0s-9.984-26.112 0-36.096l50.080-49.952-50.080-49.952c-9.984-9.952-9.984-26.144 0-36.096v0zM281.184 192.096h466.912c14.112 0 25.568 11.424 25.568 25.504s-11.456 25.504-25.568 25.504h-466.912c-14.112 0-25.568-11.424-25.568-25.504s11.456-25.504 25.568-25.504zM795.84 808.992h69.728c90.304 0 163.744-73.28 163.744-163.36v-527.456c0-90.080-73.44-163.36-163.744-163.36h-152.096c-14.112 0-25.568 11.424-25.568 25.504s11.456 25.504 25.568 25.504h152.096c62.080 0 112.608 50.432 112.608 112.352v527.456c0 61.984-50.528 112.352-112.608 112.352h-701.824c-62.080 0-112.608-50.432-112.608-112.352v-527.456c0-61.952 50.528-112.352 112.608-112.352h454.272c14.112 0 25.568-11.424 25.568-25.504s-11.456-25.504-25.568-25.504h-454.272c-90.304 0-163.744 73.28-163.744 163.36v527.456c0 90.080 73.44 163.36 163.744 163.36h69.728v50.592c0 46.816 38.176 84.896 85.088 84.896h392.224c46.912 0 85.088-38.080 85.088-84.896v-50.592zM284.576 859.584v-50.592h460.128v50.592c0 18.688-15.232 33.888-33.984 33.888h-392.192c-18.72 0-33.952-15.2-33.952-33.888z" />
<glyph unicode="&#xe902;" glyph-name="account" d="M874.048 298.048c-55.776 55.776-122.144 97.056-194.56 122.016 77.568 53.44 128.512 142.848 128.512 243.936 0 163.232-132.768 296-296 296s-296-132.768-296-296c0-101.088 50.944-190.496 128.512-243.936-72.416-24.992-138.784-66.272-194.56-122.016-96.704-96.704-149.952-225.28-149.952-362.048h80c0 238.208 193.792 432 432 432s432-193.792 432-432h80c0 136.768-53.248 265.344-149.952 362.048zM512 448c-119.104 0-216 96.896-216 216s96.896 216 216 216c119.104 0 216-96.896 216-216s-96.896-216-216-216z" />
<glyph unicode="&#xe903;" glyph-name="child" d="M910.818 396.147c-6.767 8.777-19.371 10.411-28.16 3.639-8.781-6.767-10.411-19.375-3.644-28.16 20.642-26.773 31.552-58.85 31.552-92.753 0-11.085 8.99-20.075 20.079-20.075s20.079 8.99 20.079 20.075c0 42.854-13.798 83.409-39.906 117.274zM843.354 530.859c40.764 27.513 67.622 74.127 67.622 126.897 0 84.374-68.642 153.018-153.015 153.018s-153.020-68.644-153.020-153.018c0-52.746 26.837-99.342 67.571-126.863-29.675-10.044-57.459-25.344-82.129-45.402-20.873 20.075-48.883 31.637-78.383 31.637-29.495 0-57.506-11.567-78.366-31.637-24.676 20.058-52.464 35.358-82.144 45.406 40.736 27.518 67.57 74.114 67.57 126.862 0 84.374-68.644 153.018-153.018 153.018-84.364 0-152.998-68.644-152.998-153.018 0-52.77 26.854-99.382 67.614-126.896-104.776-35.605-180.404-134.852-180.63-251.465-0.006-0.179-0.028-0.346-0.028-0.525 0-30.822 17.516-76.318 100.968-117.999 59.464-29.7 141.18-52.023 236.316-64.559 55.804-7.36 114.59-11.093 174.716-11.093 60.147 0 118.938 3.729 174.737 11.093 95.13 12.535 176.841 34.859 236.301 64.559 83.447 41.681 100.962 87.177 100.962 117.999 0 116.838-75.712 216.329-180.646 251.985zM645.099 657.755c0 62.232 50.633 112.86 112.862 112.86s112.858-50.63 112.858-112.86c0-62.222-50.628-112.84-112.858-112.84s-112.862 50.618-112.862 112.84zM452.092 445.602c13.641 19.639 36.036 31.369 59.908 31.369 23.885 0 46.285-11.729 59.925-31.369 0.004-0.009 0.009-0.013 0.009-0.013 8.512-12.241 13.009-26.611 13.009-41.566 0-40.222-32.721-72.943-72.943-72.943-40.213 0-72.926 32.725-72.926 72.947 0 14.976 4.493 29.342 13.018 41.574zM153.198 657.755c0 62.232 50.62 112.86 112.84 112.86 62.232 0 112.86-50.63 112.86-112.86 0-62.222-50.63-112.84-112.86-112.84-62.22 0-112.84 50.618-112.84 112.84zM319.838 139.354c-80.97 12.331-150.090 32.055-200.924 57.446-50.64 25.289-78.584 54.345-78.746 81.835 0 0.081 0.012 0.158 0.012 0.239-0.002 124.553 101.32 225.882 225.86 225.882 52.984 0 103.534-18.3 143.986-51.827-7.294-15.159-11.106-31.778-11.106-48.905 0-34.953 15.942-66.253 40.931-87.014-70.183-28.535-119.831-97.391-120.013-177.655zM664.034 133.978c-48.836-5.696-99.883-8.602-152.034-8.602-52.139 0-103.176 2.906-152.014 8.602v4.932c0 83.823 68.191 152.013 152.014 152.013 83.831 0 152.034-68.19 152.034-152.013v-4.932zM905.092 196.8c-50.829-25.391-119.94-45.116-200.905-57.446-0.183 80.265-49.835 149.116-120.021 177.655 24.994 20.766 40.939 52.062 40.939 87.019 0 17.109-3.81 33.728-11.115 48.9 40.435 33.527 90.978 51.831 143.974 51.831 124.548 0 225.877-101.333 225.877-225.882 0-27.563-27.968-56.713-78.75-82.078zM850.658 443.311c-25.839 0-25.886-40.154 0-40.154 25.839 0 25.882 40.154 0 40.154z" />
<glyph unicode="&#xe904;" glyph-name="apple" d="M136.768 583.584c-86.56-150.24-31.552-378.208 64.192-516.448 47.776-69.12 96.16-131.136 162.432-131.136 1.248 0 2.496 0.032 3.776 0.064 31.136 1.248 53.632 10.816 75.392 20.096 24.416 10.4 49.664 21.184 89.28 21.184 37.696 0 61.728-10.4 84.992-20.48 22.912-9.92 46.528-20.192 81.44-19.52 74.656 1.376 120.48 68.32 160.896 127.392 42.208 61.664 63.36 121.536 70.496 144.416l0.288 0.896c1.376 4.064-0.576 8.512-4.448 10.304-0.096 0.064-0.512 0.224-0.608 0.256-13.152 5.376-128.448 56.512-129.664 195.936-1.12 113.28 86.496 173.248 104.064 184.128l0.832 0.512c1.888 1.216 3.232 3.168 3.68 5.376s-0.032 4.544-1.312 6.4c-60.48 88.512-153.184 101.856-190.496 103.456-5.408 0.544-11.008 0.8-16.608 0.8-43.84 0-85.824-16.544-119.552-29.856-23.296-9.184-43.392-17.12-57.28-17.12-15.584 0-35.808 8.032-59.232 17.312-31.328 12.448-66.816 26.528-104.416 26.528-0.896 0-1.792 0-2.656-0.032-87.392-1.28-169.984-51.296-215.488-130.464zM712.096 960c-52.928-2.144-116.416-34.72-154.336-79.168-32.256-37.344-63.744-99.648-55.456-162.432 0.512-3.936 3.712-6.976 7.68-7.264 3.584-0.288 7.232-0.416 10.848-0.416 51.744 0 107.584 28.64 145.696 74.72 40.128 48.672 60.416 111.136 54.272 167.104-0.48 4.384-4.352 7.648-8.672 7.456z" />
<glyph unicode="&#xe905;" glyph-name="app-store" d="M210.016 960h604c115.808 0 209.984-94.208 209.984-210.016v-604c0-115.808-94.208-209.984-209.984-209.984h-604c-115.808 0-210.016 94.208-210.016 209.984v604c0 115.808 94.208 210.016 210.016 210.016zM814.016-4c82.72 0 149.984 67.296 149.984 149.984v604c0 82.72-67.296 150.016-149.984 150.016h-604c-82.72 0-150.016-67.296-150.016-150.016v-604c0-82.72 67.296-149.984 150.016-149.984h604zM611.296 712.928c-3.456 12.896-11.712 23.68-23.296 30.368-23.872 13.792-54.496 5.568-68.288-18.304l-7.712-13.344-7.712 13.344c-13.792 23.872-44.416 32.096-68.288 18.304v0c-23.872-13.792-32.096-44.416-18.304-68.288l36.576-63.328-134.912-233.664h-98.368c-27.584 0-50.016-22.432-50.016-49.984s22.432-50.016 50.016-50.016h379.712l-57.728 100h-108.16l171.456 296.992c6.688 11.552 8.448 25.056 4.992 37.952zM803.008 377.984h-98.368l-111.808 193.664-57.728-100 173.6-300.704c6.688-11.584 17.472-19.84 30.368-23.296 4.32-1.152 8.672-1.728 13.024-1.728 8.672 0 17.216 2.272 24.928 6.72 23.872 13.792 32.096 44.416 18.304 68.288l-32.928 57.024h40.608c27.584 0 49.984 22.432 49.984 50.016s-22.432 49.984-49.984 49.984zM238.528 238.016l-9.824-17.024c-13.792-23.872-5.568-54.528 18.304-68.288 7.84-4.544 16.448-6.688 24.928-6.688 17.28 0 34.144 8.96 43.392 24.992l38.688 67.040h-115.456z" />
<glyph unicode="&#xe906;" glyph-name="calendar" d="M904 880h-48v80h-80v-80h-528v80h-80v-80h-48c-66.176 0-120-53.824-120-120v-704c0-66.176 53.824-120 120-120h784c66.176 0 120 53.824 120 120v704c0 66.176-53.824 120-120 120zM944 56c0-22.048-17.952-40-40-40h-784c-22.048 0-40 17.952-40 40v528h864v-528zM944 664h-864v96c0 22.048 17.952 40 40 40h48v-80h80v80h528v-80h80v80h48c22.048 0 40-17.952 40-40v-96zM152 420h80v80h-80v-80zM312 420h80v80h-80v-80zM472 420h80v80h-80v-80zM632 420h80v80h-80v-80zM792 420h80v80h-80v-80zM152 260h80v80h-80v-80zM312 260h80v80h-80v-80zM472 260h80v80h-80v-80zM632 260h80v80h-80v-80zM152 100h80v80h-80v-80zM312 100h80v80h-80v-80zM472 100h80v80h-80v-80zM632 100h80v80h-80v-80zM792 260h80v80h-80v-80z" />
<glyph unicode="&#xe907;" glyph-name="check-symbol" d="M325.824 221.088l-244.352 244.352-81.44-81.44 325.824-325.824 698.176 698.176-81.44 81.44z" />
<glyph unicode="&#xe908;" glyph-name="close-button" d="M1024 857.6l-102.4 102.4-409.6-409.6-409.6 409.6-102.4-102.4 409.6-409.6-409.6-409.6 102.4-102.4 409.6 409.6 409.6-409.6 102.4 102.4-409.6 409.6z" />
<glyph unicode="&#xe909;" glyph-name="down" d="M472 920v-847.104l-139.648 140.32c-15.584 15.648-40.896 15.712-56.576 0.128s-15.712-40.928-0.128-56.576l208-209.024c0 0 0.032-0.032 0.032-0.032 15.584-15.616 40.992-15.68 56.64 0 0 0 0.032 0.032 0.032 0.032l208 209.024c15.584 15.648 15.52 40.992-0.128 56.576s-40.992 15.52-56.576-0.128l-139.648-140.32v847.104c0 22.080-17.92 40-40 40s-40-17.92-40-40z" />
<glyph unicode="&#xe90a;" glyph-name="envelope" d="M906.72 846.752h-780.416c-69.664 0-126.304-56.64-126.304-126.304v-533.376c0-69.696 56.608-126.304 126.304-126.304h780.192c69.696 0 126.304 56.608 126.304 126.304v533.184c0.192 69.664-56.416 126.496-126.080 126.496zM975.296 187.040c0-37.824-30.784-68.608-68.576-68.608h-780.416c-37.824 0-68.576 30.784-68.576 68.608v533.184c0 37.824 30.784 68.576 68.576 68.576h780.192c37.824 0 68.608-30.784 68.608-68.576v-533.184h0.192zM651.392 460.352l252.576 226.528c11.776 10.688 12.832 28.832 2.144 40.832-10.688 11.776-28.832 12.8-40.8 2.144l-348.32-312.64-67.968 60.704c-0.192 0.192-0.416 0.416-0.416 0.64-1.504 1.504-3.008 2.784-4.736 4.064l-276.512 247.456c-12 10.688-30.144 9.632-40.832-2.336s-9.6-30.144 2.368-40.832l255.584-228.416-254.496-238.272c-11.552-10.912-12.192-29.088-1.312-40.832 5.76-5.984 13.472-9.184 21.152-9.184 7.072 0 14.112 2.56 19.648 7.68l258.336 241.696 70.112-62.624c5.536-4.928 12.384-7.264 19.232-7.264s13.888 2.56 19.232 7.456l72 64.544 256.864-244.032c5.536-5.344 12.8-7.904 19.84-7.904 7.712 0 15.2 3.008 20.96 8.992 10.88 11.552 10.464 29.92-1.088 40.8l-253.664 240.832z" />
<glyph unicode="&#xe90b;" glyph-name="expand" d="M708.928 960v-78.784h102.4c35.872-0.096 71.296 8 103.584 23.616l4.736 2.368-866.464-866.464v2.368c16.384 32.256 25.12 67.808 25.6 103.968v103.968h-78.784v-315.072h315.072v78.784h-103.968c-34.848 0.032-69.28-7.616-100.832-22.464l-4.32-1.984 866.464 866.464v-3.936c-17.152-32.576-26.464-68.736-27.168-105.536v-102.4h78.784v315.072h-315.072zM456.864 554.72l-350.528 350.528h2.368c31.648-15.488 66.368-23.68 101.6-24.032h104.768v78.784h-315.072v-315.072h78.784v104.768c0 34.432-7.52 68.416-22.048 99.648l-1.984 4.32 350.528-350.528 51.584 51.584zM945.216 251.072v-105.152c0-34.432 7.52-68.448 22.048-99.648l1.568-3.136-350.144 350.144-51.584-51.584 350.144-350.144h-3.168c-31.232 14.976-65.376 22.912-100.032 23.232h-105.152v-78.752h315.072v315.072h-78.784z" />
<glyph unicode="&#xe90c;" glyph-name="expand-2" d="M32 618.656c-17.664 0-32 14.336-32 32v192c0 64.736 52.608 117.344 117.344 117.344h192c17.664 0 32-14.336 32-32s-14.336-32-32-32h-192c-29.408 0-53.344-23.936-53.344-53.344v-192c0-17.664-14.336-32-32-32zM906.656-64h-192c-17.664 0-32 14.336-32 32s14.336 32 32 32h192c29.408 0 53.344 23.936 53.344 53.344v192c0 17.664 14.336 32 32 32s32-14.336 32-32v-192c0-64.736-52.608-117.344-117.344-117.344zM309.344-64h-192c-64.736 0-117.344 52.608-117.344 117.344v192c0 17.664 14.336 32 32 32s32-14.336 32-32v-192c0-29.408 23.936-53.344 53.344-53.344h192c17.664 0 32-14.336 32-32s-14.336-32-32-32zM992 618.656c-17.664 0-32 14.336-32 32v192c0 29.408-23.936 53.344-53.344 53.344h-192c-17.664 0-32 14.336-32 32s14.336 32 32 32h192c64.736 0 117.344-52.608 117.344-117.344v-192c0-17.664-14.336-32-32-32zM736 106.656h-448c-64.736 0-117.344 52.608-117.344 117.344v448c0 64.736 52.608 117.344 117.344 117.344h448c64.736 0 117.344-52.608 117.344-117.344v-448c0-64.736-52.608-117.344-117.344-117.344zM288 725.344c-29.408 0-53.344-23.936-53.344-53.344v-448c0-29.408 23.936-53.344 53.344-53.344h448c29.408 0 53.344 23.936 53.344 53.344v448c0 29.408-23.936 53.344-53.344 53.344h-448z" />
<glyph unicode="&#xe90d;" glyph-name="facebook" d="M877.728 925.44h-731.424c-67.232 0-121.92-54.688-121.92-121.92v-731.424c0-67.232 54.688-121.92 121.92-121.92h365.728v335.232h-121.92v152.384h121.92v121.92c0 100.992 81.856 182.848 182.848 182.848h121.92v-152.384h-60.96c-33.632 0-60.96 3.168-60.96-30.464v-121.92h152.384l-60.96-152.384h-91.424v-335.232h182.848c67.232 0 121.92 54.688 121.92 121.92v731.424c0 67.232-54.688 121.92-121.92 121.92z" />
<glyph unicode="&#xe90e;" glyph-name="github" d="M511.936 949.344c-282.688 0-511.936-230.144-511.936-514.048 0-227.072 146.688-419.712 350.208-487.744 25.6-4.736 34.944 11.136 34.944 24.768 0 12.224-0.448 44.544-0.704 87.424-142.4-31.040-172.48 68.928-172.48 68.928-23.232 59.392-56.832 75.2-56.832 75.2-46.528 31.872 3.456 31.232 3.456 31.232 51.392-3.648 78.4-52.992 78.4-52.992 45.696-78.528 119.872-55.872 149.056-42.688 4.608 33.216 17.856 55.872 32.512 68.736-113.664 12.992-233.216 57.088-233.216 254.016 0 56.128 19.968 102.016 52.736 137.984-5.312 12.992-22.848 65.28 4.992 136 0 0 43.008 13.824 140.8-52.672 40.832 11.392 84.608 17.088 128.192 17.28 43.456-0.256 87.296-5.888 128.192-17.344 97.728 66.496 140.672 52.672 140.672 52.672 27.904-70.784 10.368-123.008 5.12-136 32.832-35.968 52.608-81.856 52.608-137.984 0-197.44-119.68-240.896-233.728-253.632 18.368-15.872 34.752-47.232 34.752-95.168 0-68.736-0.64-124.16-0.64-140.992 0-13.76 9.216-29.76 35.2-24.704 203.2 68.096 349.76 260.672 349.76 487.68 0 283.904-229.248 514.048-512.064 514.048z" />
<glyph unicode="&#xe90f;" glyph-name="google-play" d="M913.024 552.192c34.624-19.68 56.096-56.544 56.096-96.192s-21.504-76.512-56.128-96.192l-691.488-393.216c-16.8-9.568-35.936-14.624-55.296-14.624-19.616 0-38.944 5.184-55.904 14.976-34.208 19.744-55.488 56.48-55.488 95.84v786.432c0 39.36 21.248 76.096 55.488 95.84 16.96 9.792 36.288 14.976 55.904 14.976 19.36 0 38.464-5.056 55.296-14.592l691.52-393.216zM613.376 645.152l-322.048 183.136 227.104-314.688 94.944 131.552zM144.256 25.056c5.408-3.136 11.456-4.928 17.632-5.504l314.976 436.448-315.040 436.544c-6.176-0.64-12.192-2.496-17.568-5.6-13.472-7.776-21.824-22.24-21.824-37.728v-786.432c0-15.488 8.352-29.952 21.824-37.728zM291.328 83.648l322.048 183.136-94.944 131.552-227.104-314.688zM672.352 300.32l207.168 117.792c13.632 7.744 22.080 22.24 22.080 37.856s-8.448 30.112-22.080 37.856l-207.168 117.792-112.32-155.648 112.32-155.648z" />
<glyph unicode="&#xe910;" glyph-name="heart" d="M941.28 814.56c-53.632 53.632-124.608 82.912-200.384 82.912s-146.976-29.536-200.576-83.136l-28-28-28.448 28.448c-53.632 53.632-125.056 83.36-200.8 83.36-75.552 0-146.752-29.536-200.16-82.912-53.632-53.632-83.136-124.832-82.912-200.576 0-75.776 29.728-146.752 83.36-200.384l407.68-407.68c5.632-5.632 13.248-8.672 20.608-8.672s14.976 2.816 20.608 8.48l408.544 407.040c53.632 53.632 83.136 124.832 83.136 200.576 0.224 75.776-29.088 146.976-82.72 200.576zM899.616 454.848l-387.936-386.4-387.072 387.072c-42.56 42.56-65.984 99.008-65.984 159.136s23.232 116.576 65.792 158.912c42.336 42.336 98.784 65.792 158.688 65.792 60.128 0 116.8-23.456 159.328-65.984l49.056-49.056c11.52-11.52 29.952-11.52 41.472 0l48.64 48.64c42.56 42.56 99.2 65.984 159.136 65.984s116.352-23.456 158.912-65.792c42.56-42.56 65.792-99.008 65.792-159.136 0.224-60.128-23.232-116.576-65.792-159.136z" />
<glyph unicode="&#xe911;" glyph-name="heart-filled" d="M941.28 814.556c-53.632 53.632-124.608 82.912-200.384 82.912s-146.976-29.536-200.576-83.136l-28-28-28.448 28.448c-53.632 53.632-125.056 83.36-200.799 83.36-75.552 0-146.752-29.536-200.16-82.912-53.632-53.632-83.136-124.832-82.912-200.576 0-75.776 29.728-146.752 83.36-200.384l407.679-407.68c5.632-5.632 13.248-8.672 20.608-8.672s14.976 2.816 20.608 8.48l408.544 407.040c53.632 53.632 83.136 124.832 83.136 200.576 0.224 75.776-29.088 146.976-82.72 200.576l0.064-0.032z" />
<glyph unicode="&#xe912;" glyph-name="instagram" d="M694.848 925.44h-365.728c-168.288 0-304.768-136.48-304.768-304.768v-365.728c0-168.288 136.48-304.768 304.768-304.768h365.728c168.288 0 304.768 136.48 304.768 304.768v365.728c0 168.288-136.48 304.768-304.768 304.768zM908.192 254.976c0-117.632-95.68-213.344-213.344-213.344h-365.728c-117.632 0-213.344 95.68-213.344 213.344v365.728c0 117.632 95.68 213.344 213.344 213.344h365.728c117.632 0 213.344-95.68 213.344-213.344v-365.728zM512 681.632c-134.656 0-243.808-109.152-243.808-243.808s109.152-243.808 243.808-243.808c134.656 0 243.808 109.184 243.808 243.808s-109.184 243.808-243.808 243.808zM512 285.44c-84 0-152.384 68.384-152.384 152.384 0 84.064 68.384 152.384 152.384 152.384s152.384-68.32 152.384-152.384c0-84-68.384-152.384-152.384-152.384z" />
<glyph unicode="&#xe913;" glyph-name="keyhole" d="M0 448c0-282.336 229.664-512 512-512s512 229.664 512 512c0 282.336-229.664 512-512 512s-512-229.664-512-512zM64 448c0 247.040 200.96 448 448 448s448-200.96 448-448c0-247.040-200.96-448-448-448s-448 200.96-448 448zM384 533.344c0-70.56 57.44-128 128-128s128 57.44 128 128-57.44 128-128 128c-70.56 0-128-57.44-128-128zM448 533.344c0 35.296 28.704 64 64 64s64-28.704 64-64c0-35.296-28.704-64-64-64s-64 28.704-64 64zM512 234.656c-17.664 0-32 14.336-32 32v170.656c0 17.664 14.336 32 32 32s32-14.336 32-32v-170.656c0-17.664-14.336-32-32-32z" />
<glyph unicode="&#xe914;" glyph-name="link" d="M541.28 516.096c-11.232-11.232-11.232-29.28 0-40.512 46.464-46.464 46.464-121.952 0-168.416l-243.904-243.904c-46.464-46.464-121.952-46.464-168.416 0l-36.704 36.704c-46.464 46.464-46.464 121.952 0 168.416l243.904 243.904c11.232 11.232 11.232 29.28 0 40.512s-29.28 11.232-40.512 0l-243.904-243.904c-33.312-33.312-51.744-77.632-51.744-124.704s18.24-91.424 51.744-124.704l36.704-36.704c34.368-34.368 79.52-51.552 124.704-51.552s90.368 17.184 124.704 51.552l243.904 243.904c68.704 68.704 68.704 180.704 0 249.44-11.040 11.232-29.28 11.232-40.512 0zM972.448 836.544l-36.704 36.704c-68.704 68.704-180.704 68.704-249.44 0l-243.904-243.904c-68.704-68.704-68.704-180.704 0-249.44 11.232-11.232 29.28-11.232 40.512 0s11.232 29.28 0 40.512c-46.464 46.464-46.464 121.952 0 168.416l243.904 243.904c46.464 46.464 121.952 46.464 168.416 0l36.704-36.704c46.464-46.464 46.464-121.952 0-168.416l-243.904-243.904c-11.232-11.232-11.232-29.28 0-40.512 5.504-5.504 12.928-8.48 20.16-8.48s14.624 2.752 20.16 8.48l243.904 243.904c33.312 33.312 51.744 77.632 51.744 124.704s-18.24 91.424-51.552 124.704z" />
<glyph unicode="&#xe915;" glyph-name="login" d="M0 448c0-282.336 229.664-512 512-512s512 229.664 512 512c0 282.336-229.664 512-512 512s-512-229.664-512-512zM64 448c0 247.040 200.96 448 448 448s448-200.96 448-448c0-247.040-200.96-448-448-448s-448 200.96-448 448zM384 533.344c0-70.56 57.44-128 128-128s128 57.44 128 128-57.44 128-128 128c-70.56 0-128-57.44-128-128zM448 533.344c0 35.296 28.704 64 64 64s64-28.704 64-64c0-35.296-28.704-64-64-64s-64 28.704-64 64zM512 234.688c-17.664 0-32 14.336-32 32v170.656c0 17.664 14.336 32 32 32s32-14.336 32-32v-170.656c0-17.664-14.336-32-32-32z" />
<glyph unicode="&#xe916;" glyph-name="mail" d="M987.426 813.714h-950.854c-20.199 0-36.572-16.374-36.572-36.57v-658.286c0-20.196 16.374-36.574 36.572-36.574h950.854c20.201 0 36.574 16.378 36.574 36.574v658.286c0 20.196-16.373 36.57-36.574 36.57zM927.454 740.572l-415.455-319.562-415.45 319.562h830.905zM950.858 155.426h-877.716v510.87l416.586-320.44c13.136-10.086 31.408-10.086 44.544 0l416.586 320.44v-510.87z" />
<glyph unicode="&#xe917;" glyph-name="next" d="M40 408h847.104l-140.32-139.648c-15.648-15.584-15.712-40.896-0.128-56.576s40.896-15.712 56.576-0.128l209.024 208c0 0 0.032 0.032 0.032 0.032 15.616 15.584 15.68 40.992 0 56.64 0 0-0.032 0.032-0.032 0.032l-209.024 208c-15.648 15.584-40.992 15.52-56.576-0.128s-15.52-40.992 0.128-56.576l140.32-139.648h-847.104c-22.080 0-40-17.92-40-40s17.92-40 40-40z" />
<glyph unicode="&#xe918;" glyph-name="next-2" d="M610.624 448.224l-383.072-383.104c-10.56-10.528-16.352-24.608-16.352-39.584s5.792-29.056 16.352-39.616l33.568-33.536c10.528-10.56 24.608-16.384 39.616-16.384s29.056 5.824 39.616 16.384l456.128 456.096c10.592 10.56 16.384 24.704 16.32 39.712 0.032 15.072-5.76 29.184-16.32 39.776l-455.68 455.648c-10.528 10.56-24.608 16.352-39.616 16.352s-29.056-5.824-39.616-16.352l-33.568-33.536c-21.824-21.824-21.824-57.376 0-79.2l382.656-382.656z" />
<glyph unicode="&#xe919;" glyph-name="padlock" d="M839.808 513.76h-15.072v133.408c0 172.448-140.192 312.832-312.832 312.832-172.448 0-312.832-140.192-312.832-312.832 0-15.904 12.736-28.64 28.64-28.64s28.64 12.736 28.64 28.64c0 140.832 114.528 255.584 255.584 255.584 140.832 0 255.584-114.528 255.584-255.584v-133.408h-583.264c-30.528 0-55.36-24.8-55.36-55.36v-356.544c0-91.424 74.432-165.856 165.856-165.856h434.592c91.424 0 165.856 74.432 165.856 165.856v356.544c0 30.528-24.8 55.36-55.36 55.36zM837.888 101.856c0-59.808-48.576-108.608-108.608-108.608h-434.368c-59.808 0-108.608 48.576-108.608 108.608v354.624h651.552v-354.624zM512.096 113.536c59.168 0 107.104 48.16 107.104 107.104 0 59.168-48.16 107.104-107.104 107.104-59.168 0-107.104-48.16-107.104-107.104s47.936-107.104 107.104-107.104zM512.096 270.688c27.584 0 49.856-22.496 49.856-49.856s-22.272-50.048-49.856-50.048-49.856 22.496-49.856 49.856 22.272 50.048 49.856 50.048z" />
<glyph unicode="&#xe91a;" glyph-name="passion" d="M750.944 915.68c-120.128 0-199.552-65.6-238.944-108.992-39.392 43.392-118.816 108.992-238.944 108.992-163.904 0-273.056-152.416-273.056-323.168 0-127.744 64.416-376.64 495.872-608.128 10.080-5.408 22.208-5.408 32.288 0 431.456 231.488 495.872 480.384 495.872 608.128 0 174.72-112.384 323.168-273.056 323.168zM512 53.312c-207.232 113.952-443.744 303.808-443.744 539.2 0 130.944 78.624 254.88 204.8 254.88 95.712 0 174.912-58.688 209.952-113.952 13.344-21.472 44.736-21.472 58.048 0.096 0.704 1.152 71.872 113.856 209.888 113.856 127.104 0 204.8-125.184 204.8-254.88 0-235.424-236.48-425.248-443.744-539.2z" />
<glyph unicode="&#xe91b;" glyph-name="phone" d="M996.124 208.486l-142.899 142.905c-51.035 51.034-137.796 30.618-158.214-35.726-15.309-45.938-66.35-71.452-112.282-61.247-102.072 25.52-239.87 158.215-265.388 265.391-15.311 45.935 15.311 96.972 61.244 112.28 66.347 20.415 86.762 107.177 35.726 158.213l-142.903 142.903c-40.829 35.726-102.073 35.726-137.799 0l-96.969-96.969c-96.97-102.073 10.207-372.566 250.079-612.436 239.872-239.872 510.368-352.159 612.438-250.084l96.967 96.973c35.732 40.829 35.732 102.070 0 137.796z" />
<glyph unicode="&#xe91c;" glyph-name="phone-call" d="M809.28 325.664c-20.96 21.824-46.24 33.504-73.056 33.504-26.592 0-52.096-11.456-73.92-33.28l-68.288-68.064c-5.632 3.040-11.232 5.824-16.64 8.64-7.776 3.904-15.136 7.552-21.408 11.456-63.968 40.64-122.112 93.568-177.856 162.080-27.008 34.144-45.184 62.88-58.368 92.064 17.728 16.224 34.144 33.056 50.144 49.28 6.048 6.048 12.096 12.32 18.144 18.368 45.376 45.376 45.376 104.16 0 149.568l-59.008 59.008c-6.688 6.688-13.6 13.6-20.096 20.544-12.96 13.408-26.592 27.232-40.64 40.192-20.96 20.736-46.048 31.776-72.416 31.776s-51.872-11.008-73.472-31.776c-0.224-0.224-0.224-0.224-0.448-0.448l-73.472-74.144c-27.68-27.68-43.456-61.376-46.912-100.512-5.184-63.104 13.408-121.888 27.68-160.352 35.008-94.432 87.328-181.984 165.344-275.776 94.656-113.024 208.544-202.304 338.656-265.184 49.696-23.552 116.064-51.424 190.176-56.192 4.544-0.224 9.28-0.448 13.6-0.448 49.92 0 91.84 17.952 124.704 53.6 0.224 0.448 0.64 0.64 0.864 1.088 11.232 13.6 24.192 25.92 37.824 39.104 9.28 8.864 18.816 18.144 28.096 27.872 21.408 22.272 32.64 48.192 32.64 74.784 0 26.784-11.456 52.512-33.28 74.144l-118.656 119.072zM886.656 98.080c-0.224 0-0.224-0.224 0 0-8.416-9.088-17.088-17.28-26.368-26.368-14.048-13.408-28.32-27.456-41.696-43.232-21.824-23.328-47.552-34.368-81.248-34.368-3.232 0-6.688 0-9.952 0.224-64.192 4.096-123.84 29.184-168.576 50.56-122.336 59.232-229.728 143.296-319.008 249.824-73.696 88.832-122.976 170.944-155.616 259.136-20.096 53.824-27.456 95.744-24.192 135.296 2.176 25.28 11.872 46.24 29.824 64.192l73.696 73.696c10.592 9.952 21.824 15.36 32.864 15.36 13.6 0 24.64-8.224 31.552-15.136 0.224-0.224 0.416-0.416 0.64-0.64 13.184-12.32 25.728-25.056 38.912-38.688 6.688-6.912 13.6-13.824 20.544-20.96l59.008-59.008c22.912-22.912 22.912-44.096 0-67.008-6.272-6.272-12.32-12.544-18.592-18.592-18.144-18.592-35.456-35.872-54.24-52.736-0.448-0.448-0.864-0.64-1.088-1.088-18.592-18.592-15.136-36.736-11.232-49.056 0.224-0.64 0.448-1.312 0.64-1.952 15.36-37.184 36.96-72.192 69.792-113.888l0.224-0.224c59.648-73.472 122.528-130.752 191.904-174.624 8.864-5.632 17.952-10.144 26.592-14.496 7.776-3.904 15.136-7.552 21.408-11.456 0.864-0.448 1.728-1.088 2.592-1.504 7.36-3.68 14.272-5.408 21.408-5.408 17.952 0 29.184 11.232 32.864 14.912l73.92 73.92c7.36 7.36 19.008 16.224 32.64 16.224 13.408 0 24.416-8.416 31.136-15.776 0.224-0.224 0.224-0.224 0.448-0.448l119.072-119.072c22.272-22.048 22.272-44.736 0.224-67.648zM553.408 716.416c56.64-9.504 108.064-36.32 149.12-77.376s67.648-92.512 77.376-149.12c2.368-14.272 14.688-24.192 28.736-24.192 1.728 0 3.232 0.224 4.96 0.448 16 2.592 26.592 17.728 24 33.728-11.68 68.512-44.096 130.976-93.568 180.448s-111.936 81.92-180.448 93.568c-16 2.592-30.912-8-33.728-23.776s7.552-31.136 23.552-33.728zM1022.816 508.288c-19.232 112.8-72.416 215.488-154.080 297.184s-184.352 134.848-297.184 154.080c-15.776 2.816-30.688-8-33.504-23.776-2.592-16 8-30.912 24-33.728 100.704-17.088 192.576-64.832 265.6-137.664 73.056-73.056 120.608-164.896 137.664-265.6 2.368-14.272 14.688-24.192 28.736-24.192 1.728 0 3.232 0.224 4.96 0.448 15.776 2.368 26.592 17.504 23.776 33.28z" />
<glyph unicode="&#xe91d;" glyph-name="pin" d="M512 960c-198.504 0-360-161.496-360-360 0-67.068 18.578-132.52 53.738-189.305l285.77-460.513c5.474-8.823 15.118-14.182 25.49-14.182 0.080 0 0.158 0 0.238 0 10.462 0.080 20.126 5.609 25.5 14.586l278.484 464.974c33.223 55.584 50.779 119.362 50.779 184.44 0 198.504-161.496 360-359.999 360zM769.729 446.364l-253.186-422.738-259.81 418.682c-29.266 47.264-45.134 101.792-45.134 157.692 0 165.42 134.98 300.4 300.4 300.4 165.422 0 300.203-134.98 300.203-300.4 0-54.242-14.825-107.376-42.473-153.636zM512 780c-99.252 0-180-80.748-180-180 0-98.618 79.434-180 180-180 101.808 0 180.002 82.466 180.002 180 0 99.252-80.748 180-180.002 180zM512 479.6c-66.514 0-120.4 54.066-120.4 120.4 0 66.167 54.232 120.4 120.4 120.4s120.201-54.232 120.201-120.4c0-65.366-52.634-120.4-120.201-120.4z" />
<glyph unicode="&#xe91e;" glyph-name="play-button" d="M502.848 950.848c-277.28 0-502.848-225.6-502.848-502.848s225.6-502.848 502.848-502.848c277.28 0 502.848 225.6 502.848 502.848s-225.6 502.848-502.848 502.848zM377.152 196.576v502.848l377.152-251.424-377.152-251.424z" />
<glyph unicode="&#xe91f;" glyph-name="plus" d="M312.001 448c0-22.092 17.908-40 39.997-40h120.001v-120.001c0-22.089 17.908-39.997 40-39.997s40 17.908 40 39.997v120.001h120.001c22.089 0 39.997 17.908 39.997 40s-17.908 40-39.997 40h-120.001v120.001c0 22.089-17.908 39.997-40 39.997s-40-17.908-40-39.997v-120.001h-120.001c-22.089 0-39.997-17.908-39.997-40zM320.813 836.401l51.738 21.432c20.407 8.456 30.103 31.854 21.644 52.264-8.455 20.41-31.852 30.108-52.262 21.646l-51.739-21.432c-20.408-8.456-30.102-31.854-21.646-52.264 8.428-20.342 31.787-30.122 52.264-21.646zM512 960c-22.092 0-40-17.908-40-40s17.908-40 40-40c238.756 0 431.999-193.216 431.999-432 0-238.756-193.214-431.999-431.999-431.999-238.756 0-432 193.214-432 431.999 0 22.092-17.908 40-40 40s-40-17.908-40-40c0-282.966 228.994-512 512-512 282.966 0 512 228.993 512 512 0 282.966-228.993 512-512 512zM186.733 733.67l39.598 39.598c15.622 15.622 15.622 40.95 0 56.57s-40.95 15.622-56.57 0l-39.598-39.598c-15.622-15.622-15.622-40.95 0-56.57 15.618-15.618 40.948-15.622 56.57 0zM49.906 565.801c20.454-8.47 43.828 1.284 52.264 21.647l21.432 51.738c8.456 20.41-1.238 43.809-21.646 52.265-20.414 8.454-43.808-1.238-52.264-21.646l-21.432-51.737c-8.456-20.413 1.238-43.81 21.646-52.268z" />
<glyph unicode="&#xe920;" glyph-name="prev" d="M984 488h-847.104l140.32 139.648c15.648 15.584 15.712 40.896 0.128 56.576s-40.928 15.712-56.576 0.128l-209.024-208c0 0-0.032-0.032-0.032-0.032-15.616-15.584-15.68-40.992 0-56.64 0 0 0.032-0.032 0.032-0.032l209.024-208c15.648-15.584 40.992-15.52 56.576 0.128s15.52 40.992-0.128 56.576l-140.32 139.648h847.104c22.080 0 40 17.92 40 40s-17.92 40-40 40z" />
<glyph unicode="&#xe921;" glyph-name="prev-2" d="M413.376 447.776l383.072 383.104c10.56 10.528 16.352 24.576 16.352 39.584s-5.792 29.088-16.352 39.616l-33.568 33.536c-10.528 10.56-24.608 16.352-39.616 16.352s-29.056-5.824-39.616-16.352l-456.128-456.096c-10.592-10.56-16.384-24.704-16.32-39.712-0.032-15.104 5.728-29.184 16.32-39.776l455.68-455.648c10.528-10.56 24.608-16.384 39.616-16.384s29.056 5.824 39.616 16.384l33.568 33.536c21.824 21.824 21.824 57.376 0 79.2l-382.656 382.656z" />
<glyph unicode="&#xe922;" glyph-name="quote" d="M240 806c-132.336 0-240-107.664-240-240 0-63.283 24.416-122.994 68.748-168.138 42.916-43.701 99.808-69.003 160.75-71.624 0.288-3.806 0.502-9.055 0.502-16.238 0-29.424-22.376-119.331-36.482-169.089l-14.434-50.91h175.167l11.735 18.906c4.655 7.499 114.012 186.798 114.012 457.093 0 132.336-107.663 240-239.999 240zM308.379 169.999h-24.261c11.493 45.17 25.882 108.085 25.882 140.001 0 25.328-1.881 45.676-11.062 62.66-8.178 15.129-25.282 33.145-60.366 33.339l-1.746 0.044c-86.474 1.676-156.826 73.433-156.826 159.958 0 88.225 71.776 160 160 160s160.001-71.775 160.001-160c0-198.641-65.674-345.667-91.622-396.001zM784.001 806c-132.336 0-239.999-107.664-239.999-240 0-63.283 24.415-122.994 68.746-168.138 42.917-43.701 99.808-69.003 160.75-71.624 0.29-3.806 0.503-9.055 0.503-16.238 0-29.424-22.376-119.331-36.484-169.089l-14.433-50.91h175.168l11.732 18.906c4.655 7.499 114.015 186.798 114.015 457.093 0 132.336-107.663 240-239.999 240zM852.378 169.999h-24.26c11.495 45.17 25.884 108.085 25.884 140.001 0 25.328-1.881 45.676-11.062 62.66-8.18 15.129-25.284 33.145-60.366 33.339l-1.747 0.044c-86.475 1.676-156.827 73.433-156.827 159.958 0 88.225 71.777 160 160.001 160 88.222 0 159.999-71.775 159.999-160 0-198.641-65.671-345.667-91.622-396.001z" />
<glyph unicode="&#xe923;" glyph-name="reply" d="M992 21.344c-11.52 0-22.368 6.24-28.064 16.672l-0.896 1.632c-95.712 172.832-278.048 280.352-475.872 280.352h-60.512v-181.344c0-12.832-7.712-24.448-19.552-29.472-11.744-4.96-25.568-2.464-34.72 6.528l-362.656 352c-6.24 6.016-9.728 14.304-9.728 22.944s3.488 16.928 9.728 22.944l362.656 352c9.216 8.96 23.008 11.52 34.72 6.528 11.808-5.024 19.552-16.64 19.552-29.472v-181.408c330.368-5.728 597.344-276.224 597.344-607.904 0-14.624-9.888-27.392-24.064-31.008-2.656-0.672-5.28-0.992-7.936-0.992zM394.656 384h92.512c178.176 0 345.12-78.048 459.264-209.536-55.2 241.888-272.096 422.88-530.432 422.88h-21.344c-17.664 0-32 14.336-32 32v137.696l-284.704-276.352 284.704-276.352v137.696c0 17.664 14.336 32 32 32z" />
<glyph unicode="&#xe924;" glyph-name="search" d="M1015.040-11.776l-248.832 248.832c66.752 76.736 107.168 176.864 107.168 286.304 0 240.896-195.936 436.608-436.608 436.608-240.896 0-436.608-195.936-436.608-436.608s195.936-436.608 436.608-436.608c109.44 0 209.568 40.416 286.304 107.168l248.832-248.832c5.888-5.888 13.856-9.088 21.568-9.088s15.68 2.944 21.568 9.088c11.808 11.808 11.808 31.328 0 43.136zM61.184 523.392c0 207.072 168.48 375.328 375.328 375.328 207.072 0 375.328-168.48 375.328-375.328s-168.256-375.552-375.328-375.552c-206.848 0-375.328 168.48-375.328 375.552z" />
<glyph unicode="&#xe925;" glyph-name="share" d="M811.36 302.144c-58.912 0-111.424-28.064-145.024-71.456l-281.312 157.12c6.592 18.912 10.208 39.328 10.208 60.384 0 21.248-3.616 41.472-10.432 60.608l281.088 156.928c33.376-43.584 86.112-71.872 145.216-71.872 100.768 0 183.072 82.080 183.072 183.072s-82.080 183.072-183.072 183.072-183.072-82.080-183.072-183.072c0-21.248 3.616-41.664 10.432-60.608l-280.864-156.928c-33.376 43.808-86.112 71.872-145.216 71.872-100.8 0-183.072-82.080-183.072-183.072s82.272-183.072 183.296-183.072c59.104 0 111.84 28.288 145.44 72.096l281.088-157.12c-6.816-19.136-10.624-39.776-10.624-61.024 0-100.768 82.080-183.072 183.072-183.072s183.072 82.080 183.072 183.072-82.272 183.072-183.296 183.072zM811.36 902.368c69.312 0 125.664-56.352 125.664-125.664s-56.352-125.664-125.664-125.664-125.664 56.352-125.664 125.664 56.544 125.664 125.664 125.664zM212.64 322.56c-69.312 0-125.664 56.352-125.664 125.664s56.352 125.664 125.664 125.664 125.664-56.352 125.664-125.664-56.544-125.664-125.664-125.664zM811.36-6.368c-69.312 0-125.664 56.352-125.664 125.664s56.352 125.664 125.664 125.664 125.664-56.352 125.664-125.664c0-69.312-56.352-125.664-125.664-125.664z" />
<glyph unicode="&#xe926;" glyph-name="shopping-bag" d="M904 720h-121.888c-15.872 134.944-130.944 240-270.112 240s-254.208-105.056-270.112-240h-121.888c-22.080 0-40-17.92-40-40v-704c0-22.080 17.92-40 40-40h784c22.080 0 40 17.92 40 40v704c0 22.080-17.92 40-40 40zM512 880c94.976 0 174.048-69.312 189.312-160h-378.624c15.264 90.688 94.336 160 189.312 160zM864 16h-704v624h80v-120c0-22.080 17.92-40 40-40s40 17.92 40 40v120h384v-120c0-22.080 17.92-40 40-40s40 17.92 40 40v120h80v-624z" />
<glyph unicode="&#xe927;" glyph-name="shopping-cart" d="M853.472 295.040h-535.712c-20.576 0-39.968 5.472-56.352 14.816v-71.392c0-30.24 25.184-55.008 56.352-55.008h509.536c59.936 0 108.896-47.776 108.896-106.272s-48.96-106.272-108.896-106.272c-59.936 0-108.896 47.584-108.896 106.272 0 19.488 5.408 37.824 14.976 53.632h-242.592c9.6-15.616 14.976-34.112 14.976-53.632 0-58.496-48.96-106.272-108.896-106.272s-108.896 47.584-108.896 106.272c0 19.904 5.792 38.624 15.584 54.592-54.144 6.816-96.128 52.064-96.128 106.688v576.864l-130.688 53.824c-13.792 5.664-20.192 21.056-14.4 34.528s21.568 19.712 35.36 14.048l147.264-60.448c0.416-0.192 0.864-0.384 1.312-0.576s0.896-0.384 1.312-0.576c0.096-0.096 0.192-0.16 0.288-0.192s0.192-0.096 0.288-0.192c0.416-0.192 0.992-0.576 1.6-0.96v0c0.192-0.192 0.416-0.352 0.608-0.48v0c0.192-0.16 0.416-0.288 0.608-0.48 0.096-0.096 0.256-0.192 0.416-0.288s0.288-0.192 0.416-0.288c0.608-0.384 0.992-0.768 1.408-1.184l0.608-0.576 1.792-1.76c0.096-0.192 0.256-0.384 0.416-0.576s0.288-0.384 0.384-0.576 0.192-0.352 0.288-0.48v0c0.096-0.16 0.192-0.288 0.288-0.48s0.192-0.352 0.288-0.48v0c0.096-0.16 0.192-0.288 0.288-0.48 0.384-0.384 0.608-0.768 0.8-1.184 0.096-0.096 0.16-0.256 0.192-0.384s0.096-0.288 0.192-0.384c0.384-0.576 0.608-0.96 0.8-1.568 0-0.096 0.064-0.256 0.096-0.384s0.096-0.288 0.096-0.384l0.608-1.76c0-0.192 0.064-0.352 0.096-0.48s0.096-0.288 0.096-0.48c0.096-0.288 0.16-0.544 0.192-0.768s0.096-0.48 0.192-0.768c0-0.288 0.064-0.576 0.096-0.864s0.096-0.576 0.096-0.864c0.192-0.384 0.192-0.576 0.192-0.768 0.192-0.768 0.192-1.76 0.192-2.72v-92.448l679.008-91.456c0.224 0 0.384-0.064 0.544-0.128 0.096-0.032 0.192-0.064 0.256-0.064 0.608 0 0.992 0 1.6-0.192 0.096 0 0.192-0.032 0.352-0.064 0.192-0.064 0.416-0.128 0.672-0.128 0.384 0 0.992-0.192 1.408-0.384 0.192-0.096 0.384-0.16 0.608-0.192s0.384-0.096 0.608-0.192l3.584-1.76c0.384-0.384 0.8-0.576 1.184-0.768 0.096-0.064 0.192-0.096 0.256-0.16s0.16-0.096 0.224-0.16v0c0.16-0.096 0.288-0.192 0.512-0.288s0.384-0.256 0.608-0.384c0.192-0.16 0.384-0.288 0.608-0.384s0.352-0.256 0.512-0.384c0.16-0.16 0.288-0.288 0.512-0.384l0.992-0.96 0.064-0.064c0.032-0.032 0.064-0.032 0.096-0.064s0.064-0.032 0.096-0.064c0.192-0.16 0.448-0.32 0.576-0.608 0.096-0.192 0.256-0.352 0.384-0.48s0.288-0.288 0.384-0.48c0.096-0.192 0.256-0.352 0.384-0.48s0.288-0.288 0.384-0.48c0.384-0.384 0.608-0.576 0.8-0.96 0.096-0.192 0.256-0.384 0.384-0.576s0.288-0.384 0.384-0.576c0.096-0.192 0.192-0.352 0.288-0.48 0.064-0.064 0.096-0.128 0.16-0.224s0.096-0.16 0.16-0.256l0.608-1.184c0.192-0.192 0.384-0.576 0.608-0.96 0.192-0.576 0.384-0.96 0.608-1.376v0c0.096-0.192 0.16-0.384 0.192-0.576 0.032-0.128 0.064-0.224 0.096-0.352 0.032-0.064 0.064-0.16 0.096-0.224 0.096-0.192 0.16-0.384 0.192-0.576v0c0.064-0.192 0.096-0.384 0.192-0.576 0.032-0.096 0.064-0.224 0.096-0.32 0.032-0.128 0.064-0.256 0.096-0.352v0 0c0.064-0.256 0.096-0.48 0.224-0.704 0-0.192 0.064-0.384 0.096-0.576v0c0.064-0.192 0.096-0.384 0.096-0.576s0.064-0.448 0.096-0.672c0.064-0.256 0.096-0.48 0.096-0.672 0.192-0.384 0.192-0.768 0.192-1.184v-222.336c0-59.296-49.568-107.648-110.304-107.648zM397.088 23.776c30.176 0 54.944 24 54.944 53.632s-24.768 53.632-54.944 53.632c-30.176 0-54.944-24.192-54.944-53.632s24.768-53.632 54.944-53.632zM882.432 77.408c0 29.632-24.768 53.632-54.944 53.632s-54.944-24.192-54.944-53.632 24.768-53.632 54.944-53.632c30.176 0 54.944 24 54.944 53.632zM317.728 347.712h535.712c30.976 0 56.352 24.576 56.352 55.2v197.184l-648.416 87.168v-284.544c0-30.24 25.184-55.008 56.352-55.008z" />
<glyph unicode="&#xe928;" glyph-name="speaker" d="M596.448 843.552c-70.72 0-139.968-18.784-200.576-54.464-54.048-31.872-99.872-76.224-133.44-128.992h-151.168c-61.44 0-111.264-49.824-111.264-111.264v-201.632c0-61.44 49.824-111.264 111.264-111.264h151.168c33.568-52.768 79.392-97.12 133.44-128.992 60.608-35.68 129.856-54.464 200.576-54.464 15.84 0 28.512 12.672 28.512 28.512v734.112c0 15.616-12.672 28.512-28.512 28.512zM249.984 292.928h-138.72c-29.984 0-54.272 24.288-54.272 54.272v201.632c0 29.984 24.288 54.272 54.272 54.272h138.72v-310.144zM567.936 110.496c-107.040 9.088-204.576 69.248-260.96 161.728v351.328c56.384 92.48 153.92 152.64 260.96 161.728v-674.784zM736.64 668.736c-12.864 9.088-30.624 5.92-39.68-7.168-9.088-12.864-5.92-30.624 7.168-39.68 56.992-39.68 91.008-104.928 91.008-174.176s-33.984-134.496-91.008-174.176c-12.864-9.088-16.032-26.816-7.168-39.68 5.504-8.032 14.368-12.256 23.424-12.256 5.696 0 11.392 1.696 16.256 5.056 72.192 50.464 115.488 133.024 115.488 220.832s-43.296 171.008-115.488 221.28zM846.848 786.752c-12.864 9.088-30.624 5.92-39.68-7.168-9.088-12.864-5.92-30.624 7.168-39.68 95.648-66.72 152.64-175.872 152.64-292s-56.992-225.504-152.64-292c-12.864-9.088-16.032-26.816-7.168-39.68 5.504-8.032 14.368-12.256 23.424-12.256 5.696 0 11.392 1.696 16.256 5.056 110.848 77.28 177.152 203.968 177.152 338.88s-66.080 261.6-177.152 338.88z" />
<glyph unicode="&#xe929;" glyph-name="star" d="M542.476 898.662l120.832-285.988 309.346-26.575c21.455-1.853 30.184-28.623 13.897-42.715l-234.642-203.288 70.315-302.421c4.876-21.016-17.896-37.547-36.328-26.38l-265.85 160.329-265.852-160.329c-18.481-11.118-41.204 5.413-36.328 26.38l70.315 302.421-234.691 203.337c-16.287 14.092-7.607 40.862 13.897 42.715l309.346 26.575 120.834 285.94c8.387 19.895 36.523 19.895 44.91 0z" />
<glyph unicode="&#xe92a;" glyph-name="tag" d="M1005.408 508.128l-175.264 239.072c-23.104 31.488-69.888 55.2-108.736 55.2h-639.136c-45.344 0-82.272-36.928-82.272-82.272v-544.256c0-45.344 36.928-82.272 82.272-82.272h639.136c39.040 0 85.856 23.712 108.736 55.2l175.264 239.072c24.768 33.6 24.768 86.464 0 120.288zM959.68 421.024l-175.264-239.072c-12.16-16.8-42.4-31.904-63.168-31.904h-638.944c-14.048 0-25.6 11.552-25.6 25.6v544.48c0 14.048 11.552 25.6 25.6 25.6h639.136c20.768 0 50.784-15.328 63.168-31.904l175.264-239.072c10.080-14.048 10.080-39.68-0.224-53.728z" />
<glyph unicode="&#xe92b;" glyph-name="prev-3" d="M521.941 126.059c-18.745-18.745-49.137-18.745-67.883 0l-288 288c-18.745 18.745-18.745 49.137 0 67.883l288 288c18.745 18.745 49.137 18.745 67.883 0s18.745-49.137 0-67.883l-254.059-254.059 254.059-254.059c18.745-18.745 18.745-49.137 0-67.883zM872.004 448c0-26.51-21.495-48-48.004-48h-584c-26.51 0-48 21.49-48 48s21.49 48 48 48h584c26.51 0 48.004-21.49 48.004-48z" />
<glyph unicode="&#xe92c;" glyph-name="next-3" d="M502.059 769.941c18.745 18.745 49.137 18.745 67.883 0l288-288c18.745-18.745 18.745-49.137 0-67.883l-288-288c-18.745-18.745-49.137-18.745-67.883 0s-18.745 49.137 0 67.883l254.059 254.059-254.059 254.059c-18.745 18.745-18.745 49.137 0 67.883zM151.996 448c0 26.51 21.495 48 48.004 48h584c26.51 0 48-21.49 48-48s-21.49-48-48-48h-584c-26.51 0-48.004 21.49-48.004 48z" />
<glyph unicode="&#xe92d;" glyph-name="return-up-back" d="M246.627 662.627c12.497-12.497 12.497-32.758 0-45.255l-105.373-105.373 105.373-105.374c12.497-12.493 12.497-32.758 0-45.251-12.497-12.498-32.758-12.498-45.255 0l-128 127.998c-12.497 12.497-12.497 32.758 0 45.255l128 128c12.497 12.497 32.758 12.497 45.255 0zM96 512c0 17.673 14.327 32 32 32h588c135.982 0 244-113.788 244-248.001v-39.999c0-17.671-14.326-32.002-32.002-32.002-17.671 0-31.998 14.331-31.998 32.002v39.999c0 100.469-80.945 184.001-180 184.001h-588c-17.673 0-32 14.327-32 32z" />
</font>
</defs>
</svg>
