<svg xmlns="http://www.w3.org/2000/svg" viewBox="0 0 24 26"><defs><style>.a{fill:#fff;}</style></defs><title>filter</title><path class="a" d="M1.20465,2.88889l8.82748,11.85185v8.66667a.82954.82954,0,0,0,.32694.62963l4.46823,2.85185A.72177.72177,0,0,0,15.22689,27a.69117.69117,0,0,0,.36327-.11111.76661.76661,0,0,0,.36327-.62963V14.74074L24.78091,2.88889l.03633-.037a1.22542,1.22542,0,0,0,.03633-1.22222A1.23829,1.23829,0,0,0,23.8364,1H2.14915A1.08331,1.08331,0,0,0,1.132,1.62963a1.31917,1.31917,0,0,0,.03633,1.22222Zm22.0142-.40741L14.64566,14.07407a.65481.65481,0,0,0-.14531.44444V24.92593L11.48521,23V14.51852a.6548.6548,0,0,0-.14531-.44444L2.73039,2.48148Z" transform="translate(-1 -1)"/></svg>