<?xml version="1.0" encoding="utf-8"?>
<!-- Generator: Adobe Illustrator 24.0.0, SVG Export Plug-In . SVG Version: 6.00 Build 0)  -->
<svg version="1.1" id="Layer_1" xmlns="http://www.w3.org/2000/svg" xmlns:xlink="http://www.w3.org/1999/xlink" x="0px" y="0px"
	 viewBox="0 0 240 100.2" style="enable-background:new 0 0 240 100.2;" xml:space="preserve">
<style type="text/css">
	.st0{fill:#FFFFFF;}
	.st1{fill:#009EA2;}
	.st2{fill:#E6A912;}
	.st3{fill:#B5DAA0;}
	.st4{fill:#40AD49;}
	.st5{fill:#E88420;}
	.st6{fill:#EB3D2F;}
	.st7{fill:#D2232A;}
	.st8{fill:#FFF200;}
</style>
<g>
	<path class="st0" d="M231.5,99c-4,0-6.5-2.7-6.5-6.1c0-3.4,2.5-6.1,6.5-6.1c2.8,0,5.5,1.1,7.2,3.3v5.4C237,97.8,234.3,99,231.5,99
		 M240,99.6V83.9c0-4.4-3.2-6.6-7.5-6.6c-3.7,0-5.9,1.3-8,3.8l1,0.9c2-2.4,4.2-3.4,7-3.4c3.3,0,6.1,1.9,6.1,5.4v4.9
		c-2-2.2-4.5-3.2-7.5-3.2c-3.9,0-7.6,2.6-7.6,7.3c0,4.7,3.8,7.3,7.6,7.3c3.1,0,5.5-1,7.5-3.2v2.7H240z M213.3,100.2
		c1.6,0,2.5-0.5,3.4-1.4l-0.8-1c-0.5,0.6-1.5,1.2-2.6,1.2c-1.6,0-2.4-1.3-2.4-3.2V79h4.4v-1.2H211v-6h-1.4v6H206V79h3.6v16.8
		C209.6,98.5,210.8,100.2,213.3,100.2 M189.4,99c-4,0-6.5-2.7-6.5-6.1c0-3.4,2.5-6.1,6.5-6.1c2.8,0,5.5,1.1,7.2,3.3v5.4
		C194.9,97.8,192.3,99,189.4,99 M198,99.6V83.9c0-4.4-3.2-6.6-7.5-6.6c-3.7,0-5.9,1.3-8,3.8l1,0.9c2-2.4,4.2-3.4,7-3.4
		c3.3,0,6.1,1.9,6.1,5.4v4.9c-2-2.2-4.5-3.2-7.5-3.2c-3.9,0-7.6,2.6-7.6,7.3c0,4.7,3.8,7.3,7.6,7.3c3.1,0,5.5-1,7.5-3.2v2.7H198z
		 M170.8,87.9h-17.4c0.1-4.3,3.1-9.4,8.7-9.4C168.1,78.5,170.8,83.7,170.8,87.9 M162.6,100.2c3.7,0,6.2-1.4,8.4-3.7l-0.8-0.9
		c-2,2.2-4.5,3.3-7.6,3.3c-5.6,0-9-4.5-9.2-9.8h18.8v-0.5c0-6.1-3.4-11.4-10.1-11.4c-5.9,0-10.3,5.1-10.3,11.4
		C151.9,95.3,156.3,100.2,162.6,100.2 M137.1,99.6V83.3c1-2,4.1-4.3,6.4-4.3c0.4,0,0.7,0,1.1,0v-1.6c-3.2,0-5.6,1.8-7.5,4.4v-4h-1.4
		v21.8H137.1z M119,100.2c3.6,0,5.6-1.4,7.5-3.7l-1-0.9c-1.8,2.4-3.8,3.3-6.4,3.3c-5.6,0-8.9-4.6-8.9-10.3s3.3-10.2,8.9-10.2
		c2.5,0,4.6,0.9,6.4,3.3l1-0.8c-1.9-2.3-3.9-3.7-7.5-3.7c-6.3,0-10.3,5.2-10.3,11.4C108.7,95,112.6,100.2,119,100.2"/>
	<path class="st0" d="M86.6,14.7h-3.1v50.4h3.1V14.7z M16,37.5l24.5-22.8h-2.7v0.1h-1.9L3.1,45.4V14.8H0v50.3h3.1V49.4l10.4-9.6
		l22.1,25.4h4.5L16,37.5z M69.7,17.4c0.9,0,1.6,0,2.5,0.1v-3.8c-7.3,0-12.8,4.2-17.3,10.1v-9.2h-3.1v50.4h3.1V27.3
		C57.2,22.6,64.4,17.4,69.7,17.4 M88.1,3c0-1.7-1.4-3-3-3c-1.6,0-3,1.4-3,3c0,1.7,1.5,3,3,3C86.7,6.1,88.1,4.7,88.1,3 M187.7,23.2
		l2.3-2.1c-3.2-4.2-8.7-7.6-17.3-7.6c-10.9,0-17.1,5.9-17.1,13.4c0,17.6,32.4,9.6,32.4,25c0,6.7-5.6,11.7-14.9,11.7
		c-7.4,0-12.8-3.3-16-7.5l-2.5,2.3c5,5.7,10.5,8,18.5,8c12.2,0,18.1-6.7,18.1-14.5c0-19.1-32.4-11-32.4-25c0-5.9,5.2-10.5,14-10.5
		C179.4,16.3,184.7,19,187.7,23.2"/>
	<polygon class="st0" points="197.1,15.1 221.6,37.9 197.4,65.5 201.9,65.5 224,40.2 234.4,49.8 234.4,65.5 237.6,65.5 237.6,14.8 
		234.4,14.8 234.4,45.8 201.6,15.1 	"/>
	<path class="st0" d="M111.5,37.5c2.9-0.2,5.2,1.1,7.4,2.6c3.5,2.3,7.3,3.7,11.5,3.7c2.9,0,5.4-0.9,7.8-2.5c1.7-1.1,3.4-2.1,5.2-2.9
		c1.2-0.5,2.6-0.3,3.7,0.7c1.6,1.4,1.6,3.8,0.1,5.6c-2.1,2.4-4.4,2.9-7.7,1.6c-1.6-0.6-3.1-1.4-4.8-1.8c-2.3-0.6-4.7-0.3-6.9,0.5
		c-3,1.1-6,2.2-9,3.3c-2.5,0.9-5.2,1.4-7.9,1.3c-2.5-0.1-4.6-1.1-5.7-3.5c-1.1-2.4-0.7-4.7,1-6.7C107.7,37.9,109.6,37.4,111.5,37.5"
		/>
	<path class="st0" d="M114.3,35.4c-3.8-0.2-6.9,1.2-9.9,3.3c-1.5,1.1-3.1,2.1-5.1,2.1c-1.5,0-2.7-0.5-3.4-1.9
		c-0.7-1.3-0.5-2.6,0.2-3.9c1.7-2.8,4.9-3.7,8.1-2.4c1.5,0.6,3,1.3,4.6,1.8c2.4,0.7,4.9,0.5,7.3-0.3c3.3-1.1,6.6-2.4,10-3.4
		c2.2-0.6,4.5-1,6.8-1.1c3.1-0.1,5.6,1.7,6.3,4.5c0.7,3.3-1.1,6.5-4.3,7.3c-2.5,0.6-4.8,0.2-7-1c-2.2-1.2-4.3-2.5-6.5-3.6
		C119.1,35.8,116.7,35.2,114.3,35.4"/>
	<path class="st0" d="M118.7,21.1c2.6,0,4.9,0.8,7.2,1.9c2.1,1,4.2,2.1,6.4,3.1c2.4,1.1,5,1.1,7.6,0.6c2.5-0.5,4.3,0.4,5.8,2.2
		c1,1.3,1.8,2.7,2.2,4.4c0.2,0.8,0.1,1.7-0.5,2.1c-0.6,0.3-1.7,0.4-2.1,0.1c-1.2-0.8-2.3-1.9-3.4-3c-1.3-1.2-2.4-2.7-3.8-3.8
		c-2.1-1.7-4.6-1.7-7.2-1.5c-4.4,0.3-8.5,2-12.7,3.3c-2.3,0.7-4.6,1-7,0.9c-1.8-0.1-3.2-0.9-3.4-2.4c-0.1-0.8,0.2-1.8,0.6-2.5
		C110.8,22.7,114.3,21.1,118.7,21.1"/>
	<path class="st0" d="M126.1,58.2c-3.4,0-6.3-1.2-9.2-2.7c-2.4-1.2-4.9-2.6-7.6-2.9c-1.7-0.2-3.5-0.1-5.2,0.1
		c-2.3,0.3-4.1-0.4-5.5-2.1c-1.2-1.4-2.3-3-2.4-4.9c-0.1-1.8,1-2.7,2.6-2c1.7,0.7,2.9,2.1,3.9,3.5c1.6,2.2,3.5,3.9,6.1,4.7
		c1.9,0.6,3.8,0.2,5.8,0c4.8-0.5,9.1-2.7,13.7-3.7c1.9-0.4,3.9-0.7,5.9-0.1c2.1,0.6,2.8,2,1.9,3.9c-1.4,3.2-4,5-7.3,5.8
		C128,58,127,58,126.1,58.2"/>
	<path class="st0" d="M136.3,25c-2.9-0.2-5.4-1.2-7.9-2.5c-2.5-1.4-5.1-2.5-7.9-3.2c-3.8-0.8-7.2,0.1-10.2,2.4
		c-1.7,1.3-3.3,2.9-4.9,4.3c-1.4,1.2-2.9,2.3-4.8,2.6c-0.5,0.1-1.2,0-1.5-0.4c-0.3-0.3-0.3-1.1-0.2-1.5c0.7-1.9,2.2-3.3,3.9-4.3
		c2.6-1.6,5.5-2.3,8.5-2.9c4.1-0.9,8.1-2.1,12.1-3.5c3.9-1.4,7.8-1.6,11.7,0.3c1.9,0.9,3.5,2.2,4.5,4c1.3,2.4,0,4.6-2.8,4.6
		C136.6,25,136.4,25,136.3,25"/>
	<path class="st0" d="M107.9,54.3c3-0.1,5.6,1,8.2,2.4c2.5,1.4,5,2.6,7.7,3.2c4.1,0.9,7.8-0.1,11-2.8c2-1.6,3.8-3.4,5.8-5
		c0.8-0.6,1.7-1,2.7-1.3c0.5-0.2,1.4-0.1,1.7,0.2c0.3,0.3,0.3,1.2,0.1,1.7c-0.6,2.2-2.5,3.3-4.3,4.4c-2.5,1.4-5.3,2.1-8.1,2.7
		c-4.2,0.9-8.2,2.2-12.3,3.5c-4.4,1.4-8.7,1.4-12.7-1.3c-1.5-1-2.9-2.2-3.5-4.1c-0.5-1.7,0.7-3.4,2.4-3.5
		C107.1,54.3,107.5,54.3,107.9,54.3"/>
	<path class="st0" d="M110.8,18.4c-0.1,0-0.3,0-0.4,0c-0.5-0.2-1-0.4-1.5-0.6c0.3-0.5,0.5-1.2,0.9-1.5c2.3-1.6,5-2.5,7.8-2.6
		c0.5,0,1,0.4,1.5,0.5c-0.3,0.5-0.4,1.1-0.8,1.4C116.1,17.3,113.6,18.2,110.8,18.4"/>
	<path class="st0" d="M127,65.5c-0.2,0-0.4,0.1-0.6,0c-0.4-0.1-1-0.3-1-0.5c-0.1-0.4,0.1-0.9,0.4-1.2c2-1.6,4.4-2.6,7-2.8
		c0.7-0.1,1.3-0.1,2,0c0.8,0.1,0.9,0.6,0.5,1.2c-0.3,0.3-0.7,0.6-1,0.9C132,64.6,129.6,65.3,127,65.5"/>
	<path class="st1" d="M111.5,37.5c2.9-0.2,5.2,1.1,7.4,2.6c3.5,2.3,7.3,3.7,11.5,3.7c2.9,0,5.4-0.9,7.8-2.5c1.7-1.1,3.4-2.1,5.2-2.9
		c1.2-0.5,2.6-0.3,3.7,0.7c1.6,1.4,1.6,3.8,0.1,5.6c-2.1,2.4-4.4,2.9-7.7,1.6c-1.6-0.6-3.1-1.4-4.8-1.8c-2.3-0.6-4.7-0.3-6.9,0.5
		c-3,1.1-6,2.2-9,3.3c-2.5,0.9-5.2,1.4-7.9,1.3c-2.5-0.1-4.6-1.1-5.7-3.5c-1.1-2.4-0.7-4.7,1-6.7C107.7,37.9,109.6,37.4,111.5,37.5"
		/>
	<path class="st2" d="M114.3,35.4c-3.8-0.2-6.9,1.2-9.9,3.3c-1.5,1.1-3.1,2.1-5.1,2.1c-1.5,0-2.7-0.5-3.4-1.9
		c-0.7-1.3-0.5-2.6,0.2-3.9c1.7-2.8,4.9-3.7,8.1-2.4c1.5,0.6,3,1.3,4.6,1.8c2.4,0.7,4.9,0.5,7.3-0.3c3.3-1.1,6.6-2.4,10-3.4
		c2.2-0.6,4.5-1,6.8-1.1c3.1-0.1,5.6,1.7,6.3,4.5c0.7,3.3-1.1,6.5-4.3,7.3c-2.5,0.6-4.8,0.2-7-1c-2.2-1.2-4.3-2.5-6.5-3.6
		C119.1,35.8,116.7,35.2,114.3,35.4"/>
	<path class="st3" d="M118.7,21.1c2.6,0,4.9,0.8,7.2,1.9c2.1,1,4.2,2.1,6.4,3.1c2.4,1.1,5,1.1,7.6,0.6c2.5-0.5,4.3,0.4,5.8,2.2
		c1,1.3,1.8,2.7,2.2,4.4c0.2,0.8,0.1,1.7-0.5,2.1c-0.6,0.3-1.7,0.4-2.1,0.1c-1.2-0.8-2.3-1.9-3.4-3c-1.3-1.2-2.4-2.7-3.8-3.8
		c-2.1-1.7-4.6-1.7-7.2-1.5c-4.4,0.3-8.5,2-12.7,3.3c-2.3,0.7-4.6,1-7,0.9c-1.8-0.1-3.2-0.9-3.4-2.4c-0.1-0.8,0.2-1.8,0.6-2.5
		C110.8,22.7,114.3,21.1,118.7,21.1"/>
	<path class="st4" d="M126.1,58.2c-3.4,0-6.3-1.2-9.2-2.7c-2.4-1.2-4.9-2.6-7.6-2.9c-1.7-0.2-3.5-0.1-5.2,0.1
		c-2.3,0.3-4.1-0.4-5.5-2.1c-1.2-1.4-2.3-3-2.4-4.9c-0.1-1.8,1-2.7,2.6-2c1.7,0.7,2.9,2.1,3.9,3.5c1.6,2.2,3.5,3.9,6.1,4.7
		c1.9,0.6,3.8,0.2,5.8,0c4.8-0.5,9.1-2.7,13.7-3.7c1.9-0.4,3.9-0.7,5.9-0.1c2.1,0.6,2.8,2,1.9,3.9c-1.4,3.2-4,5-7.3,5.8
		C128,58,127,58,126.1,58.2"/>
	<path class="st5" d="M136.3,25c-2.9-0.2-5.4-1.2-7.9-2.5c-2.5-1.4-5.1-2.5-7.9-3.2c-3.8-0.8-7.2,0.1-10.2,2.4
		c-1.7,1.3-3.3,2.9-4.9,4.3c-1.4,1.2-2.9,2.3-4.8,2.6c-0.5,0.1-1.2,0-1.5-0.4c-0.3-0.3-0.3-1.1-0.2-1.5c0.7-1.9,2.2-3.3,3.9-4.3
		c2.6-1.6,5.5-2.3,8.5-2.9c4.1-0.9,8.1-2.1,12.1-3.5c3.9-1.4,7.8-1.6,11.7,0.3c1.9,0.9,3.5,2.2,4.5,4c1.3,2.4,0,4.6-2.8,4.6
		C136.6,25,136.4,25,136.3,25"/>
	<path class="st6" d="M107.9,54.3c3-0.1,5.6,1,8.2,2.4c2.5,1.4,5,2.6,7.7,3.2c4.1,0.9,7.8-0.1,11-2.8c2-1.6,3.8-3.4,5.8-5
		c0.8-0.6,1.7-1,2.7-1.3c0.5-0.2,1.4-0.1,1.7,0.2c0.3,0.3,0.3,1.2,0.1,1.7c-0.6,2.2-2.5,3.3-4.3,4.4c-2.5,1.4-5.3,2.1-8.1,2.7
		c-4.2,0.9-8.2,2.2-12.3,3.5c-4.4,1.4-8.7,1.4-12.7-1.3c-1.5-1-2.9-2.2-3.5-4.1c-0.5-1.7,0.7-3.4,2.4-3.5
		C107.1,54.3,107.5,54.3,107.9,54.3"/>
	<path class="st7" d="M110.8,18.4c-0.1,0-0.3,0-0.4,0c-0.5-0.2-1-0.4-1.5-0.6c0.3-0.5,0.5-1.2,0.9-1.5c2.3-1.6,5-2.5,7.8-2.6
		c0.5,0,1,0.4,1.5,0.5c-0.3,0.5-0.4,1.1-0.8,1.4C116.1,17.3,113.6,18.2,110.8,18.4"/>
	<path class="st8" d="M127,65.5c-0.2,0-0.4,0.1-0.6,0c-0.4-0.1-1-0.3-1-0.5c-0.1-0.4,0.1-0.9,0.4-1.2c2-1.6,4.4-2.6,7-2.8
		c0.7-0.1,1.3-0.1,2,0c0.8,0.1,0.9,0.6,0.5,1.2c-0.3,0.3-0.7,0.6-1,0.9C132,64.6,129.6,65.3,127,65.5"/>
</g>
</svg>
