<svg width="319" height="56" viewBox="0 0 319 56" fill="none" xmlns="http://www.w3.org/2000/svg">
<g clip-path="url(#clip0)">
<path d="M314.421 26.7597C315.947 26.7597 317.474 26.7597 319 26.7597C315.947 25.2319 314.421 26.7597 311.368 26.7597C309.842 26.7597 309.842 25.2319 306.789 25.2319C305.263 25.2319 305.263 25.2319 303.737 25.2319C303.737 25.2319 303.737 25.2319 302.211 25.2319C302.211 25.2319 302.211 25.2319 300.684 25.2319C299.158 25.2319 299.158 25.2319 297.632 23.7041H299.158C300.684 23.7041 300.684 23.7041 302.211 23.7041C303.737 23.7041 303.737 23.7041 303.737 22.1764C305.263 22.1764 306.789 22.1764 306.789 20.6486C306.789 20.6486 306.789 20.6486 306.789 19.1208C308.316 19.1208 308.316 19.1208 309.842 19.1208L311.368 17.593C312.895 17.593 312.895 17.593 314.421 16.0653C314.421 16.0653 314.421 14.5375 315.947 14.5375H317.474C317.474 14.5375 317.474 14.5375 315.947 14.5375C314.421 14.5375 314.421 14.5375 312.895 14.5375C312.895 14.5375 312.895 14.5375 312.895 13.0097H314.421H312.895C312.895 13.0097 311.368 13.0097 311.368 11.4819C311.368 11.4819 309.842 11.4819 309.842 9.95414C311.368 9.95414 311.368 9.95414 311.368 9.95414C311.368 9.95414 309.842 9.95414 309.842 8.42636C309.842 8.42636 309.842 8.42636 308.316 8.42636C306.789 8.42636 306.789 8.42636 305.263 8.42636H303.737H305.263C306.789 8.42636 305.263 8.42636 305.263 6.89859C306.789 6.89859 306.789 6.89859 308.316 6.89859C309.842 6.89859 311.368 6.89859 311.368 6.89859C309.842 6.89859 308.316 6.89859 306.789 6.89859C306.789 6.89859 308.316 6.89859 308.316 5.37081C306.789 5.37081 305.263 5.37081 303.737 5.37081C302.211 5.37081 300.684 5.37081 299.158 5.37081C297.632 5.37081 296.105 5.37081 296.105 5.37081C296.105 5.37081 293.053 5.37081 294.579 3.84303C291.526 2.31525 288.474 2.31525 285.421 2.31525H283.895C280.842 2.31525 277.789 0.787476 274.737 2.31525C273.211 2.31525 271.684 2.31525 270.158 2.31525C268.632 2.31525 268.632 2.31525 267.105 2.31525C265.579 2.31525 265.579 2.31525 264.053 2.31525C264.053 2.31525 264.053 2.31525 262.526 2.31525C259.474 2.31525 257.947 2.31525 254.895 2.31525C253.368 2.31525 251.842 2.31525 251.842 2.31525C250.316 2.31525 248.789 2.31525 247.263 2.31525C245.737 2.31525 244.211 2.31525 242.684 2.31525C238.105 2.31525 235.053 2.31525 230.474 2.31525C228.947 2.31525 227.421 2.31525 227.421 2.31525C227.421 2.31525 227.421 2.31525 225.895 2.31525C224.368 2.31525 224.368 2.31525 222.842 2.31525C218.263 2.31525 213.684 2.31525 207.579 2.31525C212.158 2.31525 216.737 2.31525 222.842 2.31525C215.211 2.31525 209.105 2.31525 201.474 2.31525H199.947C196.895 2.31525 193.842 2.31525 192.316 2.31525C190.789 2.31525 189.263 2.31525 189.263 2.31525C183.158 2.31525 177.053 2.31525 170.947 2.31525C169.421 2.31525 167.895 2.31525 164.842 2.31525H163.316H164.842C163.316 2.31525 163.316 2.31525 161.789 2.31525C160.263 2.31525 158.737 2.31525 158.737 2.31525H157.211C154.158 2.31525 151.105 2.31525 149.579 2.31525C143.474 2.31525 137.368 2.31525 132.789 2.31525H131.263C126.684 2.31525 120.579 2.31525 116 2.31525C112.947 2.31525 109.895 2.31525 105.316 2.31525H103.789C102.263 2.31525 100.737 2.31525 99.2105 2.31525C97.6842 2.31525 94.6316 2.31525 93.1053 2.31525C91.5789 2.31525 91.5789 2.31525 90.0526 2.31525C88.5263 2.31525 87 2.31525 87 2.31525H85.4737C83.9474 2.31525 82.4211 2.31525 80.8947 2.31525C79.3684 2.31525 76.3158 2.31525 74.7895 2.31525C73.2632 2.31525 71.7368 2.31525 70.2105 2.31525C68.6842 2.31525 67.1579 2.31525 65.6316 2.31525H64.1053C61.0526 0.787476 58 0.787476 56.4737 0.787476C54.9474 0.787476 51.8947 0.787476 50.3684 0.787476H48.8421C47.3158 0.787476 47.3158 2.31525 47.3158 2.31525C45.7895 3.84303 45.7895 5.37081 45.7895 5.37081L47.3158 6.89859C45.7895 6.89859 45.7895 6.89859 44.2632 8.42636H42.7368H41.2105C39.6842 8.42636 38.1579 8.42636 38.1579 8.42636C36.6316 8.42636 36.6316 8.42636 35.1053 8.42636C33.5789 8.42636 33.5789 8.42636 32.0526 8.42636C33.5789 8.42636 33.5789 8.42636 35.1053 8.42636C35.1053 8.42636 35.1053 8.42636 36.6316 8.42636V9.95414H35.1053C33.5789 9.95414 33.5789 9.95414 32.0526 9.95414C29 9.95414 27.4737 9.95414 24.4211 11.4819C22.8947 11.4819 21.3684 13.0097 19.8421 13.0097C21.3684 13.0097 21.3684 13.0097 22.8947 13.0097H21.3684C19.8421 16.0653 19.8421 17.593 18.3158 17.593C18.3158 17.593 16.7895 17.593 16.7895 19.1208C18.3158 19.1208 15.2632 19.1208 15.2632 20.6486C16.7895 20.6486 16.7895 20.6486 16.7895 20.6486C16.7895 20.6486 15.2632 20.6486 15.2632 22.1764V23.7041H13.7368H12.2105C9.1579 23.7041 9.1579 25.2319 12.2105 25.2319C9.1579 25.2319 7.63158 25.2319 6.10526 26.7597C4.57895 26.7597 6.10526 26.7597 6.10526 26.7597C6.10526 26.7597 4.57895 26.7597 3.05263 28.2875C3.05263 28.2875 1.52632 28.2875 1.52632 29.8153C3.05263 29.8153 3.05263 29.8153 4.57895 29.8153C3.05263 29.8153 1.52632 29.8153 0 29.8153C3.05263 31.343 4.57895 29.8153 7.63158 29.8153C9.1579 29.8153 9.1579 31.343 12.2105 31.343C13.7368 31.343 13.7368 31.343 15.2632 31.343C15.2632 31.343 15.2632 31.343 16.7895 31.343C18.3158 31.343 18.3158 31.343 19.8421 32.8708H18.3158C16.7895 32.8708 16.7895 32.8708 15.2632 32.8708C13.7368 32.8708 13.7368 32.8708 13.7368 34.3986C12.2105 34.3986 10.6842 34.3986 10.6842 35.9264C10.6842 35.9264 10.6842 35.9264 10.6842 37.4541C9.15789 37.4541 9.1579 37.4541 7.63158 37.4541L6.10526 38.9819C4.57895 38.9819 4.57895 38.9819 3.05263 40.5097C3.05263 40.5097 3.05263 42.0375 1.52632 42.0375H0C0 42.0375 0 42.0375 1.52632 42.0375C3.05263 42.0375 3.05263 42.0375 4.57895 42.0375C4.57895 42.0375 4.57895 42.0375 4.57895 43.5653H3.05263H4.57895C4.57895 43.5653 6.10526 43.5653 6.10526 45.093C6.10526 45.093 7.63158 45.093 7.63158 46.6208C6.10526 46.6208 6.10526 46.6208 6.10526 46.6208C6.10526 46.6208 7.63158 46.6208 7.63158 48.1486C7.63158 48.1486 7.63158 48.1486 9.1579 48.1486C10.6842 48.1486 10.6842 48.1486 12.2105 48.1486H13.7368H12.2105C10.6842 48.1486 12.2105 48.1486 12.2105 49.6764C10.6842 49.6764 10.6842 49.6764 9.1579 49.6764C7.63158 49.6764 6.10526 49.6764 6.10526 49.6764C7.63158 49.6764 9.15789 49.6764 10.6842 49.6764C10.6842 49.6764 10.6842 49.6764 12.2105 49.6764C12.2105 49.6764 12.2105 49.6764 10.6842 49.6764C10.6842 49.6764 9.1579 49.6764 9.1579 51.2041C10.6842 51.2041 12.2105 51.2041 13.7368 51.2041C15.2632 51.2041 16.7895 51.2041 18.3158 51.2041C19.8421 51.2041 21.3684 51.2041 21.3684 51.2041C21.3684 51.2041 24.4211 51.2041 22.8947 52.7319C22.8947 52.7319 27.4737 54.2597 30.5263 54.2597H32.0526C35.1053 54.2597 38.1579 55.7875 41.2105 54.2597C42.7368 54.2597 44.2632 54.2597 45.7895 54.2597C47.3158 54.2597 47.3158 54.2597 48.8421 54.2597C50.3684 54.2597 50.3684 54.2597 51.8947 54.2597C51.8947 54.2597 51.8947 54.2597 53.4211 54.2597C56.4737 54.2597 58 54.2597 61.0526 54.2597C62.5789 54.2597 64.1053 54.2597 64.1053 54.2597C65.6316 54.2597 67.1579 54.2597 68.6842 54.2597C70.2105 54.2597 71.7368 54.2597 73.2632 54.2597C77.8421 54.2597 80.8947 54.2597 85.4737 54.2597C87 54.2597 88.5263 54.2597 88.5263 54.2597C88.5263 54.2597 88.5263 54.2597 90.0526 54.2597C91.5789 54.2597 91.5789 54.2597 93.1053 54.2597C97.6842 54.2597 102.263 54.2597 108.368 54.2597C103.789 54.2597 99.2105 54.2597 93.1053 54.2597C100.737 54.2597 106.842 54.2597 114.474 54.2597H116C119.053 54.2597 122.105 54.2597 123.632 54.2597C125.158 54.2597 126.684 54.2597 126.684 54.2597C132.789 54.2597 138.895 54.2597 145 54.2597C146.526 54.2597 148.053 54.2597 151.105 54.2597H152.632H151.105C152.632 54.2597 152.632 54.2597 154.158 54.2597C155.684 54.2597 157.211 54.2597 157.211 54.2597H158.737C161.789 54.2597 164.842 54.2597 167.895 54.2597C174 54.2597 180.105 54.2597 184.684 54.2597H186.211C190.789 54.2597 196.895 54.2597 201.474 54.2597C204.526 54.2597 207.579 54.2597 212.158 54.2597H213.684C215.211 54.2597 216.737 54.2597 218.263 54.2597C219.789 54.2597 222.842 54.2597 224.368 54.2597C225.895 54.2597 225.895 54.2597 227.421 54.2597C228.947 54.2597 230.474 54.2597 230.474 54.2597H232C233.526 54.2597 235.053 54.2597 236.579 54.2597C238.105 54.2597 241.158 54.2597 242.684 54.2597C244.211 54.2597 245.737 54.2597 247.263 54.2597C248.789 54.2597 250.316 54.2597 251.842 54.2597H253.368C256.421 54.2597 259.474 54.2597 261 54.2597C262.526 54.2597 264.053 54.2597 265.579 54.2597C267.105 54.2597 267.105 54.2597 267.105 54.2597C268.632 54.2597 268.632 52.7319 268.632 52.7319C270.158 52.7319 270.158 51.2041 268.632 51.2041L267.105 49.6764C268.632 49.6764 270.158 49.6764 271.684 48.1486H273.211H274.737C276.263 48.1486 277.789 48.1486 277.789 48.1486C279.316 48.1486 279.316 48.1486 280.842 48.1486C282.368 48.1486 282.368 48.1486 283.895 48.1486C282.368 48.1486 282.368 48.1486 280.842 48.1486C280.842 48.1486 280.842 48.1486 279.316 48.1486V46.6208H280.842C282.368 46.6208 282.368 46.6208 283.895 46.6208C286.947 46.6208 288.474 46.6208 291.526 45.093C293.053 45.093 294.579 43.5653 296.105 43.5653C294.579 43.5653 294.579 43.5653 293.053 43.5653H294.579C296.105 43.5653 297.632 42.0375 297.632 42.0375C297.632 42.0375 299.158 42.0375 299.158 40.5097C299.158 38.9819 302.211 38.9819 302.211 37.4541C300.684 37.4541 300.684 37.4541 300.684 37.4541C300.684 37.4541 302.211 37.4541 302.211 35.9264V34.3986H303.737H305.263C308.316 31.343 308.316 31.343 305.263 31.343C308.316 31.343 309.842 31.343 311.368 29.8153C312.895 29.8153 311.368 29.8153 311.368 29.8153C311.368 28.2875 312.895 28.2875 314.421 26.7597C315.947 28.2875 315.947 28.2875 315.947 26.7597H314.421C312.895 26.7597 312.895 26.7597 314.421 26.7597ZM201.474 52.7319C201.474 52.7319 199.947 52.7319 201.474 52.7319V52.7319ZM50.3684 9.95414C50.3684 9.95414 48.8421 9.95414 50.3684 9.95414V9.95414ZM296.105 29.8153C297.632 29.8153 296.105 29.8153 296.105 29.8153V29.8153ZM25.9474 22.1764C24.4211 22.1764 24.4211 22.1764 25.9474 22.1764C24.4211 22.1764 24.4211 22.1764 25.9474 22.1764C25.9474 22.1764 24.4211 22.1764 25.9474 22.1764ZM265.579 3.84303C265.579 3.84303 264.053 3.84303 265.579 3.84303C264.053 3.84303 265.579 3.84303 265.579 3.84303ZM251.842 2.31525C253.368 2.31525 253.368 2.31525 251.842 2.31525C253.368 2.31525 253.368 2.31525 251.842 2.31525ZM65.6316 54.2597C65.6316 52.7319 65.6316 52.7319 65.6316 54.2597C65.6316 52.7319 65.6316 52.7319 65.6316 54.2597ZM203 52.7319C204.526 52.7319 203 52.7319 203 52.7319V52.7319ZM311.368 26.7597C311.368 26.7597 309.842 26.7597 311.368 26.7597C309.842 26.7597 311.368 26.7597 311.368 26.7597ZM164.842 54.2597C164.842 54.2597 166.368 54.2597 164.842 54.2597V54.2597ZM204.526 54.2597C206.053 54.2597 206.053 54.2597 204.526 54.2597C206.053 54.2597 206.053 54.2597 204.526 54.2597C206.053 54.2597 206.053 54.2597 204.526 54.2597C206.053 54.2597 206.053 54.2597 204.526 54.2597C206.053 52.7319 206.053 52.7319 204.526 54.2597Z" fill="#FFF8F1"/>
<path d="M306.79 35.9262C305.263 35.9262 303.737 35.9262 303.737 37.454C303.737 35.9262 305.263 35.9262 306.79 35.9262Z" fill="#FFF8F1"/>
<path d="M311.368 23.704C311.368 22.1762 311.368 22.1762 311.368 23.704C311.368 22.1762 311.368 22.1762 311.368 23.704C309.842 23.704 311.368 23.704 311.368 23.704Z" fill="#FFF8F1"/>
<path d="M122.105 55.7874C123.632 55.7874 123.632 55.7874 125.158 55.7874C123.632 54.2596 123.632 54.2596 122.105 55.7874Z" fill="#FFF8F1"/>
<path d="M106.842 55.7874C108.368 55.7874 109.895 55.7874 109.895 55.7874C111.421 55.7874 112.947 55.7874 112.947 55.7874C111.421 55.7874 109.895 55.7874 109.895 55.7874C109.895 54.2596 108.368 54.2596 106.842 55.7874Z" fill="#FFF8F1"/>
<path d="M12.2104 20.6487C13.7367 20.6487 15.263 20.6487 15.263 19.121C13.7367 19.121 13.7367 20.6487 12.2104 20.6487Z" fill="#FFF8F1"/>
</g>
<defs>
<clipPath id="clip0">
<rect width="319" height="55" fill="white" transform="translate(0 0.787476)"/>
</clipPath>
</defs>
</svg>
