<svg xmlns="http://www.w3.org/2000/svg" xmlns:xlink="http://www.w3.org/1999/xlink" fill="#363636" width="1517.651" height="1517.65" viewBox="0 0 1517.651 1517.65"><path id="path2318" d="M1750.622-2011.475l-39.173-39.173-2.987-2.987-39.173-39.173h-4.213l39.187,39.173,2.973,2.987,39.187,39.173,2.973,2.973,15.28,15.293v-4.213l-11.08-11.08Zm-11.08-81.333h-4.2l29.333,29.333v-4.213Zm-70.106,165.653c-24.387,0-39.013.067-50.627,2.973-16.867,4.227-27.36,14.453-52.093,39.173l-.44.44-2.533,2.547-39.187,39.173-2.973,2.973-39.187,39.187-2.973,2.973-39.187,39.187-.427.427c-.867.867-1.707,1.72-2.547,2.547-38.12,38.093-40.32,39.146-93.853,39.187H1244.74c-24.733-24.733-35.232-34.96-52.1-39.187h121.512c22.3-.013,36.084-.213,47.124-2.973,16.867-4.227,27.36-14.453,52.093-39.187.147-.147.28-.293.44-.44l2.533-2.533,39.187-39.187,2.973-2.973,39.187-39.173,2.973-2.987,39.173-39.173.44-.44,2.533-2.533c39.213-39.187,40.413-39.187,98.52-39.187h79.96l39.187,39.187Zm-410.642,229.04,23.9,23.893,2.973,2.973,39.185,39.187,2.975,2.973,39.187,39.187,2.533,2.533.44.44h0c24.733,24.733,35.227,34.96,52.093,39.187,11.613,2.907,26.24,2.973,50.613,2.973h164.28l39.187,39.187H1444.6c-58.106,0-59.306-.013-98.52-39.187-.827-.827-1.667-1.68-2.533-2.547l-.44-.427-39.18-39.187-2.975-2.973-39.181-39.187-2.973-2.973h0l-39.183-39.187-2.537-2.533c-.148-.147-.291-.293-.437-.44-24.733-24.72-35.233-34.96-52.1-39.173-11.612-2.907-26.244-2.973-50.619-2.973h-76.988l39.184-39.187h65.91c58.1,0,59.308,0,98.508,39.187.832.827,1.674,1.667,2.54,2.533l.437.44Zm281.349,111.186c53.533.027,55.733,1.08,93.853,39.187H1472.69c-58.093,0-59.307-.013-98.506-39.187Zm178.173,123.493h-76.987c-24.387,0-39.013.067-50.626,2.973-16.867,4.227-27.36,14.453-52.093,39.187l-.44.44-2.533,2.533-39.187,39.187-2.973,2.973-39.187,39.187-2.973,2.973-39.173,39.179-.44.439c-.867.864-1.707,1.705-2.547,2.536-38.12,38.1-40.32,39.153-93.85,39.182H1079.088l39.183-39.182h167.78c22.293-.012,36.077-.208,47.121-2.975,16.865-4.225,27.359-14.453,52.092-39.179l.44-.44,2.533-2.533,39.187-39.187,2.973-2.973,39.187-39.187,2.973-2.973,39.173-39.187.44-.427,2.547-2.547c39.2-39.173,40.413-39.173,98.506-39.173h65.906Zm42.16,42.16h-91.04c-24.387,0-39.013.067-50.626,2.973-16.867,4.227-27.36,14.453-52.093,39.187-.146.147-.293.28-.44.44l-2.533,2.533-39.187,39.187-2.973,2.973L1482.4-1294.8l-2.973,2.975-39.187,39.182-.427.436c-.867.865-1.707,1.708-2.547,2.539-38.12,38.1-40.32,39.153-93.853,39.181h-98.67c-24.733-24.731-35.232-34.957-52.1-39.181h121.512c22.3-.013,36.084-.208,47.124-2.975,16.867-4.225,27.36-14.453,52.093-39.182.147-.145.28-.288.44-.435l2.533-2.54,39.187-39.179,2.973-2.973,39.187-39.187,2.973-2.973,39.173-39.187.44-.44c.866-.854,1.707-1.707,2.533-2.533,39.213-39.173,40.413-39.187,98.52-39.187h79.96ZM1258.794-1192.23l23.9,23.9,2.973,2.973,39.185,39.183,2.975,2.975,39.187,39.182,2.533,2.54c.147.147.293.289.44.435h0c24.733,24.732,35.227,34.958,52.093,39.182,11.613,2.909,26.24,2.975,50.613,2.975h164.28l39.187,39.183H1444.6c-58.106,0-59.307-.013-98.52-39.183-.827-.831-1.667-1.672-2.533-2.539l-.44-.436-39.18-39.182h0l-2.975-2.975-39.181-39.182-2.973-2.972v0l-39.182-39.183-2.537-2.537-.437-.436c-24.733-24.733-35.233-34.959-52.1-39.184-11.612-2.907-26.244-2.973-50.619-2.973h-76.988l39.184-39.181h65.91c58.1,0,59.308.007,98.508,39.181.832.832,1.674,1.673,2.54,2.541l.437.433Zm281.349,111.186c53.533.029,55.733,1.083,93.853,39.183H1472.69c-58.093,0-59.307-.007-98.506-39.183Zm178.173,123.5h-76.987c-24.387,0-39.013.067-50.626,2.973-16.867,4.227-27.36,14.453-52.093,39.187-.147.133-.293.28-.44.427l-2.533,2.547-39.187,39.173-2.973,2.973-39.187,39.187-2.973,2.973-39.173,39.187-.44.44c-.867.867-1.707,1.707-2.547,2.533-38.12,38.093-40.32,39.147-93.85,39.187H1079.088l39.183-39.187h167.78c22.293-.013,36.077-.213,47.121-2.973,16.865-4.227,27.359-14.453,52.092-39.187.147-.147.293-.28.44-.427l2.533-2.547,39.187-39.187,2.973-2.973,39.187-39.173,2.973-2.973,39.173-39.187.44-.44c.867-.867,1.707-1.707,2.547-2.533,39.2-39.173,40.413-39.186,98.506-39.186h65.906Zm42.16,42.16h-91.04c-24.387,0-39.013.053-50.627,2.973-16.867,4.213-27.36,14.44-52.093,39.173l-.44.44-2.533,2.533-39.187,39.187-2.973,2.973L1482.4-788.918l-2.973,2.973-39.187,39.187-.427.427-2.547,2.547c-38.12,38.093-40.32,39.147-93.853,39.173H1244.74c-24.733-24.72-35.232-34.947-52.1-39.173h121.512c22.3-.013,36.084-.213,47.124-2.973,16.867-4.227,27.36-14.453,52.093-39.187.147-.147.28-.293.44-.44l2.533-2.533L1455.53-828.1l2.973-2.973,39.187-39.187,2.973-2.973,39.173-39.173.44-.44,2.533-2.533c39.213-39.186,40.413-39.186,98.52-39.186h79.96ZM1381.05-828.1c-38.12,38.107-40.32,39.16-93.848,39.187H1121.247c39.2-39.173,40.413-39.187,98.508-39.187h161.3Zm-306.169,81.346-2.975,2.973-39.181,39.173-2.976,2.987-39.18,39.173-.437.44c-.868.867-1.708,1.707-2.539,2.533-37.815,37.8-40.289,39.133-92.556,39.187H823.17l-39.183-39.187h80.492c22.293-.013,36.079-.2,47.121-2.973,16.863-4.227,27.363-14.453,52.1-39.173.144-.147.285-.293.432-.44l2.541-2.547,39.183-39.173,2.972-2.973,39.184-39.186,2.975-2.973,39.184-39.187.435-.427c.865-.88,1.708-1.72,2.54-2.547,39.2-39.173,40.413-39.187,98.512-39.187H1423.21l-39.173,39.187H1219.754c-24.376,0-39.008.067-50.62,2.973-16.864,4.227-27.363,14.453-52.095,39.187-.147.147-.291.28-.437.44l-2.537,2.533Zm-321.97,56.2-11.08-11.067h94.544c22.295-.013,36.077-.213,47.121-2.987,16.861-4.227,27.363-14.453,52.094-39.173.147-.147.287-.293.433-.44l2.541-2.533,39.181-39.187,2.973-2.973L1019.9-828.1l2.975-2.973,39.181-39.187.436-.427c.867-.867,1.708-1.707,2.539-2.547,39.2-39.173,40.415-39.173,98.512-39.173h94.017c.417.413.82.813,1.231,1.227h0c23.844,23.827,34.284,33.8,50.861,37.947h-118c-24.379,0-39.011.067-50.623,2.973-16.865,4.227-27.364,14.453-52.1,39.187-.145.147-.287.293-.436.44l-2.539,2.533-39.181,39.187-2.975,2.973-39.183,39.187-2.976,2.973-39.18,39.173-.439.44c-.867.867-1.708,1.707-2.539,2.547-38.125,38.093-40.327,39.147-93.854,39.173H781.014Zm-66.156-53.227H808.269c22.295-.013,36.079-.213,47.124-2.973,16.861-4.227,27.363-14.453,52.093-39.186.147-.147.288-.293.435-.44l2.54-2.533L949.643-828.1l2.973-2.973L991.8-870.264l2.975-2.973,39.181-39.173.435-.44c.868-.867,1.709-1.707,2.54-2.533,39.2-39.187,40.415-39.187,98.51-39.187H1215.4l39.183,39.187h-91.041c-24.377,0-39.008.053-50.621,2.973-16.864,4.213-27.364,14.44-52.1,39.173-.147.147-.288.293-.436.44l-2.539,2.533-39.183,39.186L1015.7-828.1l-39.182,39.187-2.975,2.973-39.181,39.186-.436.427c-.865.867-1.709,1.707-2.539,2.547-38.127,38.093-40.329,39.147-93.857,39.173H738.858c-24.736-24.72-35.235-34.947-52.1-39.173Zm-113.55-2.973,39.183-39.186H780.166c22.293-.013,36.077-.213,47.121-2.973,16.863-4.227,27.363-14.453,52.092-39.187.147-.147.289-.28.436-.427l2.539-2.547,39.183-39.187,2.975-2.973,39.183-39.173,2.973-2.973,39.185-39.187.435-.44c.865-.867,1.708-1.707,2.537-2.533,39.2-39.173,40.416-39.187,98.512-39.187h65.912l39.183,39.187h-76.989c-24.377,0-39.008.067-50.619,2.973-16.867,4.227-27.365,14.453-52.1,39.187-.145.133-.287.28-.435.427l-2.539,2.547-39.18,39.173-2.976,2.973L948.41-831.078l-2.973,2.973-39.183,39.187-.436.44c-.867.867-1.708,1.707-2.539,2.533-38.125,38.093-40.328,39.147-93.857,39.186H573.205ZM875.175-828.1c-38.127,38.107-40.328,39.16-93.859,39.187H615.362c39.2-39.173,40.413-39.187,98.509-39.187h161.3ZM569-746.758l-2.976,2.973-39.181,39.173-2.976,2.987-39.18,39.173-.437.44c-.868.867-1.707,1.707-2.539,2.533-37.812,37.8-40.288,39.133-92.554,39.187H317.286L278.1-659.478H358.6c22.295-.013,36.077-.2,47.123-2.973,16.863-4.227,27.361-14.453,52.093-39.173.145-.147.287-.293.435-.44l2.54-2.547,39.181-39.173,2.975-2.973,39.184-39.186,2.976-2.973,39.18-39.187.436-.427c.868-.88,1.709-1.72,2.541-2.547,39.2-39.173,40.413-39.187,98.509-39.187H917.331l-39.183,39.187H713.872c-24.376,0-39.008.067-50.619,2.973-16.865,4.227-27.367,14.453-52.1,39.187-.147.147-.289.28-.435.44l-2.539,2.533ZM755.882-912.411c-.831-.84-1.672-1.68-2.539-2.547l-.432-.427h0l-39.184-39.187-2.975-2.973-39.184-39.187-2.975-2.973-39.181-39.183-2.54-2.539-.435-.436c-24.732-24.728-35.229-34.957-52.093-39.183h-.005c-11.612-2.908-26.24-2.975-50.619-2.975H359.443L320.262-1123.2H551.825c58.1,0,59.311.008,98.51,39.183.833.832,1.673,1.673,2.54,2.54l.436.435h0l39.184,39.183,2.975,2.975L734.651-999.7l2.975,2.973,15.285,15.28,23.895,23.907,2.543,2.533c.147.147.288.293.433.44,24.732,24.733,35.231,34.96,52.1,39.187,11.611,2.907,26.24,2.973,50.619,2.973h76.988L920.3-873.238H849.741c-53.531-.027-55.735-1.08-93.858-39.173ZM460.93-1041.861c-58.1,0-59.309-.007-98.51-39.183H528.376c53.531.029,55.731,1.083,93.854,39.183ZM278.1-1165.36H358.6c22.295-.012,36.077-.207,47.122-2.973,16.863-4.227,27.361-14.455,52.093-39.184l.435-.433,2.54-2.541,39.181-39.181,2.975-2.975,39.184-39.183,2.976-2.975,39.18-39.178.436-.44c.868-.867,1.709-1.707,2.541-2.533,39.2-39.187,40.413-39.187,98.509-39.187H917.331l-39.183,39.187H713.872c-24.376,0-39.008.053-50.619,2.973-16.865,4.22-27.367,14.447-52.1,39.178-.147.147-.289.288-.435.439l-2.539,2.536L569-1252.647l-2.976,2.975-39.181,39.181-2.976,2.975-39.18,39.184-.437.436c-.868.865-1.707,1.707-2.539,2.537-37.812,37.791-40.288,39.136-92.554,39.183H317.286ZM755.882-1418.3c-.831-.827-1.672-1.667-2.539-2.533l-.432-.44h0l-39.184-39.187-2.975-2.973-39.184-39.173-2.975-2.973-39.181-39.187-2.54-2.547c-.148-.147-.289-.28-.435-.427-24.732-24.733-35.229-34.96-52.093-39.187h-.005c-11.612-2.906-26.24-2.973-50.619-2.973H359.443l-39.181-39.187H551.825c58.1,0,59.311.013,98.51,39.187.833.827,1.673,1.667,2.54,2.533l.436.44,39.184,39.187,2.975,2.973,39.181,39.187,2.975,2.973,15.285,15.28,23.895,23.893,2.543,2.547c.147.147.288.28.433.427,24.732,24.733,35.231,34.96,52.1,39.187,11.611,2.907,26.24,2.973,50.619,2.973h76.988L920.3-1379.117H849.741c-53.531-.027-55.735-1.08-93.859-39.187ZM460.93-1547.743c-58.1,0-59.309-.013-98.51-39.187H528.376c53.531.027,55.731,1.08,93.854,39.187ZM278.1-1671.249H358.6c22.295-.013,36.077-.2,47.122-2.973,16.863-4.227,27.361-14.453,52.093-39.173.145-.147.287-.293.435-.44l2.54-2.533,39.181-39.187,2.975-2.973,39.184-39.187,2.976-2.973,39.18-39.187.436-.427c.868-.867,1.709-1.707,2.541-2.547,39.2-39.173,40.413-39.173,98.509-39.173H917.331l-39.183,39.173H713.872c-24.376,0-39.008.067-50.619,2.973-16.865,4.227-27.367,14.453-52.1,39.187-.147.146-.289.293-.435.44l-2.539,2.533L569-1758.529l-2.976,2.973-39.181,39.187-2.976,2.973-39.18,39.173-.437.44c-.868.867-1.707,1.707-2.539,2.533-37.812,37.8-40.288,39.133-92.554,39.187H317.286Zm337.259-129.44c39.2-39.173,40.413-39.187,98.509-39.187h161.3c-38.127,38.107-40.328,39.16-93.858,39.187H615.363Zm306.174-81.333,2.975-2.987,39.183-39.173,2.973-2.973,39.185-39.187.435-.44c.865-.867,1.708-1.707,2.537-2.533,39.2-39.173,40.416-39.187,98.512-39.187h65.912l39.183,39.187h-76.989c-24.377,0-39.008.067-50.619,2.973-16.867,4.227-27.365,14.453-52.1,39.187-.145.147-.287.28-.435.427l-2.539,2.547-39.18,39.173-2.976,2.987-39.184,39.173-2.973,2.973-39.183,39.187-.436.44c-.867.867-1.708,1.707-2.539,2.533-38.125,38.107-40.328,39.16-93.857,39.187H573.205l39.183-39.187H780.166c22.293-.013,36.077-.2,47.121-2.973,16.863-4.227,27.363-14.453,52.092-39.187.147-.146.289-.28.436-.427l2.539-2.547Zm333.051-45.133h-91.041c-24.377,0-39.008.067-50.621,2.973-16.864,4.227-27.364,14.453-52.1,39.173-.147.147-.288.293-.436.44l-2.539,2.547-39.183,39.173-2.975,2.973-39.183,39.187-2.975,2.973-39.181,39.187-.436.427c-.865.867-1.709,1.72-2.539,2.547-38.127,38.093-40.329,39.146-93.857,39.187H738.858c-24.736-24.733-35.235-34.96-52.1-39.187H808.269c22.295-.013,36.078-.213,47.124-2.973,16.861-4.227,27.363-14.453,52.093-39.187.147-.147.288-.293.435-.44l2.54-2.533,39.183-39.187,2.973-2.973,39.184-39.173,2.975-2.987,39.181-39.173.435-.44c.868-.866,1.709-1.707,2.54-2.533,39.2-39.187,40.415-39.187,98.51-39.187H1215.4Zm4.207,4.2h0c23.844,23.84,34.284,33.8,50.861,37.947h-118c-24.379,0-39.011.067-50.623,2.987-16.865,4.213-27.364,14.44-52.1,39.173-.145.147-.287.293-.436.44l-2.539,2.533-39.181,39.187-2.975,2.973-39.183,39.187-2.976,2.973-39.18,39.187-.439.427c-.867.867-1.708,1.707-2.539,2.547-38.125,38.093-40.327,39.146-93.854,39.173H781.014l-28.1-28.093-11.08-11.08h94.544c22.295-.013,36.077-.213,47.121-2.973,16.861-4.227,27.363-14.453,52.095-39.187.147-.147.287-.293.433-.44l2.541-2.533,39.181-39.187,2.973-2.973,39.184-39.187,2.975-2.973,39.181-39.173.436-.44c.867-.866,1.708-1.706,2.539-2.547,39.2-39.173,40.415-39.173,98.512-39.173h94.017c.417.413.82.813,1.231,1.227Zm129.589,501.679c-58.1,0-59.311,0-98.509-39.187-.833-.827-1.673-1.667-2.54-2.533l-.436-.44-28.1-28.093-11.08-11.08-2.975-2.973-39.18-39.187-2.973-2.973L1163.4-1586.93h0l-2.54-2.547c-.147-.133-.289-.28-.435-.427-24.734-24.733-35.234-34.96-52.1-39.187-11.612-2.907-26.243-2.973-50.617-2.973h-118c16.861-4.227,27.36-14.453,52.092-39.187h94.014c58.1,0,59.309.013,98.509,39.187.832.827,1.675,1.68,2.541,2.547l.435.427,39.183,39.187,2.975,2.973h0l29.336,29.333,9.845,9.853,2.973,2.973,39.182,39.187,2.539,2.533c.148.146.291.293.436.44,24.733,24.72,35.227,34.947,52.093,39.173,11.613,2.92,26.24,2.973,50.626,2.973h91.04l-39.187,39.187Zm-32.76,42.16c-53.529-.027-55.732-1.08-93.856-39.187-.832-.827-1.672-1.667-2.54-2.533l-.433-.44h0l-39.183-39.187-2.975-2.973-39.183-39.173-2.974-2.973-39.184-39.187-2.537-2.547c-.149-.147-.291-.28-.436-.427-24.732-24.733-35.232-34.96-52.095-39.187h0c-11.611-2.906-26.243-2.973-50.62-2.973H865.326l-39.181-39.187h231.565c58.1,0,59.309.013,98.51,39.187.832.827,1.673,1.667,2.54,2.533l.436.44h0l39.183,39.187,2.973,2.973,39.181,39.187,2.976,2.973,15.284,15.28,23.9,23.893,2.539,2.547c.148.147.289.28.436.427,24.733,24.733,35.232,34.96,52.1,39.187,11.6,2.907,26.24,2.973,50.613,2.973h76.987l-39.187,39.187Zm32.76,463.732c-58.1,0-59.311-.013-98.509-39.186-.833-.827-1.673-1.68-2.54-2.547l-.436-.427-28.1-28.107-11.08-11.08-2.975-2.973-39.18-39.183-2.973-2.975-39.183-39.183h0l-2.54-2.537-.435-.437c-24.734-24.731-35.234-34.959-52.1-39.183-11.612-2.908-26.243-2.973-50.617-2.973h-118c16.861-4.227,27.36-14.455,52.092-39.182h94.014c58.1,0,59.309.007,98.509,39.181l2.541,2.54.435.435,39.183,39.183,2.975,2.975h0l29.336,29.337h0l9.845,9.845,2.973,2.975L1310.8-999.7l2.539,2.533c.148.147.291.293.436.44C1338.5-972,1349-961.771,1365.863-957.544c11.613,2.907,26.24,2.973,50.626,2.973h91.04l-39.187,39.187ZM868.3-1081.044h165.956c53.529.029,55.733,1.083,93.857,39.183h-161.3C908.716-1041.861,907.5-1041.868,868.3-1081.044Zm295.243-340.232c-24.377,0-39.008.067-50.621,2.973-16.864,4.227-27.364,14.453-52.1,39.187-.147.147-.288.28-.436.44l-2.539,2.533-39.183,39.187-2.975,2.973L976.515-1294.8l-2.975,2.975-39.181,39.182-.436.436c-.865.865-1.709,1.708-2.539,2.539-38.127,38.1-40.329,39.153-93.857,39.181H738.858c-24.736-24.731-35.235-34.957-52.1-39.181H808.268c22.295-.013,36.079-.208,47.124-2.975,16.861-4.225,27.363-14.453,52.093-39.182.147-.145.288-.288.435-.435l2.54-2.54,39.183-39.179,2.973-2.973,39.184-39.187,2.975-2.973,39.181-39.187.435-.44c.868-.854,1.709-1.707,2.54-2.533,39.2-39.173,40.415-39.187,98.51-39.187H1215.4l39.183,39.187ZM836.375-1207.517c22.295-.012,36.077-.207,47.121-2.975,16.861-4.224,27.363-14.453,52.094-39.181l.433-.435,2.541-2.54,39.181-39.182,2.973-2.975,39.184-39.179,2.975-2.973,39.181-39.187.436-.44c.867-.867,1.708-1.707,2.539-2.533,39.2-39.173,40.415-39.187,98.512-39.187h94.017c.417.427.82.827,1.231,1.24,23.844,23.827,34.284,33.787,50.861,37.947h-118c-24.379,0-39.011.067-50.623,2.973-16.865,4.227-27.364,14.453-52.1,39.187-.145.147-.287.28-.436.427l-2.539,2.547-39.181,39.178-2.975,2.975-39.183,39.183-2.976,2.975-39.18,39.181-.439.437-2.539,2.537c-38.125,38.1-40.327,39.155-93.854,39.184H781.014l-28.1-28.1-11.08-11.08h94.544ZM579.931-1671.249h0c58.1,0,59.311.013,98.509,39.187.832.827,1.675,1.68,2.541,2.547l.436.427L720.6-1589.9l2.973,2.973h0l29.337,29.333,9.844,9.853,2.975,2.973,39.181,39.187,2.539,2.533c.151.146.291.293.436.44,24.733,24.72,35.235,34.947,52.1,39.173,11.611,2.92,26.24,2.973,50.619,2.973h91.04l-39.183,39.187H882.5c-58.1,0-59.31,0-98.509-39.187-.832-.827-1.673-1.667-2.541-2.533l-.435-.44-28.1-28.093-11.08-11.08-2.973-2.973-39.181-39.187-2.975-2.973-39.184-39.187-2.539-2.547c-.147-.133-.291-.28-.436-.427-24.735-24.733-35.233-34.96-52.1-39.187-11.612-2.907-26.244-2.973-50.617-2.973h-118c16.861-4.227,27.361-14.453,52.091-39.187Zm28.1-42.16v.013c58.1,0,59.311,0,98.51,39.173.832.84,1.675,1.68,2.54,2.547l.436.427,39.181,39.187,2.976,2.973,1.233,1.24,37.947,37.947,2.975,2.973h0l39.18,39.187,2.54,2.533c.148.147.291.293.435.44,24.735,24.733,35.235,34.96,52.1,39.187,11.612,2.907,26.243,2.973,50.62,2.973h118.008c-16.865,4.227-27.364,14.44-52.1,39.173H910.6c-58.1,0-59.311,0-98.51-39.173-.831-.84-1.675-1.68-2.539-2.547l-.437-.427-39.181-39.187-2.973-2.973L752.911-1561.8l-25.131-25.133h0L724.8-1589.9l-39.181-39.187-2.539-2.533c-.149-.147-.288-.293-.436-.44-24.735-24.733-35.232-34.96-52.1-39.187-11.612-2.906-26.24-2.973-50.616-2.973H488.889l39.183-39.173v-.013ZM868.3-1586.93h165.956c53.529.027,55.733,1.08,93.857,39.187h-161.3C908.716-1547.743,907.5-1547.756,868.3-1586.93Zm-133.654-129.44c.833.827,1.675,1.667,2.54,2.533l.437.44,15.285,15.28,23.895,23.893,2.976,2.973,39.181,39.187,2.975,2.973,39.184,39.187,2.536,2.533c.151.147.292.293.439.44h0c24.731,24.733,35.231,34.96,52.1,39.187,11.611,2.907,26.243,2.973,50.619,2.973h164.278l39.184,39.187H938.708c-58.1,0-59.309-.013-98.509-39.187-.832-.827-1.672-1.68-2.54-2.547l-.437-.427-39.18-39.187h0l-2.973-2.973-39.183-39.187-2.971-2.973h0l-39.181-39.187-2.54-2.533-.435-.44c-24.735-24.72-35.233-34.96-52.1-39.173-11.609-2.906-26.241-2.973-50.616-2.973H531.047l39.183-39.187h65.913c58.093,0,59.306,0,98.506,39.187ZM615.362-1294.8c39.2-39.179,40.413-39.179,98.509-39.179h161.3c-38.127,38.1-40.328,39.149-93.859,39.179H615.362Zm137.549,2.975h27.255c22.293-.012,36.077-.208,47.121-2.975,16.863-4.225,27.363-14.453,52.092-39.179.147-.147.289-.293.436-.44l2.539-2.533,39.183-39.187,2.975-2.973,39.183-39.187,2.973-2.973,39.185-39.187.435-.427c.865-.867,1.708-1.707,2.537-2.547,39.2-39.173,40.416-39.173,98.512-39.173h65.912l39.182,39.173h-76.989c-24.377,0-39.008.067-50.619,2.973-16.867,4.227-27.365,14.453-52.1,39.187-.145.147-.287.293-.435.44l-2.539,2.533-39.18,39.187-2.976,2.973-39.184,39.187-2.973,2.973L906.254-1294.8l-.436.439c-.867.864-1.708,1.705-2.539,2.536-38.125,38.1-40.328,39.153-93.857,39.182H573.205l39.183-39.182ZM938.708-999.7c-58.1,0-59.309-.013-98.509-39.183l-2.54-2.539-.437-.436-39.18-39.183h0l-2.973-2.975L755.882-1123.2l-2.971-2.972,0,0-39.181-39.183-2.54-2.537c-.145-.148-.289-.289-.435-.436-24.735-24.733-35.233-34.959-52.1-39.184-11.609-2.907-26.241-2.973-50.616-2.973H531.047l39.183-39.181h65.913c58.093,0,59.306.007,98.506,39.181.833.832,1.675,1.673,2.54,2.541l.437.433,15.285,15.287,23.895,23.9,2.976,2.973,39.181,39.182,2.975,2.975,39.184,39.183,2.536,2.54c.151.147.292.289.439.435h0c24.731,24.732,35.231,34.959,52.1,39.183,11.611,2.909,26.243,2.975,50.619,2.975h164.278l39.184,39.183H938.708Zm-28.1,42.16c-58.1,0-59.31-.013-98.51-39.187-.831-.827-1.675-1.667-2.539-2.533l-.437-.44-39.181-39.183-2.973-2.975-14.052-14.051h0l-25.131-25.13h0l-2.975-2.975L685.622-1123.2l-2.539-2.537c-.149-.148-.288-.289-.436-.437-24.735-24.732-35.232-34.957-52.1-39.183-11.612-2.908-26.24-2.973-50.616-2.973H488.889l39.183-39.184h79.963c58.1,0,59.31.007,98.51,39.183.832.831,1.675,1.672,2.54,2.54l.436.433,39.181,39.183,2.976,2.975,1.233,1.233,37.947,37.949,2.975,2.975h0l39.18,39.183,2.54,2.539.435.436c24.735,24.731,35.235,34.956,52.1,39.183,11.612,2.907,26.243,2.973,50.62,2.973h118.008c-16.865,4.227-27.364,14.453-52.1,39.186ZM654.98-1083.583l-.436-.437c-24.735-24.731-35.233-34.959-52.1-39.183-11.612-2.908-26.244-2.973-50.617-2.973h-118c16.861-4.227,27.361-14.455,52.091-39.182h94.016c58.1,0,59.311.007,98.509,39.181l2.541,2.54.436.435L720.6-1084.02l2.973,2.975h0l29.337,29.337h0l9.844,9.845,2.975,2.975L804.911-999.7l2.539,2.533c.151.147.291.293.436.44,24.733,24.733,35.235,34.96,52.1,39.187,11.611,2.907,26.24,2.973,50.619,2.973h91.04l-39.183,39.187H882.5c-58.1,0-59.31-.013-98.509-39.187-.832-.827-1.673-1.68-2.541-2.547l-.435-.427-28.1-28.107-11.08-11.08-2.973-2.973-39.181-39.183-2.975-2.975-39.184-39.183h0Zm564.632,129.012-2.975-2.973-39.183-39.187-2.974-2.973-39.184-39.183-2.537-2.539c-.149-.148-.291-.291-.436-.436-24.732-24.728-35.232-34.957-52.095-39.183h0c-11.611-2.908-26.243-2.975-50.62-2.975H865.326L826.145-1123.2h231.565c58.1,0,59.309.008,98.51,39.183l2.54,2.54.436.435h0l39.183,39.183,2.973,2.975,39.181,39.183,2.976,2.973,15.284,15.28,23.9,23.907,2.539,2.533c.148.147.289.293.436.44,24.733,24.733,35.232,34.96,52.1,39.187,11.6,2.907,26.24,2.973,50.613,2.973h76.987l-39.187,39.173h-70.56c-53.529-.027-55.732-1.08-93.856-39.173-.832-.84-1.672-1.68-2.54-2.547l-.433-.427h0Zm-7.183-213.762c.831.831,1.675,1.672,2.541,2.54l.435.433,39.181,39.183,2.973,2.975,1.235,1.233,37.949,37.949,2.973,2.975h0l39.185,39.183,2.533,2.539c.147.148.293.291.44.436,24.733,24.731,35.227,34.956,52.093,39.183,11.613,2.907,26.24,2.973,50.627,2.973h118c-16.867,4.227-27.36,14.453-52.093,39.186H1416.49c-58.093,0-59.307-.013-98.515-39.186-.829-.827-1.672-1.667-2.539-2.533l-.436-.44-39.181-39.183-2.975-2.975-14.051-14.051h0l-25.129-25.131h0l-2.975-2.975-39.183-39.183-2.536-2.537c-.149-.148-.291-.289-.437-.437-24.736-24.732-35.233-34.957-52.1-39.183-11.612-2.908-26.243-2.973-50.617-2.973h-91.04l39.181-39.184h79.962c58.1,0,59.311.007,98.51,39.183Zm168.621-165.65c-38.12,38.1-40.32,39.149-93.848,39.179H1121.247c39.2-39.179,40.413-39.179,98.508-39.179h161.3Zm-122.256-2.973h-39.04c-24.376,0-39.008.053-50.62,2.973-16.864,4.22-27.363,14.447-52.095,39.178-.147.147-.291.288-.437.439l-2.537,2.536-39.184,39.183-2.975,2.975-39.181,39.181-2.976,2.975-39.18,39.184-.437.436c-.868.865-1.708,1.707-2.539,2.537-37.815,37.791-40.289,39.136-92.556,39.183H823.17l-39.183-39.183h80.492c22.293-.012,36.078-.207,47.121-2.973,16.863-4.227,27.363-14.455,52.1-39.184l.432-.433,2.541-2.541,39.182-39.181,2.972-2.975,39.184-39.183,2.975-2.975,39.184-39.178.435-.44c.865-.867,1.708-1.707,2.54-2.533,39.2-39.187,40.413-39.187,98.512-39.187H1423.21l-39.173,39.187Zm-46.365-337.266c.831.84,1.675,1.68,2.541,2.547l.435.427,39.181,39.187,2.973,2.973,1.235,1.24,37.949,37.947,2.973,2.973h0l39.185,39.187,2.533,2.533.44.44c24.733,24.733,35.227,34.96,52.093,39.187,11.613,2.906,26.24,2.973,50.627,2.973h118c-16.867,4.227-27.36,14.44-52.093,39.173H1416.49c-58.093,0-59.307,0-98.515-39.173-.829-.84-1.672-1.68-2.539-2.547l-.436-.427-39.181-39.187-2.975-2.973-14.051-14.053-25.129-25.133h0l-2.975-2.973-39.183-39.187-2.536-2.533c-.149-.147-.291-.293-.437-.44-24.736-24.733-35.233-34.96-52.1-39.187-11.612-2.907-26.243-2.973-50.617-2.973h-91.04l39.181-39.173v-.013h79.961v.013c58.1,0,59.311,0,98.51,39.173Zm144.341-207.8h66.44l-39.173,39.173H1219.754c-24.376,0-39.008.067-50.62,2.973-16.864,4.227-27.363,14.453-52.095,39.187-.147.147-.291.293-.437.44l-2.537,2.533-39.184,39.187-2.975,2.973-39.181,39.187-2.976,2.973-39.18,39.173-.437.44c-.868.867-1.708,1.707-2.539,2.533-37.815,37.8-40.289,39.133-92.556,39.187H823.17l-39.183-39.187h80.492c22.293-.013,36.078-.2,47.121-2.973,16.863-4.227,27.363-14.453,52.1-39.173.144-.147.285-.293.432-.44l2.541-2.533,39.182-39.187,2.972-2.973,39.184-39.187,2.975-2.973,39.184-39.187.435-.427c.865-.867,1.708-1.707,2.54-2.547,39.2-39.173,40.413-39.173,98.512-39.173H1356.77Zm-235.523,81.333c39.2-39.173,40.413-39.187,98.508-39.187h161.3c-38.12,38.107-40.32,39.16-93.848,39.187H1121.247Zm306.177-81.333,2.973-2.987,39.187-39.173,2.973-2.973,39.173-39.187.44-.44c.867-.867,1.707-1.707,2.547-2.533,39.2-39.173,40.413-39.187,98.506-39.187h65.906l39.187,39.187h-76.987c-24.387,0-39.013.067-50.626,2.973-16.867,4.227-27.36,14.453-52.093,39.187-.147.146-.293.28-.44.427l-2.533,2.547-39.187,39.173-2.973,2.987-39.187,39.173-2.973,2.973-39.173,39.187-.44.44c-.867.867-1.707,1.707-2.547,2.533-38.12,38.106-40.32,39.16-93.85,39.187H1079.088l39.183-39.187h167.78c22.293-.013,36.077-.2,47.121-2.973,16.865-4.227,27.359-14.453,52.092-39.187.147-.147.293-.28.44-.427l2.533-2.547Zm298.066-84.32-2.973-2.973-39.173-39.187-2.973-2.973-39.187-39.173-2.547-2.547c-.147-.146-.28-.293-.427-.44-24.733-24.72-35.24-34.947-52.093-39.173h-45.973c53.533.027,55.733,1.08,93.853,39.173H1472.69c-58.093,0-59.307,0-98.506-39.173h-4.2c24.733,24.72,35.227,34.96,52.093,39.173,11.613,2.92,26.24,2.987,50.613,2.987h164.28l39.187,39.173H1444.6c-58.106,0-59.307,0-98.52-39.173-.827-.84-1.667-1.68-2.533-2.547l-.44-.44-39.18-39.173h-4.205l39.185,39.173,2.533,2.547c.147.146.293.28.44.44,24.733,24.72,35.227,34.947,52.093,39.173,11.613,2.906,26.24,2.973,50.626,2.973h118c-16.867,4.227-27.36,14.453-52.093,39.187H1416.49c-58.093,0-59.307-.013-98.514-39.187-.829-.827-1.672-1.667-2.539-2.533l-.436-.44-39.181-39.173-2.974-2.987-14.051-14.04v-.013l-25.129-25.12h-4.207l29.336,29.333h0l9.845,9.84,2.973,2.987,39.183,39.173,2.539,2.533c.148.16.291.293.436.44,24.733,24.733,35.227,34.96,52.093,39.187,11.613,2.907,26.24,2.973,50.626,2.973h91.04l-39.187,39.187h-79.96c-58.1,0-59.311-.013-98.509-39.187-.833-.827-1.673-1.667-2.54-2.533l-.436-.44-28.1-28.107-11.08-11.08-2.975-2.973-39.18-39.173-2.973-2.987-39.183-39.173H1159.2l39.182,39.173,2.973,2.987,39.181,39.173,2.976,2.973,15.284,15.293,23.9,23.893,2.539,2.533c.148.147.289.293.436.44,24.733,24.733,35.232,34.96,52.1,39.187,11.6,2.907,26.24,2.973,50.613,2.973h76.986l-39.187,39.173h-70.56c-53.529-.027-55.732-1.08-93.856-39.173-.832-.84-1.672-1.667-2.54-2.547l-.433-.427h0l-39.182-39.187-2.975-2.973-39.183-39.187-2.975-2.973-39.184-39.173-2.537-2.546c-.149-.147-.291-.293-.436-.44-24.732-24.72-35.232-34.947-52.094-39.173h-45.969c53.529.027,55.733,1.08,93.857,39.173h-161.3c-58.1,0-59.308,0-98.509-39.173H864.1c24.731,24.72,35.231,34.96,52.1,39.173,11.611,2.92,26.243,2.987,50.619,2.987h164.278l39.184,39.173H938.708c-58.1,0-59.309,0-98.509-39.173-.832-.84-1.672-1.68-2.54-2.547l-.437-.44-39.18-39.173h-4.207l39.18,39.173,2.54,2.547c.148.146.291.28.435.44,24.735,24.72,35.234,34.947,52.1,39.173,11.612,2.907,26.243,2.973,50.62,2.973h118.008c-16.865,4.227-27.364,14.453-52.1,39.187H910.6c-58.1,0-59.31-.013-98.51-39.187-.831-.827-1.675-1.667-2.539-2.533l-.437-.44-39.181-39.173-2.973-2.987-14.052-14.04v-.013l-25.131-25.12h-4.207l29.337,29.333h0l9.844,9.84,2.975,2.987,39.181,39.173,2.539,2.533c.151.16.291.293.436.44,24.733,24.733,35.235,34.96,52.1,39.187,11.611,2.907,26.24,2.973,50.619,2.973h91.04l-39.182,39.187H882.5c-58.1,0-59.311-.013-98.509-39.187-.832-.827-1.673-1.667-2.541-2.533l-.435-.44-28.1-28.107-11.08-11.08-2.973-2.973-39.181-39.173-2.975-2.987-39.184-39.173h-4.207l39.184,39.173,2.975,2.987,39.181,39.173,2.975,2.973,15.285,15.293,23.895,23.893,2.543,2.533c.147.147.288.293.433.44,24.732,24.733,35.231,34.96,52.1,39.187,11.611,2.907,26.24,2.973,50.619,2.973h76.988L920.3-1885.008H849.741c-53.531-.027-55.734-1.08-93.858-39.173-.831-.84-1.672-1.667-2.539-2.547l-.432-.427h0l-39.184-39.187-2.975-2.973L671.569-2008.5l-2.975-2.973-39.181-39.173-2.54-2.547c-.148-.146-.289-.293-.435-.44-24.732-24.72-35.229-34.947-52.093-39.173H528.376c53.53.027,55.73,1.08,93.854,39.173H460.93c-58.1,0-59.309,0-98.51-39.173h-4.207c24.733,24.72,35.232,34.96,52.1,39.173,11.615,2.92,26.243,2.987,50.621,2.987H625.208l39.181,39.173H432.824c-58.1,0-59.308,0-98.51-39.173-.832-.84-1.673-1.68-2.539-2.547l-.436-.44-39.184-39.173H287.95l39.183,39.173,2.539,2.547c.148.146.291.28.436.44,24.733,24.72,35.232,34.947,52.1,39.173,11.612,2.907,26.241,2.973,50.62,2.973H550.832c-16.867,4.227-27.364,14.453-52.1,39.187H404.719c-58.095,0-59.308-.013-98.509-39.187-.832-.827-1.673-1.667-2.54-2.533l-.435-.44-39.185-39.173-2.973-2.987-14.052-14.04v4.2l9.845,9.84,2.975,2.987,39.184,39.173,2.539,2.533c.148.16.288.293.437.44,24.732,24.733,35.229,34.96,52.1,39.187,11.611,2.907,26.241,2.973,50.619,2.973h91.042l-39.185,39.187h-79.96c-58.1,0-59.311-.013-98.513-39.187-.831-.827-1.672-1.667-2.537-2.533l-.436-.44-28.105-28.107v4.213l23.9,23.893,2.539,2.533c.145.147.288.293.436.44,24.732,24.733,35.231,34.96,52.1,39.187,11.611,2.906,26.243,2.973,50.621,2.973H453.6l-39.183,39.173H343.857c-53.529-.027-55.733-1.08-93.857-39.173-.831-.84-1.673-1.667-2.541-2.547l-.433-.427v4.2c23.848,23.84,34.284,33.8,50.863,37.947H247.025v2.987H411.447l-39.184,39.173H247.025v2.973H369.288c-38.123,38.107-40.327,39.16-93.854,39.187H247.025v2.973h27.257c22.293-.013,36.076-.2,47.123-2.973,16.864-4.227,27.361-14.453,52.091-39.187.148-.147.289-.28.436-.427l2.539-2.547,39.184-39.173,2.975-2.987,39.181-39.173,2.973-2.973,39.184-39.187.437-.44c.864-.867,1.705-1.707,2.537-2.533,39.2-39.173,40.415-39.187,98.51-39.187h65.911l39.184,39.187H629.557c-24.376,0-39.007.067-50.618,2.973-16.867,4.227-27.365,14.453-52.1,39.187-.149.146-.288.28-.437.427l-2.539,2.547-39.18,39.173-2.976,2.987-39.184,39.173-2.975,2.973-39.181,39.187-.435.44c-.869.867-1.708,1.707-2.54,2.533-38.125,38.107-40.328,39.16-93.857,39.187H247.025v2.973h55.359c22.3-.013,36.08-.213,47.124-2.973,16.865-4.227,27.363-14.453,52.1-39.187.145-.147.285-.293.433-.44l2.54-2.533,39.181-39.187,2.975-2.973,39.183-39.173,2.975-2.987,39.183-39.173.436-.44c.865-.867,1.708-1.707,2.539-2.533,39.2-39.187,40.415-39.187,98.51-39.187h79.964l39.184,39.187H657.661c-24.379,0-39.005.067-50.62,2.973-16.861,4.227-27.364,14.453-52.1,39.173l-.437.44-2.539,2.547-39.18,39.173-2.975,2.973-39.185,39.187-2.972,2.973-39.183,39.187-.436.427c-.865.867-1.711,1.72-2.539,2.547-38.125,38.093-40.327,39.146-93.856,39.187h-84.62v2.973h83.466c22.295-.013,36.08-.213,47.123-2.973,16.863-4.227,27.36-14.453,52.093-39.187.147-.147.287-.293.435-.44l2.54-2.533,39.181-39.187,2.973-2.973,39.185-39.187,2.972-2.973,39.183-39.173.436-.44c.867-.867,1.707-1.707,2.54-2.547,39.2-39.173,40.414-39.173,98.509-39.173H751.68c.419.413.821.813,1.232,1.227h0c23.844,23.84,34.281,33.8,50.859,37.947h-118c-24.377,0-39.008.067-50.619,2.987-16.865,4.213-27.367,14.44-52.1,39.173-.144.146-.287.293-.435.44l-2.54,2.533-39.181,39.187-2.975,2.973-39.184,39.187-2.973,2.973-39.181,39.187-.436.427c-.868.867-1.709,1.707-2.541,2.547-38.123,38.093-40.325,39.146-93.854,39.173H275.13l-28.105-28.093v4.2l23.9,23.893,2.975,2.973,39.179,39.187,2.977,2.973,39.184,39.187,2.536,2.533c.149.147.291.293.437.44,24.733,24.733,35.232,34.96,52.1,39.187,11.615,2.906,26.243,2.973,50.621,2.973H625.208l39.181,39.187H432.824c-58.1,0-59.308-.013-98.51-39.187-.832-.827-1.673-1.68-2.539-2.547l-.436-.427-39.184-39.187-2.973-2.973L250-1629.089l-2.973-2.973v4.213l37.951,37.947,2.975,2.973,39.183,39.187,2.539,2.533c.148.146.291.293.436.44,24.733,24.733,35.232,34.96,52.1,39.187,11.612,2.907,26.241,2.973,50.62,2.973H550.832c-16.867,4.227-27.364,14.44-52.1,39.173H404.719c-58.095,0-59.308,0-98.509-39.173-.832-.84-1.673-1.68-2.54-2.547l-.435-.427-39.185-39.187-2.973-2.973L247.025-1561.8v4.2l9.845,9.853,2.975,2.973,39.184,39.187,2.539,2.533c.148.147.288.293.437.44,24.732,24.72,35.229,34.947,52.1,39.173,11.611,2.92,26.241,2.973,50.619,2.973h91.042l-39.185,39.187h-79.96c-58.1,0-59.311,0-98.513-39.187-.831-.827-1.672-1.667-2.537-2.533l-.436-.44-28.105-28.093v4.2l23.9,23.893,2.539,2.547c.145.147.288.28.436.427,24.732,24.733,35.231,34.96,52.1,39.187,11.611,2.907,26.243,2.973,50.621,2.973H453.6l-39.183,39.187H343.857c-53.529-.027-55.733-1.08-93.857-39.187-.831-.827-1.673-1.667-2.541-2.533l-.433-.44v4.213c23.848,23.827,34.284,33.787,50.863,37.947H247.025v2.973H411.447l-39.184,39.187H247.025v2.973H369.288c-38.123,38.1-40.327,39.149-93.854,39.179H247.025v2.975h27.257c22.293-.012,36.076-.208,47.123-2.975,16.864-4.225,27.361-14.453,52.091-39.179.148-.147.289-.293.436-.44l2.539-2.533,39.184-39.187,2.975-2.973L457.81-1418.3l2.973-2.973,39.184-39.187.437-.427c.864-.867,1.705-1.707,2.537-2.547,39.2-39.173,40.415-39.173,98.51-39.173h65.911l39.184,39.173H629.557c-24.376,0-39.007.067-50.618,2.973-16.867,4.227-27.365,14.453-52.1,39.187-.149.147-.288.293-.437.44l-2.539,2.533-39.18,39.187-2.976,2.973-39.184,39.187-2.975,2.973L400.37-1294.8l-.435.439c-.869.864-1.708,1.705-2.54,2.536-38.125,38.1-40.328,39.153-93.857,39.182H247.025v2.975h55.359c22.3-.013,36.08-.208,47.124-2.975,16.865-4.225,27.363-14.453,52.1-39.182.145-.145.285-.288.433-.435l2.54-2.54,39.181-39.179,2.975-2.973,39.183-39.187,2.975-2.973,39.183-39.187.436-.44c.865-.854,1.708-1.707,2.539-2.533,39.2-39.173,40.415-39.187,98.51-39.187h79.964l39.184,39.187H657.661c-24.379,0-39.005.067-50.62,2.973-16.861,4.227-27.364,14.453-52.1,39.187-.145.147-.291.28-.437.44l-2.539,2.533-39.18,39.187-2.975,2.973L470.629-1294.8l-2.972,2.975-39.183,39.182-.436.436c-.865.865-1.711,1.708-2.539,2.539-38.125,38.1-40.327,39.153-93.856,39.181h-84.62v2.975h83.466c22.295-.012,36.08-.207,47.123-2.975,16.863-4.224,27.36-14.453,52.093-39.181.147-.147.287-.288.435-.435l2.54-2.54,39.181-39.182,2.973-2.975,39.185-39.179,2.972-2.973,39.183-39.187.436-.44c.867-.867,1.707-1.707,2.54-2.533,39.2-39.173,40.415-39.187,98.509-39.187h94.018c.419.427.821.827,1.232,1.24,23.844,23.827,34.281,33.787,50.859,37.947h-118c-24.377,0-39.008.067-50.619,2.973-16.865,4.227-27.367,14.453-52.1,39.187-.144.147-.287.28-.435.427l-2.54,2.547L540.893-1294.8l-2.975,2.975-39.184,39.183-2.973,2.975-39.181,39.181-.436.437c-.868.865-1.709,1.707-2.541,2.537-38.123,38.1-40.325,39.155-93.854,39.184H275.13l-28.105-28.1v4.207l23.9,23.9,2.975,2.973,39.179,39.182,2.977,2.975,39.184,39.183,2.536,2.54c.149.147.291.289.437.435h0c24.733,24.732,35.232,34.959,52.1,39.183,11.615,2.909,26.243,2.975,50.621,2.975H625.208L664.389-999.7H432.824c-58.1,0-59.308-.013-98.51-39.183-.832-.831-1.673-1.672-2.539-2.539l-.436-.436-39.184-39.183h0l-2.973-2.975L250-1123.2l-2.973-2.972v4.205l37.951,37.949,2.975,2.975h0l39.183,39.183,2.539,2.539.436.436c24.733,24.731,35.232,34.956,52.1,39.183,11.612,2.907,26.241,2.973,50.62,2.973H550.832c-16.867,4.227-27.364,14.453-52.1,39.186H404.719c-58.095,0-59.308-.013-98.509-39.186-.832-.827-1.673-1.667-2.54-2.533l-.435-.44-39.185-39.183-2.973-2.975-14.052-14.051v4.205l9.845,9.845,2.975,2.975L299.029-999.7l2.539,2.533c.148.147.288.293.437.44,24.732,24.733,35.229,34.96,52.1,39.186,11.611,2.907,26.241,2.973,50.619,2.973h91.042l-39.185,39.187h-79.96c-58.1,0-59.311-.013-98.513-39.187-.831-.827-1.672-1.68-2.537-2.547l-.436-.427-28.105-28.107v4.2l23.9,23.906,2.539,2.533c.145.147.288.293.436.44,24.732,24.733,35.231,34.96,52.1,39.187,11.611,2.907,26.243,2.973,50.621,2.973H453.6L414.42-873.238H343.857c-53.529-.027-55.733-1.08-93.857-39.173-.831-.84-1.673-1.68-2.541-2.547l-.433-.427v4.2c23.848,23.827,34.284,33.8,50.863,37.947H247.025v2.973H411.447l-39.184,39.187H247.025v2.973H369.288c-38.123,38.107-40.327,39.16-93.854,39.187H247.025v2.973h27.257c22.293-.013,36.076-.213,47.123-2.973,16.864-4.227,27.361-14.453,52.091-39.187.148-.147.289-.28.436-.427l2.539-2.547,39.184-39.187,2.975-2.973,39.181-39.173,2.973-2.973,39.184-39.186.437-.44c.864-.867,1.705-1.707,2.537-2.533,39.2-39.173,40.415-39.187,98.51-39.187h65.911l39.184,39.187H629.557c-24.376,0-39.007.067-50.619,2.973-16.867,4.227-27.365,14.453-52.1,39.186-.149.133-.288.28-.437.427l-2.539,2.547-39.18,39.173-2.976,2.973-39.184,39.187-2.975,2.973L400.37-788.918l-.435.44c-.869.867-1.708,1.707-2.54,2.533-38.125,38.093-40.328,39.147-93.857,39.187H247.025v2.973h55.359c22.3-.013,36.08-.213,47.124-2.973,16.865-4.227,27.363-14.453,52.1-39.187.145-.147.285-.293.433-.44l2.54-2.533L443.758-828.1l2.975-2.973,39.183-39.187,2.975-2.973,39.183-39.173.436-.44c.865-.867,1.708-1.707,2.539-2.533,39.2-39.187,40.415-39.187,98.51-39.187h79.964L748.7-915.384H657.661c-24.379,0-39.005.053-50.62,2.973-16.861,4.213-27.364,14.44-52.1,39.173l-.437.44-2.539,2.533-39.18,39.187-2.975,2.973-39.185,39.187-2.972,2.973-39.183,39.187-.436.427c-.865.867-1.711,1.707-2.539,2.547-38.125,38.093-40.327,39.147-93.856,39.173h-84.62v2.987h83.466c22.295-.013,36.08-.213,47.123-2.987,16.863-4.227,27.36-14.453,52.093-39.173.147-.147.287-.293.435-.44l2.54-2.533,39.181-39.186,2.973-2.973L514.021-828.1l2.972-2.973,39.183-39.186.436-.427c.867-.867,1.707-1.707,2.54-2.547,39.2-39.173,40.415-39.173,98.509-39.173h94.018c.419.413.821.813,1.232,1.227h0c23.844,23.827,34.281,33.8,50.859,37.947h-118c-24.377,0-39.008.067-50.619,2.973-16.865,4.227-27.367,14.453-52.1,39.186-.144.147-.287.293-.435.44l-2.54,2.533-39.181,39.187-2.975,2.973-39.184,39.186-2.973,2.973L456.58-704.612l-.436.44c-.868.867-1.709,1.707-2.541,2.547-38.123,38.093-40.325,39.147-93.854,39.173H275.13l-28.105-28.107v4.213l23.9,23.893,2.975,2.973,39.179,39.187,2.977,2.973,39.184,39.187,2.536,2.533c.149.147.291.293.437.44H574.34c-11.612-2.907-26.24-2.973-50.619-2.973H359.443l-39.181-39.187H551.825c58.1,0,59.311.013,98.51,39.187.833.827,1.673,1.667,2.54,2.533l.436.44h4.207l-2.539-2.547c-.147-.147-.291-.28-.436-.427-24.735-24.733-35.233-34.96-52.1-39.187-11.612-2.907-26.244-2.973-50.617-2.973h-118c16.861-4.227,27.361-14.453,52.091-39.187h94.016c58.1,0,59.311.013,98.509,39.187.832.827,1.675,1.667,2.541,2.533l.436.44L720.6-578.132l2.973,2.973h4.207l-2.975-2.973-39.181-39.187-2.539-2.533c-.149-.147-.288-.293-.436-.44-24.735-24.733-35.232-34.96-52.1-39.187-11.612-2.907-26.24-2.973-50.616-2.973H488.889l39.183-39.173v-.013h79.961v.013h0c58.1,0,59.311,0,98.51,39.173.832.827,1.675,1.68,2.54,2.547l.436.427L748.7-620.292l2.976,2.973,1.233,1.24,37.947,37.947,2.975,2.973h4.205l-2.973-2.973-39.183-39.187-2.971-2.973h0l-39.181-39.187-2.54-2.533-.435-.44c-24.735-24.733-35.233-34.96-52.1-39.173-11.609-2.92-26.241-2.987-50.616-2.987H531.047l39.183-39.173h65.913c58.093,0,59.307,0,98.506,39.173.833.84,1.675,1.68,2.54,2.547l.437.44,15.285,15.28,23.895,23.893,2.976,2.973,39.181,39.187,2.975,2.973,39.184,39.187,2.536,2.533c.151.147.292.293.439.44h216.128c-11.611-2.907-26.243-2.973-50.62-2.973H865.326l-39.181-39.187h231.565c58.1,0,59.309.013,98.51,39.187.832.827,1.673,1.667,2.54,2.533l.436.44h4.207l-2.54-2.547c-.146-.147-.289-.28-.435-.427-24.735-24.733-35.234-34.96-52.1-39.187-11.612-2.907-26.243-2.973-50.617-2.973h-118c16.861-4.227,27.36-14.453,52.092-39.187h94.014c58.1,0,59.309.013,98.509,39.187.832.827,1.675,1.667,2.541,2.533l.435.44,39.183,39.187,2.975,2.973h4.205l-2.975-2.973L1191.5-617.319l-2.536-2.533c-.149-.147-.291-.293-.437-.44-24.736-24.733-35.233-34.96-52.1-39.187-11.612-2.907-26.243-2.973-50.617-2.973h-91.04l39.181-39.173v-.013h79.961v.013h0c58.1,0,59.311,0,98.51,39.173.831.827,1.675,1.68,2.541,2.547l.435.427,39.181,39.187,2.973,2.973,1.234,1.24,37.949,37.947,2.973,2.973h4.207l-2.975-2.973-39.181-39.187-2.973-2.973h0l-39.182-39.187-2.537-2.533c-.148-.147-.291-.293-.437-.44-24.733-24.733-35.233-34.96-52.1-39.173-11.612-2.92-26.244-2.987-50.619-2.987h-76.988l39.184-39.173h65.91c58.1,0,59.308,0,98.508,39.173.832.84,1.674,1.68,2.54,2.547l.437.44,15.284,15.28,23.9,23.893,2.973,2.973,39.185,39.187,2.975,2.973,39.187,39.187,2.533,2.533.44.44H1586.1c-11.6-2.907-26.24-2.973-50.613-2.973H1371.21l-39.183-39.187H1563.6c58.093,0,59.307.013,98.506,39.187.827.827,1.68,1.667,2.547,2.533l.427.44h4.213l-2.547-2.547-.427-.427c-24.747-24.733-35.24-34.96-52.107-39.187-11.613-2.907-26.24-2.973-50.613-2.973h-118c16.853-4.227,27.36-14.453,52.093-39.187H1591.7c58.093,0,59.307.013,98.506,39.187l2.533,2.533.44.44,39.187,39.187,2.973,2.973h4.2l-2.973-2.973-39.187-39.187-2.533-2.533c-.147-.147-.28-.293-.44-.44-24.733-24.733-35.226-34.96-52.093-39.187-11.613-2.907-26.24-2.973-50.613-2.973h-91.04l39.173-39.173v-.013h79.96v.013h0c58.107,0,59.32,0,98.52,39.173.827.827,1.667,1.68,2.533,2.547l.44.427,39.187,39.187,2.973,2.973,1.227,1.24v-4.213h0l-39.187-39.187-2.533-2.533-.44-.44c-24.733-24.733-35.226-34.96-52.093-39.173-11.613-2.92-26.24-2.987-50.627-2.987h-76.987L1582-743.785H1647.9c58.106,0,59.32,0,98.52,39.173.827.84,1.667,1.68,2.533,2.547l.44.44,15.28,15.28v-4.213l-11.08-11.067h11.08v-2.987h-14.053c-24.733-24.72-35.227-34.947-52.093-39.173h66.146v-2.973H1584.969l39.187-39.187h140.52v-2.973H1627.129c39.2-39.173,40.413-39.186,98.506-39.186h39.04v-2.973h-39.04c-24.373,0-39,.067-50.613,2.973-16.867,4.227-27.373,14.453-52.093,39.186-.147.147-.293.28-.44.44l-2.533,2.533-39.187,39.187-2.973,2.973-39.187,39.173-2.973,2.987-39.187,39.173-.44.44-2.533,2.533c-37.813,37.8-40.293,39.133-92.56,39.187h-71.864l-39.181-39.187h80.485c22.307-.013,36.08-.2,47.133-2.973,16.853-4.227,27.36-14.453,52.093-39.173.147-.147.28-.293.427-.44l2.547-2.547,39.173-39.173,2.987-2.973,39.173-39.187,2.973-2.973,39.187-39.186.44-.427c.867-.88,1.707-1.72,2.533-2.547,39.2-39.173,40.413-39.187,98.506-39.187h67.146v-2.973h-67.146c-24.373,0-39,.067-50.613,2.973-16.867,4.227-27.36,14.453-52.093,39.187l-.44.44-2.533,2.533-39.187,39.187-2.973,2.973L1510.5-746.758l-2.973,2.973-39.187,39.173-.44.44c-.854.867-1.707,1.707-2.533,2.547-38.12,38.093-40.32,39.147-93.853,39.173H1286.9l-28.1-28.107-11.08-11.067h94.549c22.293-.013,36.08-.213,47.12-2.987,16.853-4.227,27.36-14.453,52.093-39.173.147-.147.28-.293.427-.44l2.547-2.533,39.187-39.187,2.973-2.973,39.173-39.187,2.987-2.973,39.173-39.187.44-.427c.867-.867,1.707-1.707,2.533-2.547,39.2-39.173,40.413-39.173,98.52-39.173h94.013l1.227,1.227v-4.2h0l-39.187-39.187-2.973-2.973-39.173-39.186-2.973-2.973-39.187-39.183-2.547-2.539c-.147-.148-.28-.291-.427-.436-24.733-24.728-35.24-34.957-52.093-39.183h-.013c-11.6-2.908-26.24-2.975-50.613-2.975H1371.21l-39.182-39.183H1563.6c58.093,0,59.307.008,98.506,39.183.827.832,1.68,1.673,2.547,2.54l.427.435h0l39.187,39.182,2.973,2.975,39.187,39.183,2.973,2.973,15.28,15.28v-4.2l-11.08-11.08-2.973-2.973-39.173-39.183-2.987-2.975-39.173-39.182h0l-2.547-2.537c-.147-.148-.28-.291-.427-.437-24.747-24.731-35.24-34.959-52.107-39.183-11.613-2.908-26.24-2.973-50.613-2.973h-118c16.853-4.227,27.36-14.455,52.093-39.183H1591.7c58.093,0,59.307.007,98.506,39.181.827.831,1.667,1.673,2.533,2.54l.44.435,39.187,39.183,2.973,2.975h0l29.333,29.337v-4.207l-25.133-25.131h0l-2.973-2.975-39.187-39.183-2.533-2.537c-.146-.148-.28-.289-.44-.437-24.733-24.732-35.227-34.957-52.093-39.182-11.613-2.908-26.24-2.973-50.613-2.973h-91.04l39.173-39.184h79.96c58.107,0,59.32.007,98.52,39.182.827.831,1.667,1.672,2.533,2.54l.44.433,39.187,39.182,2.973,2.975,1.227,1.233v-4.208l-39.187-39.182-2.533-2.537c-.147-.148-.293-.289-.44-.436-24.733-24.733-35.226-34.958-52.093-39.184-11.613-2.907-26.24-2.973-50.627-2.973h-76.987L1582-1249.673H1647.9c58.106,0,59.32.007,98.52,39.181.827.832,1.667,1.673,2.533,2.541l.44.433,15.28,15.287v-4.207l-11.08-11.08h11.08v-2.975h-14.053c-24.733-24.731-35.227-34.957-52.093-39.181h66.146v-2.975H1584.969l39.187-39.182h140.52v-2.975H1627.129c39.2-39.179,40.413-39.179,98.506-39.179h39.04v-2.973h-39.04c-24.373,0-39,.053-50.613,2.973-16.867,4.22-27.373,14.447-52.093,39.179-.147.147-.293.288-.44.439l-2.533,2.536-39.187,39.182-2.973,2.975-39.187,39.181-2.973,2.975-39.187,39.184-.44.436c-.867.865-1.707,1.707-2.533,2.537-37.813,37.791-40.293,39.136-92.56,39.183h-71.864l-39.181-39.183h80.485c22.307-.012,36.08-.207,47.133-2.973,16.853-4.227,27.36-14.455,52.093-39.184.147-.145.28-.287.427-.433l2.547-2.541,39.173-39.181,2.987-2.975,39.173-39.182,2.973-2.975,39.187-39.179.44-.44,2.533-2.533c39.2-39.187,40.413-39.187,98.506-39.187h67.146v-2.973h-67.146c-24.373,0-39,.067-50.613,2.973-16.867,4.227-27.36,14.453-52.093,39.187-.146.147-.293.28-.44.427l-2.533,2.547-39.187,39.179-2.973,2.975-39.187,39.182-2.973,2.975-39.187,39.181-.44.438c-.854.865-1.707,1.707-2.533,2.537-38.12,38.1-40.32,39.155-93.853,39.184H1286.9l-28.1-28.1-11.08-11.08h94.549c22.293-.012,36.08-.207,47.12-2.974,16.853-4.224,27.36-14.453,52.093-39.181.147-.147.28-.288.427-.435l2.547-2.54,39.187-39.182,2.973-2.975,39.173-39.179,2.987-2.973,39.173-39.187.44-.44,2.533-2.533c39.2-39.173,40.413-39.187,98.52-39.187h94.013c.413.427.813.827,1.227,1.24v-4.213h0l-39.187-39.187-2.973-2.973-39.173-39.173-2.973-2.973-39.187-39.187-2.547-2.547-.427-.427c-24.733-24.733-35.24-34.96-52.093-39.187h-.013c-11.6-2.907-26.24-2.973-50.613-2.973H1371.21l-39.182-39.187H1563.6c58.093,0,59.307.013,98.506,39.187.827.827,1.68,1.667,2.547,2.533l.427.44h0l39.187,39.187,2.973,2.973,39.187,39.187,2.973,2.973,15.28,15.28v-4.2l-11.08-11.08-2.973-2.973-39.173-39.187-2.987-2.973-39.173-39.187-2.547-2.547c-.147-.133-.28-.28-.427-.427-24.747-24.733-35.24-34.96-52.107-39.187-11.613-2.907-26.24-2.973-50.613-2.973h-118c16.853-4.227,27.36-14.453,52.093-39.187H1591.7c58.093,0,59.307.013,98.506,39.187.827.827,1.667,1.68,2.533,2.547l.44.427,39.187,39.187,2.973,2.973h0l29.333,29.333v-4.2l-25.133-25.133-2.973-2.973-39.187-39.187-2.533-2.533c-.146-.147-.28-.293-.44-.44-24.733-24.733-35.227-34.96-52.093-39.187-11.613-2.907-26.24-2.973-50.613-2.973h-91.04l39.173-39.173v-.013h79.96v.013c58.107,0,59.32,0,98.52,39.173.827.84,1.667,1.68,2.533,2.547l.44.427,39.187,39.187,2.973,2.973,1.227,1.24v-4.213h0l-39.187-39.187-2.533-2.533-.44-.44c-24.733-24.72-35.226-34.96-52.093-39.173-11.613-2.906-26.24-2.973-50.627-2.973h-76.987L1582-1755.555H1647.9c58.106,0,59.32,0,98.52,39.187l2.533,2.533.44.44,15.28,15.28v-4.2l-11.08-11.08h11.08v-2.973h-14.053c-24.733-24.733-35.227-34.96-52.093-39.187h66.146v-2.973H1584.969l39.187-39.187h140.52v-2.973H1627.129c39.2-39.173,40.413-39.187,98.506-39.187h39.04v-2.973h-39.04c-24.373,0-39,.067-50.613,2.973-16.867,4.227-27.373,14.453-52.093,39.187l-.44.44-2.533,2.533-39.187,39.187-2.973,2.973-39.187,39.187-2.973,2.973-39.187,39.173-.44.44-2.533,2.533c-37.813,37.8-40.293,39.133-92.56,39.187h-71.864l-39.181-39.187h80.485c22.307-.013,36.08-.2,47.133-2.973,16.853-4.227,27.36-14.453,52.093-39.173.147-.146.28-.293.427-.44l2.547-2.533,39.173-39.187,2.987-2.973,39.173-39.187,2.973-2.973,39.187-39.187.44-.427c.867-.867,1.707-1.707,2.533-2.547,39.2-39.173,40.413-39.173,98.506-39.173h67.146v-2.987h-67.146c-24.373,0-39,.067-50.613,2.987-16.867,4.213-27.36,14.44-52.093,39.173l-.44.44-2.533,2.533-39.187,39.187-2.973,2.973-39.187,39.187-2.973,2.973-39.187,39.187-.44.427c-.854.867-1.707,1.707-2.533,2.547-38.12,38.093-40.32,39.147-93.853,39.173H1286.9l-28.1-28.093-11.08-11.08h94.549c22.293-.013,36.08-.213,47.12-2.973,16.853-4.227,27.36-14.453,52.093-39.187.147-.147.28-.293.427-.44l2.547-2.533,39.187-39.187,2.973-2.973,39.173-39.187,2.987-2.973,39.173-39.173.44-.44c.867-.867,1.707-1.707,2.533-2.547,39.2-39.173,40.413-39.173,98.52-39.173h94.013l1.227,1.227v-4.2h0ZM250-617.318l-2.973-2.973v4.213l37.951,37.947,2.975,2.973h4.205l-2.973-2.973L250-617.318" transform="translate(-247.025 2092.808)" /></svg>