<svg xmlns="http://www.w3.org/2000/svg" viewBox="0 0 468.5 270.4" fill="#363636"><path class="st0" d="M41.8 269.4c2.1.3 4.2.6 6.3 1h12.1c-5.8-2-11.7-3.4-17.9-4.2-12.7-1.6-25.9-.5-39.1 3.3-2.6-11.7-3.4-24.5-2.4-38 0-.6.1-1.2.2-1.7 30.7 13.6 70 20.5 116.8 20.6 3.9 6.8 7.5 13.5 10.9 20.1h3.6c-3.6-7.1-7.5-14.4-11.7-21.7 23.5-40.6 49.2-71 76.2-90.6 27.1 19.6 52.7 50 76.2 90.6-4.2 7.3-8.1 14.6-11.7 21.7h3.6c3.4-6.6 7-13.3 10.9-20.1 46.8-.1 86.1-7 116.8-20.6 0 .6.1 1.2.2 1.7 1 13.6.1 26.3-2.4 38-13.2-3.8-26.4-4.9-39.1-3.3-6.2.8-12.1 2.2-17.9 4.2h12.1c2.1-.4 4.1-.8 6.3-1 9.4-1.2 19.1-.8 28.9 1h12.9c2.7-12.1 3.6-25.2 2.6-39.2-.1-1-.2-1.9-.3-2.9l2.7-1.2c12.6-6.1 23.5-13.4 32.6-21.8 9.1 8.4 20.1 15.7 32.6 21.8l2.7 1.2c-.1 1-.2 2-.3 2.9-1 14-.1 27.1 2.6 39.2v-59c-.8 4.6-1.5 9.1-2 13.5-.5-.2-1.1-.5-1.6-.7-12.2-5.9-22.8-13-31.7-21.1 9.9-9.6 17.4-20.4 22.4-32.2 14.6-35 5.9-75.8-22.6-108l-2.1-2.4-2.1 2.4c-28.5 32.2-37.2 73-22.6 108 4.9 11.8 12.5 22.7 22.4 32.2-8.9 8.1-19.5 15.2-31.7 21.1-.5.3-1.1.5-1.6.7-3.6-33.4-17.3-70.9-40.6-111.5 23.5-40.6 49.2-71 76.2-90.6 12.9 9.3 25.4 21.1 37.6 35.2v-4.9c-11.3-12.8-22.9-23.6-34.8-32.3.5-.3.9-.7 1.4-1 11-7.5 22.2-13 33.4-16.7V0c-11.8 3.7-23.6 9.5-35.2 17.4-.8.5-1.6 1.1-2.4 1.7-.8-.6-1.6-1.2-2.4-1.7C416.9 9.5 405.1 3.7 393.3 0h-12.9c3 .6 6.1 1.3 9.1 2.2-3.2 13-8.7 24.6-16.2 34.5C351.1 65.8 312.8 78.2 272 70c12.6-37.2 39.8-63.2 73.3-70h-12.1c-29.4 10.1-52.9 35.2-64.4 69.4-.3 1-.7 2-1 3 1 .2 2.1.5 3.1.7 42.2 8.6 81.8-4.3 104.9-34.5 7.8-10.2 13.4-22.2 16.7-35.5 11.4 3.6 22.9 9.3 34.1 16.9.5.3.9.7 1.4 1-27.1 19.8-52.7 50.4-76.2 90.9-46.9-.1-86.1-7.1-116.6-20.7 3-27.7 12.8-58.3 29.6-91.2h-3.6c-16.2 32.3-25.9 62.4-28.9 89.8-.5-.2-1.1-.5-1.6-.7-12.2-5.9-22.8-13-31.7-21.1 9.9-9.6 17.4-20.4 22.4-32.2 4.8-11.4 7.1-23.5 7-35.7h-3.2c.1 11.8-2.1 23.4-6.7 34.5-4.8 11.5-12.2 22-21.8 31.3-9.6-9.3-17-19.8-21.8-31.3-4.6-11-6.8-22.7-6.7-34.5H165c-.1 12.2 2.2 24.2 7 35.7 4.9 11.8 12.5 22.7 22.4 32.2-8.9 8.1-19.5 15.2-31.7 21.1-.5.3-1.1.5-1.6.7-3-27.4-12.7-57.5-28.9-89.8h-3.6c16.7 32.9 26.6 63.5 29.4 91.2-30.5 13.7-69.7 20.6-116.6 20.7C28.2 89.2 14.4 69.7 0 53.3v4.9c13.4 15.6 26.3 34.1 38.6 55.3-20.2 35.2-33.2 68.1-38.6 98v59h12.9c9.8-1.9 19.5-2.3 28.9-1.1zm367.3-99.7c-14.1-33.8-5.7-73.2 21.8-104.4 27.5 31.3 35.9 70.7 21.8 104.4-4.8 11.5-12.2 22-21.8 31.3-9.7-9.3-17-19.8-21.8-31.3zM234.9 96.3c0-.6.1-1.2.2-1.7 30.7 13.6 70 20.5 116.8 20.6 23.4 40.7 36.9 78.1 40.3 111.3-30.5 13.7-69.7 20.6-116.6 20.7-23.5-40.5-49.1-71.1-76.2-90.9.5-.3.9-.7 1.4-1 11.2-7.6 22.7-13.3 34.1-16.9 3.3 13.3 8.9 25.3 16.7 35.5 23 30.2 62.7 43 104.9 34.5 1-.2 2.1-.4 3.1-.7-.3-1-.7-2-1-3-13.6-40.9-44.6-68.8-82.2-73.7-12.7-1.6-25.9-.5-39.1 3.3-2.6-11.7-3.4-24.5-2.4-38zm3.1 41.1c12.9-3.7 25.7-4.8 38-3.2 36.3 4.7 66.2 31.6 79.5 71.1-40.8 8.2-79.1-4.3-101.3-33.4-7.5-9.9-12.9-21.5-16.2-34.5zm-76.4-41.3c-.1-1-.2-1.9-.3-2.9L164 92c12.6-6.1 23.5-13.4 32.6-21.8 9.1 8.4 20.1 15.7 32.6 21.8l2.7 1.2c-.1 1-.2 2-.3 2.9-1 14-.1 27.1 2.6 39.2-11.8 3.7-23.6 9.5-35.2 17.4-.8.5-1.6 1.1-2.4 1.7-.8-.6-1.6-1.2-2.4-1.7-11.6-7.8-23.4-13.6-35.2-17.4 2.7-12.1 3.6-25.3 2.6-39.2zm-120.2 19c46.8-.1 86.1-7 116.8-20.6 0 .6.1 1.2.2 1.7 1 13.6.1 26.3-2.4 38-13.2-3.8-26.4-4.9-39.1-3.3-37.6 4.8-68.6 32.8-82.3 73.6-.3 1-.7 2-1 3 1 .2 2.1.5 3.1.7 42.2 8.6 81.8-4.3 104.9-34.5 7.8-10.2 13.4-22.2 16.7-35.5 11.4 3.6 22.9 9.3 34.1 16.9.5.3.9.7 1.4 1-27.1 19.8-52.7 50.4-76.2 90.9-46.9-.1-86.1-7.1-116.6-20.7 3.5-33.1 17.1-70.5 40.4-111.2zm113.9 22.3c-3.2 13-8.7 24.6-16.2 34.5-22.2 29.1-60.5 41.5-101.3 33.4 13.3-39.5 43.3-66.4 79.5-71.1 12.3-1.6 25.1-.5 38 3.2z"/><path class="st0" d="M.8 3.1c3.3 13.3 8.9 25.3 16.7 35.5 23 30.2 62.7 43 104.9 34.5 1-.2 2.1-.4 3.1-.7-.3-1-.7-2-1-3C113 35.3 89.5 10.1 60.1 0H48c33.5 6.8 60.7 32.9 73.3 70C80.5 78.2 42.2 65.8 20 36.7 12.5 26.8 7 15.2 3.8 2.2c3-.9 6.1-1.6 9.1-2.2H0v3.4c.3-.1.5-.2.8-.3zM196.6 195.7l-2.1 2.4c-19.2 21.7-29.4 47.3-29.6 72.3h3.2c.2-24.2 10-48.9 28.5-70 18.5 21 28.3 45.8 28.5 70h3.2c-.2-25.1-10.4-50.6-29.6-72.3-.6-.8-1.3-1.6-2.1-2.4z"/></svg>