<svg xmlns="http://www.w3.org/2000/svg" xmlns:xlink="http://www.w3.org/1999/xlink" fill="#373737" width="1517.636" height="1517.65" viewBox="0 0 1517.636 1517.65"><path d="M67.749 29.0629L7.98908e-05 29.0629L8.0113e-05 34.1459L62.69 34.1459L20.838 75.994C14.9654 81.8847 7.84443 86.381 0.00105908 89.1503L0.00105931 94.4891C9.21097 91.5282 17.581 86.4111 24.4151 79.5638L103.995 -0.0157516L96.838 -0.0157513L67.749 29.0629ZM467.065 142.804L559.403 50.453C564.569 45.2657 570.712 41.1538 577.477 38.3548C584.242 35.5559 591.495 34.1252 598.816 34.1458L821.516 34.1458L779.664 75.994C774.497 81.182 768.354 85.2948 761.588 88.0941C754.822 90.8934 747.569 92.3239 740.247 92.3031L662.053 92.3031C654.064 92.2835 646.151 93.8483 638.771 96.9071C631.391 99.9659 624.691 104.458 619.059 110.123L526.722 202.441C521.561 207.639 515.419 211.76 508.653 214.565C501.886 217.37 494.63 218.803 487.305 218.781L386.019 218.781L340.59 173.362C335.222 167.98 328.887 163.658 321.918 160.624L424.069 160.624C432.058 160.643 439.971 159.079 447.351 156.02C454.731 152.961 461.431 148.469 467.063 142.804L467.065 142.804ZM846.48 142.804L938.816 50.4539C943.983 45.2658 950.126 41.1535 956.892 38.3543C963.658 35.5552 970.911 34.1245 978.233 34.1458L1200.93 34.1458L1159.08 75.994C1153.91 81.1822 1147.77 85.2948 1141 88.0941C1134.23 90.8934 1126.98 92.3239 1119.65 92.3031L1041.47 92.3031C1033.48 92.2835 1025.57 93.8483 1018.19 96.9071C1010.81 99.9658 1004.11 104.458 998.473 110.123L906.136 202.438C900.976 207.636 894.834 211.757 888.068 214.562C881.302 217.367 874.046 218.8 866.722 218.778L765.436 218.778L720.007 173.359C714.639 167.977 708.304 163.655 701.335 160.621L803.486 160.621C811.475 160.64 819.388 159.075 826.768 156.016C834.147 152.958 840.847 148.466 846.48 142.801L846.48 142.804ZM1056.43 160.624C1063.75 160.603 1071 162.034 1077.77 164.833C1084.53 167.633 1090.68 171.745 1095.85 176.933L1188.18 269.251C1193.81 274.921 1200.51 279.416 1207.89 282.475C1215.27 285.535 1223.19 287.097 1231.18 287.071L1309.38 287.071C1316.7 287.057 1323.95 288.494 1330.72 291.299C1337.48 294.103 1343.63 298.22 1348.79 303.412L1390.64 345.26L1167.94 345.26C1160.61 345.274 1153.36 343.837 1146.6 341.033C1139.83 338.228 1133.69 334.111 1128.52 328.92L1036.19 236.602C1030.55 230.937 1023.85 226.445 1016.47 223.386C1009.09 220.327 1001.18 218.762 993.192 218.782L891.041 218.782C898.005 215.735 904.338 211.415 909.717 206.044L955.143 160.625L1056.43 160.624ZM1270.1 350.311C1263.13 353.356 1256.8 357.677 1251.42 363.049L1205.99 408.5L1104.71 408.5C1097.39 408.515 1090.13 407.079 1083.36 404.275C1076.6 401.47 1070.45 397.353 1065.29 392.16L972.95 299.81C967.312 294.155 960.61 289.672 953.231 286.619C945.852 283.566 937.942 282.004 929.956 282.022L851.762 282.022C844.438 282.036 837.184 280.6 830.419 277.795C823.653 274.991 817.51 270.873 812.345 265.681L770.496 223.832L993.196 223.832C1000.52 223.817 1007.77 225.253 1014.54 228.058C1021.31 230.863 1027.45 234.981 1032.61 240.173L1124.95 332.491C1130.58 338.156 1137.28 342.648 1144.66 345.707C1152.04 348.766 1159.95 350.331 1167.94 350.311L1270.1 350.311ZM1395.7 350.311L1441.12 395.73C1446.5 401.112 1452.84 405.443 1459.8 408.5L1357.64 408.5C1349.66 408.474 1341.75 410.034 1334.37 413.087C1326.99 416.141 1320.29 420.627 1314.66 426.288L1222.31 518.638C1217.15 523.827 1211 527.94 1204.24 530.74C1197.47 533.539 1190.22 534.969 1182.9 534.947L960.197 534.947L1002.05 493.098C1007.22 487.91 1013.36 483.797 1020.12 480.997C1026.89 478.198 1034.14 476.768 1041.47 476.789L1119.65 476.789C1127.64 476.809 1135.56 475.244 1142.94 472.185C1150.32 469.127 1157.02 464.635 1162.65 458.969L1254.98 366.651C1260.15 361.453 1266.29 357.331 1273.06 354.526C1279.83 351.721 1287.08 350.287 1294.41 350.31L1395.7 350.311ZM1056.43 539.998C1063.75 539.983 1071.01 541.42 1077.77 544.224C1084.54 547.029 1090.68 551.147 1095.84 556.339L1188.18 648.689C1193.81 654.349 1200.51 658.836 1207.89 661.889C1215.27 664.942 1223.19 666.502 1231.18 666.478L1309.38 666.478C1316.7 666.456 1323.95 667.89 1330.72 670.695C1337.49 673.5 1343.63 677.621 1348.79 682.818L1390.64 724.667L1167.94 724.667C1160.61 724.688 1153.36 723.255 1146.59 720.45C1139.83 717.644 1133.68 713.523 1128.52 708.326L1036.19 616.008C1030.55 610.343 1023.85 605.851 1016.47 602.792C1009.09 599.733 1001.18 598.168 993.192 598.188L891.041 598.188C898.011 595.153 904.347 590.831 909.717 585.45L955.143 539.998L1056.43 539.998ZM1270.1 729.717C1263.12 732.75 1256.79 737.072 1251.42 742.455L1205.99 787.906L1104.71 787.906C1097.38 787.921 1090.13 786.485 1083.36 783.68C1076.6 780.876 1070.45 776.759 1065.29 771.566L972.949 679.247C967.321 673.576 960.622 669.08 953.241 666.021C945.86 662.962 937.945 661.4 929.955 661.427L851.761 661.427C844.439 661.448 837.186 660.017 830.421 657.218C823.655 654.418 817.511 650.306 812.344 645.119L770.495 603.238L993.195 603.238C1000.52 603.223 1007.77 604.659 1014.54 607.463C1021.3 610.268 1027.45 614.385 1032.61 619.578L1124.95 711.896C1130.58 717.567 1137.28 722.063 1144.66 725.122C1152.04 728.182 1159.95 729.743 1167.94 729.716L1270.1 729.717ZM1395.7 729.717L1441.12 775.138C1446.5 780.52 1452.84 784.851 1459.8 787.908L1357.64 787.908C1349.66 787.883 1341.75 789.442 1334.37 792.495C1326.99 795.548 1320.29 800.036 1314.66 805.696L1222.31 898.047C1217.15 903.24 1211.01 907.358 1204.24 910.163C1197.47 912.968 1190.22 914.403 1182.9 914.387L960.197 914.387L1002.05 872.506C1007.22 867.318 1013.36 863.205 1020.12 860.406C1026.89 857.607 1034.14 856.177 1041.47 856.198L1119.65 856.198C1127.64 856.219 1135.56 854.655 1142.94 851.597C1150.32 848.538 1157.02 844.045 1162.65 838.378L1254.98 746.059C1260.15 740.861 1266.29 736.739 1273.06 733.934C1279.83 731.129 1287.08 729.697 1294.41 729.719L1395.7 729.717ZM1056.43 919.438C1063.75 919.417 1071 920.848 1077.77 923.647C1084.53 926.446 1090.68 930.558 1095.85 935.746L1188.18 1028.1C1193.81 1033.76 1200.51 1038.24 1207.89 1041.3C1215.28 1044.35 1223.19 1045.91 1231.18 1045.88L1309.38 1045.88C1316.7 1045.87 1323.95 1047.31 1330.72 1050.11C1337.48 1052.92 1343.62 1057.03 1348.79 1062.22L1390.64 1104.07L1167.94 1104.07C1160.61 1104.09 1153.36 1102.65 1146.6 1099.85C1139.83 1097.04 1133.69 1092.92 1128.52 1087.73L1036.19 995.415C1030.55 989.75 1023.85 985.258 1016.47 982.199C1009.09 979.14 1001.18 977.575 993.192 977.595L891.041 977.595C898.011 974.56 904.347 970.239 909.717 964.857L955.143 919.438L1056.43 919.438ZM1270.1 1109.12C1263.13 1112.18 1256.8 1116.51 1251.42 1121.89L1205.99 1167.31L1104.71 1167.31C1097.39 1167.33 1090.13 1165.89 1083.36 1163.09C1076.6 1160.28 1070.45 1156.17 1065.29 1150.97L972.95 1058.66C967.318 1052.99 960.618 1048.5 953.238 1045.44C945.858 1042.38 937.945 1040.82 929.956 1040.83L851.762 1040.83C844.437 1040.86 837.181 1039.42 830.414 1036.62C823.648 1033.81 817.506 1029.69 812.345 1024.49L770.496 982.679L993.196 982.679C1000.52 982.658 1007.77 984.088 1014.54 986.888C1021.3 989.687 1027.45 993.8 1032.61 998.988L1124.95 1091.31C1130.58 1096.98 1137.28 1101.47 1144.66 1104.53C1152.04 1107.59 1159.95 1109.15 1167.94 1109.13L1270.1 1109.12ZM1395.7 1109.12L1441.12 1154.58C1446.5 1159.95 1452.84 1164.27 1459.8 1167.31L1357.64 1167.31C1349.65 1167.29 1341.74 1168.85 1334.36 1171.91C1326.98 1174.97 1320.28 1179.46 1314.66 1185.13L1222.31 1277.45C1217.15 1282.64 1211 1286.75 1204.24 1289.55C1197.47 1292.35 1190.22 1293.78 1182.9 1293.76L960.197 1293.76L1002.05 1251.94C1007.21 1246.74 1013.35 1242.62 1020.12 1239.82C1026.88 1237.01 1034.14 1235.58 1041.47 1235.6L1119.65 1235.6C1127.64 1235.62 1135.56 1234.06 1142.94 1231C1150.32 1227.94 1157.02 1223.45 1162.65 1217.78L1254.98 1125.46C1260.15 1120.27 1266.3 1116.15 1273.06 1113.35C1279.83 1110.54 1287.09 1109.11 1294.41 1109.12L1395.7 1109.12ZM1056.43 1298.84C1063.75 1298.82 1071 1300.25 1077.77 1303.05C1084.53 1305.85 1090.68 1309.96 1095.85 1315.15L1188.18 1407.5C1193.81 1413.16 1200.51 1417.65 1207.89 1420.71C1215.27 1423.77 1223.19 1425.34 1231.18 1425.32L1309.38 1425.32C1316.7 1425.3 1323.95 1426.73 1330.71 1429.53C1337.48 1432.33 1343.62 1436.44 1348.79 1441.63L1390.64 1483.47L1167.94 1483.47C1160.62 1483.49 1153.36 1482.06 1146.6 1479.26C1139.83 1476.46 1133.69 1472.35 1128.52 1467.17L1036.19 1374.82C1030.55 1369.15 1023.85 1364.66 1016.47 1361.6C1009.09 1358.54 1001.18 1356.98 993.192 1356.99L891.041 1356.99C898.011 1353.96 904.347 1349.64 909.717 1344.26L955.143 1298.84L1056.43 1298.84ZM808.771 1407.5C814.403 1413.16 821.102 1417.66 828.482 1420.71C835.861 1423.77 843.774 1425.34 851.762 1425.32L929.956 1425.32C937.278 1425.3 944.532 1426.73 951.297 1429.53C958.063 1432.33 964.207 1436.44 969.373 1441.63L1011.23 1483.48L788.525 1483.48C781.203 1483.5 773.95 1482.07 767.184 1479.27C760.418 1476.47 754.275 1472.36 749.108 1467.17L656.767 1374.82C651.135 1369.15 644.435 1364.66 637.055 1361.6C629.675 1358.54 621.762 1356.98 613.773 1357L511.626 1357C518.597 1353.96 524.933 1349.64 530.302 1344.26L575.728 1298.84L677.016 1298.84C684.338 1298.82 691.591 1300.25 698.357 1303.05C705.123 1305.85 711.267 1309.96 716.433 1315.15L808.771 1407.5ZM429.356 1407.5C434.988 1413.16 441.688 1417.66 449.068 1420.71C456.448 1423.77 464.361 1425.34 472.35 1425.32L550.541 1425.32C557.863 1425.3 565.117 1426.73 571.882 1429.53C578.648 1432.33 584.792 1436.44 589.958 1441.63L631.81 1483.48L409.11 1483.48C401.788 1483.5 394.535 1482.07 387.769 1479.27C381.003 1476.47 374.859 1472.36 369.693 1467.17L277.356 1374.82C271.723 1369.15 265.023 1364.66 257.644 1361.6C250.264 1358.54 242.351 1356.98 234.362 1357L132.216 1357C139.185 1353.96 145.52 1349.64 150.889 1344.26L196.316 1298.84L297.605 1298.84C304.926 1298.82 312.179 1300.25 318.945 1303.05C325.71 1305.85 331.853 1309.96 337.019 1315.15L429.356 1407.5ZM201.375 1293.76L243.224 1251.94C248.385 1246.74 254.527 1242.62 261.293 1239.82C268.06 1237.01 275.316 1235.58 282.641 1235.6L360.841 1235.6C368.829 1235.62 376.742 1234.05 384.121 1230.99C391.5 1227.94 398.2 1223.44 403.832 1217.78L496.173 1125.46C501.338 1120.27 507.48 1116.15 514.245 1113.35C521.01 1110.54 528.264 1109.11 535.587 1109.12L636.873 1109.12L682.302 1154.57C687.679 1159.94 694.012 1164.26 700.975 1167.31L598.816 1167.31C590.826 1167.28 582.911 1168.84 575.53 1171.9C568.149 1174.96 561.45 1179.46 555.822 1185.13L463.485 1277.45C458.319 1282.64 452.175 1286.75 445.409 1289.55C438.643 1292.35 431.39 1293.78 424.068 1293.76L201.375 1293.76ZM345.875 1167.31C338.551 1167.33 331.297 1165.89 324.531 1163.08C317.766 1160.28 311.623 1156.16 306.458 1150.97L214.121 1058.65C208.489 1052.99 201.788 1048.49 194.409 1045.44C187.029 1042.38 179.116 1040.81 171.127 1040.83L92.933 1040.83C85.6081 1040.85 78.3517 1039.42 71.5851 1036.62C64.8185 1033.81 58.6765 1029.69 53.516 1024.49L11.6639 982.675L234.364 982.675C241.685 982.654 248.938 984.085 255.704 986.884C262.469 989.683 268.612 993.796 273.778 998.984L366.119 1091.3C371.747 1096.97 378.446 1101.47 385.827 1104.53C393.208 1107.59 401.123 1109.15 409.113 1109.12L511.264 1109.12C504.299 1112.18 497.967 1116.51 492.591 1121.89L447.162 1167.31L345.875 1167.31ZM234.363 977.591L132.216 977.591C139.185 974.556 145.52 970.234 150.889 964.853L196.316 919.438L297.605 919.438C304.925 919.416 312.177 920.846 318.942 923.643C325.706 926.441 331.85 930.552 337.016 935.738L429.356 1028.09C434.99 1033.75 441.691 1038.24 449.071 1041.29C456.451 1044.34 464.363 1045.9 472.35 1045.88L550.541 1045.88C557.865 1045.86 565.119 1047.3 571.885 1050.1C578.65 1052.91 584.793 1057.02 589.958 1062.22L631.81 1104.07L409.11 1104.07C401.786 1104.08 394.532 1102.64 387.766 1099.84C381.001 1097.04 374.858 1092.92 369.693 1087.72L277.356 995.407C271.723 989.744 265.024 985.253 257.645 982.195C250.266 979.137 242.354 977.573 234.366 977.592L234.363 977.591ZM201.373 914.384L243.222 872.503C248.389 867.316 254.533 863.203 261.298 860.404C268.064 857.604 275.317 856.174 282.639 856.194L360.839 856.194C368.827 856.213 376.74 854.648 384.119 851.589C391.498 848.53 398.198 844.039 403.83 838.374L496.171 746.056C501.331 740.858 507.473 736.737 514.239 733.932C521.005 731.127 528.261 729.694 535.585 729.716L636.871 729.716L682.298 775.138C687.674 780.52 694.006 784.85 700.971 787.908L598.816 787.908C590.829 787.883 582.917 789.442 575.537 792.495C568.157 795.549 561.456 800.036 555.822 805.696L463.485 898.047C458.32 903.24 452.177 907.357 445.412 910.161C438.646 912.966 431.392 914.402 424.068 914.387L201.373 914.384ZM345.873 787.905C338.549 787.92 331.295 786.484 324.529 783.68C317.764 780.875 311.621 776.757 306.456 771.565L214.119 679.247C208.491 673.576 201.792 669.081 194.411 666.021C187.03 662.962 179.115 661.4 171.125 661.427L92.931 661.427C85.6091 661.448 78.3555 660.018 71.5898 657.219C64.8241 654.419 58.6805 650.306 53.514 645.118L11.662 603.238L234.362 603.238C241.685 603.223 248.939 604.659 255.704 607.464C262.469 610.268 268.611 614.386 273.776 619.578L366.117 711.896C371.745 717.567 378.444 722.063 385.825 725.122C393.206 728.182 401.121 729.743 409.111 729.716L511.262 729.716C504.292 732.75 497.957 737.072 492.589 742.454L447.16 787.905L345.873 787.905ZM234.361 598.187L132.216 598.187C139.185 595.151 145.52 590.83 150.889 585.449L196.315 539.997L297.604 539.997C304.927 539.983 312.18 541.419 318.945 544.224C325.71 547.029 331.852 551.146 337.016 556.338L429.356 648.688C434.99 654.349 441.691 658.836 449.071 661.889C456.451 664.942 464.363 666.501 472.35 666.476L550.541 666.476C557.866 666.453 565.122 667.886 571.889 670.691C578.656 673.496 584.797 677.618 589.958 682.816L631.81 724.665L409.11 724.665C401.785 724.688 394.529 723.255 387.762 720.45C380.995 717.645 374.854 713.523 369.693 708.325L277.356 616.006C271.723 610.342 265.023 605.85 257.643 602.791C250.264 599.732 242.351 598.167 234.362 598.186L234.361 598.187ZM201.371 534.948L243.22 493.099C248.387 487.911 254.531 483.799 261.296 481C268.062 478.201 275.315 476.77 282.637 476.791L360.837 476.791C368.825 476.81 376.738 475.245 384.117 472.186C391.496 469.128 398.196 464.636 403.828 458.971L496.169 366.653C501.329 361.455 507.47 357.333 514.237 354.528C521.003 351.723 528.258 350.29 535.583 350.312L636.869 350.312L682.298 395.732C687.674 401.114 694.006 405.444 700.971 408.502L598.816 408.502C590.829 408.477 582.917 410.036 575.537 413.09C568.158 416.143 561.456 420.63 555.822 426.29L463.485 518.64C458.318 523.828 452.175 527.941 445.409 530.74C438.643 533.539 431.39 534.97 424.068 534.949L201.371 534.948ZM345.871 408.501C338.547 408.516 331.293 407.08 324.527 404.275C317.762 401.471 311.619 397.353 306.454 392.161L214.117 299.81C208.478 294.155 201.776 289.672 194.398 286.619C187.019 283.567 179.109 282.004 171.123 282.022L92.929 282.022C85.6052 282.037 78.351 280.601 71.5854 277.796C64.8199 274.992 58.6771 270.874 53.5121 265.682L11.66 223.833L234.36 223.833C241.683 223.818 248.937 225.254 255.702 228.059C262.467 230.864 268.609 234.981 273.774 240.173L366.115 332.491C371.747 338.156 378.447 342.648 385.827 345.707C393.207 348.766 401.12 350.33 409.109 350.311L511.26 350.311C504.297 353.357 497.964 357.677 492.587 363.049L447.158 408.5L345.871 408.501ZM788.522 345.262C781.198 345.277 773.944 343.841 767.178 341.036C760.413 338.232 754.27 334.115 749.105 328.922L656.764 236.604C651.132 230.938 644.432 226.447 637.052 223.388C629.672 220.329 621.759 218.763 613.77 218.783L511.626 218.783C518.59 215.737 524.924 211.418 530.302 206.046L575.728 160.626L677.016 160.626C684.338 160.605 691.591 162.035 698.357 164.835C705.123 167.634 711.266 171.747 716.433 176.935L808.774 269.253C814.402 274.924 821.1 279.42 828.481 282.479C835.861 285.538 843.776 287.1 851.765 287.073L929.959 287.073C937.283 287.058 944.537 288.494 951.303 291.299C958.068 294.103 964.211 298.22 969.376 303.413L1011.23 345.262L788.522 345.262ZM871.998 363.05L826.569 408.501L725.286 408.501C717.962 408.516 710.708 407.08 703.942 404.276C697.177 401.471 691.034 397.353 685.869 392.161L593.532 299.81C587.892 294.155 581.189 289.672 573.81 286.619C566.43 283.566 558.518 282.004 550.532 282.022L472.341 282.022C465.017 282.037 457.762 280.601 450.996 277.796C444.23 274.992 438.087 270.874 432.921 265.682L391.072 223.833L613.772 223.833C621.096 223.818 628.35 225.254 635.116 228.058C641.881 230.863 648.024 234.981 653.189 240.173L745.53 332.491C751.162 338.156 757.862 342.648 765.242 345.707C772.622 348.766 780.535 350.331 788.524 350.311L890.676 350.311C883.712 353.357 877.378 357.677 872 363.049L871.998 363.05ZM467.059 522.21L559.397 429.892C564.558 424.694 570.7 420.573 577.466 417.768C584.233 414.963 591.489 413.53 598.814 413.552L821.514 413.552L779.662 455.401C774.495 460.589 768.352 464.701 761.586 467.501C754.82 470.3 747.567 471.731 740.245 471.71L662.051 471.71C654.062 471.69 646.149 473.256 638.769 476.314C631.389 479.373 624.689 483.865 619.057 489.53L526.72 581.881C521.553 587.069 515.409 591.181 508.644 593.98C501.878 596.779 494.625 598.21 487.303 598.189L386.017 598.189L340.588 552.77C335.213 547.388 328.88 543.057 321.916 539.999L424.067 539.999C432.054 540.024 439.966 538.466 447.346 535.412C454.726 532.359 461.427 527.872 467.061 522.211L467.059 522.21ZM788.522 724.667C781.197 724.689 773.941 723.257 767.174 720.452C760.407 717.646 754.265 713.525 749.105 708.326L656.764 616.008C651.132 610.343 644.432 605.85 637.052 602.791C629.672 599.732 621.759 598.167 613.77 598.187L511.626 598.187C518.597 595.153 524.933 590.832 530.302 585.45L575.728 539.998L677.016 539.998C684.34 539.983 691.594 541.419 698.36 544.224C705.125 547.029 711.268 551.146 716.433 556.339L808.774 648.689C814.408 654.349 821.108 658.836 828.488 661.889C835.867 664.943 843.779 666.502 851.765 666.477L929.959 666.477C937.284 666.454 944.541 667.887 951.307 670.693C958.074 673.498 964.216 677.62 969.376 682.818L1011.23 724.666L788.522 724.667ZM871.998 742.455L826.569 787.907L725.286 787.907C717.962 787.922 710.708 786.486 703.942 783.681C697.177 780.876 691.034 776.759 685.869 771.566L593.532 679.248C587.903 673.577 581.203 669.081 573.821 666.021C566.439 662.962 558.523 661.4 550.532 661.427L472.341 661.427C465.019 661.448 457.765 660.017 450.999 657.218C444.233 654.419 438.088 650.306 432.921 645.118L391.072 603.237L613.772 603.237C621.096 603.222 628.35 604.658 635.116 607.463C641.881 610.267 648.024 614.385 653.189 619.577L745.53 711.895C751.158 717.566 757.857 722.062 765.238 725.121C772.619 728.181 780.534 729.742 788.524 729.715L890.676 729.715C883.705 732.749 877.369 737.071 872 742.453L871.998 742.455ZM467.059 901.616L559.397 809.266C564.564 804.078 570.708 799.965 577.474 797.165C584.24 794.366 591.494 792.935 598.816 792.956L821.516 792.956L779.664 834.805C774.499 839.998 768.356 844.115 761.591 846.92C754.825 849.725 747.571 851.161 740.247 851.146L662.053 851.146C654.066 851.12 646.154 852.679 638.774 855.733C631.394 858.786 624.693 863.273 619.059 868.934L526.722 961.284C521.556 966.472 515.412 970.585 508.646 973.385C501.881 976.184 494.627 977.614 487.305 977.593L386.019 977.593L340.59 932.174C335.221 926.793 328.886 922.471 321.916 919.438L424.067 919.438C432.056 919.458 439.969 917.893 447.349 914.834C454.729 911.775 461.429 907.283 467.061 901.618L467.059 901.616ZM788.522 1104.07C781.198 1104.09 773.944 1102.65 767.178 1099.85C760.413 1097.04 754.27 1092.93 749.105 1087.73L656.764 995.415C651.132 989.75 644.432 985.258 637.052 982.199C629.672 979.14 621.759 977.575 613.77 977.595L511.626 977.595C518.597 974.561 524.933 970.24 530.302 964.857L575.728 919.438L677.016 919.438C684.338 919.417 691.591 920.847 698.357 923.647C705.123 926.446 711.267 930.559 716.433 935.747L808.774 1028.1C814.407 1033.76 821.108 1038.24 828.487 1041.3C835.867 1044.35 843.779 1045.91 851.765 1045.89L929.959 1045.89C937.283 1045.87 944.537 1047.31 951.303 1050.11C958.068 1052.92 964.211 1057.03 969.376 1062.23L1011.23 1104.07L788.522 1104.07ZM871.998 1121.89L826.569 1167.31L725.286 1167.31C717.962 1167.33 710.708 1165.89 703.942 1163.09C697.177 1160.28 691.034 1156.16 685.869 1150.97L593.532 1058.65C587.898 1052.99 581.197 1048.5 573.817 1045.44C566.436 1042.38 558.522 1040.81 550.532 1040.83L472.341 1040.83C465.016 1040.86 457.759 1039.42 450.992 1036.62C444.225 1033.81 438.082 1029.69 432.921 1024.49L391.072 982.677L613.772 982.677C621.094 982.656 628.347 984.086 635.113 986.886C641.879 989.685 648.023 993.798 653.189 998.986L745.53 1091.3C751.158 1096.98 757.857 1101.47 765.238 1104.53C772.619 1107.59 780.534 1109.15 788.524 1109.12L890.676 1109.12C883.71 1112.18 877.377 1116.51 872 1121.89L871.998 1121.89ZM467.059 1281.02L559.397 1188.7C564.558 1183.5 570.7 1179.38 577.467 1176.58C584.234 1173.77 591.491 1172.34 598.816 1172.36L821.516 1172.36L779.664 1214.21C774.499 1219.4 768.357 1223.52 761.591 1226.33C754.825 1229.13 747.571 1230.57 740.247 1230.55L662.053 1230.55C654.066 1230.53 646.154 1232.08 638.774 1235.14C631.394 1238.19 624.693 1242.68 619.059 1248.34L526.722 1340.69C521.556 1345.88 515.412 1349.99 508.646 1352.79C501.881 1355.59 494.627 1357.02 487.305 1357L386.019 1357L340.59 1311.58C335.222 1306.2 328.886 1301.87 321.916 1298.84L424.067 1298.84C432.056 1298.86 439.969 1297.29 447.349 1294.23C454.729 1291.17 461.429 1286.68 467.061 1281.02L467.059 1281.02ZM998.47 1248.34L906.129 1340.69C900.963 1345.88 894.82 1349.99 888.054 1352.79C881.289 1355.59 874.036 1357.02 866.715 1357L765.436 1357L720.007 1311.58C714.639 1306.2 708.304 1301.88 701.335 1298.84L803.486 1298.84C811.475 1298.86 819.388 1297.3 826.768 1294.24C834.148 1291.18 840.847 1286.69 846.48 1281.02L938.816 1188.7C943.977 1183.5 950.118 1179.38 956.885 1176.58C963.652 1173.77 970.908 1172.34 978.233 1172.36L1200.93 1172.36L1159.08 1214.21C1153.91 1219.4 1147.77 1223.52 1141 1226.33C1134.24 1229.13 1126.98 1230.57 1119.65 1230.55L1041.47 1230.55C1033.48 1230.53 1025.57 1232.08 1018.19 1235.14C1010.81 1238.19 1004.11 1242.68 998.473 1248.34L998.47 1248.34ZM935.234 1185.13L842.897 1277.45C837.73 1282.64 831.586 1286.75 824.821 1289.55C818.055 1292.35 810.802 1293.78 803.48 1293.76L580.78 1293.76L622.629 1251.94C627.79 1246.75 633.931 1242.62 640.698 1239.82C647.465 1237.01 654.721 1235.58 662.046 1235.6L740.24 1235.6C748.229 1235.62 756.142 1234.06 763.522 1231C770.902 1227.94 777.602 1223.45 783.234 1217.78L875.571 1125.46C880.736 1120.27 886.879 1116.15 893.645 1113.35C900.41 1110.55 907.664 1109.11 914.988 1109.12L1016.27 1109.12L1061.7 1154.57C1067.08 1159.95 1073.41 1164.27 1080.38 1167.31L978.225 1167.31C970.237 1167.29 962.323 1168.85 954.944 1171.91C947.565 1174.97 940.867 1179.46 935.24 1185.13L935.234 1185.13ZM998.47 868.934L906.129 961.284C900.963 966.472 894.82 970.585 888.055 973.385C881.29 976.184 874.037 977.614 866.715 977.593L765.436 977.593L720.007 932.174C714.639 926.793 708.304 922.471 701.335 919.436L803.486 919.436C811.475 919.455 819.388 917.89 826.768 914.831C834.147 911.773 840.847 907.281 846.48 901.616L938.816 809.264C943.983 804.076 950.126 799.963 956.892 797.164C963.658 794.365 970.911 792.935 978.233 792.956L1200.93 792.956L1159.08 834.804C1153.91 839.997 1147.77 844.115 1141 846.919C1134.24 849.724 1126.98 851.16 1119.65 851.145L1041.47 851.145C1033.48 851.119 1025.57 852.678 1018.19 855.732C1010.81 858.785 1004.11 863.272 998.473 868.933L998.47 868.934ZM935.234 805.695L842.897 898.046C837.732 903.238 831.589 907.355 824.823 910.16C818.058 912.965 810.804 914.401 803.48 914.386L580.78 914.386L622.629 872.505C627.796 867.317 633.939 863.204 640.705 860.405C647.471 857.606 654.724 856.176 662.046 856.197L740.24 856.197C748.229 856.217 756.142 854.652 763.522 851.593C770.902 848.534 777.602 844.041 783.234 838.376L875.571 746.058C880.732 740.86 886.874 736.739 893.64 733.933C900.407 731.128 907.663 729.695 914.988 729.717L1016.27 729.717L1061.72 775.138C1067.09 780.52 1073.42 784.85 1080.39 787.908L978.238 787.908C970.251 787.882 962.338 789.44 954.957 792.493C947.576 795.546 940.875 800.033 935.24 805.694L935.234 805.695ZM998.47 489.53L906.129 581.88C900.963 587.068 894.82 591.18 888.055 593.98C881.289 596.779 874.037 598.21 866.715 598.189L765.436 598.189L720.007 552.77C714.632 547.388 708.299 543.057 701.335 539.999L803.486 539.999C811.473 540.024 819.385 538.465 826.765 535.411C834.145 532.358 840.846 527.872 846.48 522.211L938.816 429.892C943.976 424.693 950.118 420.572 956.885 417.766C963.652 414.961 970.908 413.529 978.233 413.551L1200.93 413.551L1159.08 455.4C1153.91 460.588 1147.77 464.701 1141 467.5C1134.23 470.299 1126.98 471.73 1119.65 471.709L1041.47 471.709C1033.48 471.689 1025.57 473.254 1018.19 476.313C1010.81 479.372 1004.11 483.864 998.473 489.529L998.47 489.53ZM935.234 426.29L842.897 518.64C837.73 523.828 831.586 527.94 824.821 530.74C818.055 533.539 810.802 534.97 803.48 534.949L580.78 534.949L622.629 493.1C627.795 487.912 633.939 483.799 640.705 480.999C647.471 478.2 654.724 476.77 662.046 476.791L740.24 476.791C748.229 476.811 756.142 475.246 763.522 472.187C770.902 469.128 777.602 464.636 783.234 458.971L875.571 366.653C880.732 361.455 886.874 357.334 893.64 354.529C900.407 351.723 907.663 350.29 914.988 350.312L1016.27 350.312L1061.7 395.731C1067.08 401.112 1073.41 405.443 1080.38 408.501L978.225 408.501C970.24 408.476 962.329 410.036 954.951 413.09C947.572 416.143 940.873 420.629 935.24 426.289L935.234 426.29ZM234.359 218.783L132.216 218.783C139.178 215.736 145.511 211.417 150.889 206.046L196.315 160.626L297.604 160.626C304.925 160.606 312.178 162.037 318.943 164.837C325.708 167.637 331.85 171.75 337.016 176.938L429.356 269.256C434.984 274.927 441.683 279.423 449.064 282.482C456.445 285.541 464.36 287.103 472.35 287.076L550.541 287.076C557.865 287.061 565.119 288.497 571.885 291.302C578.65 294.107 584.793 298.224 589.958 303.417L631.81 345.264L409.11 345.264C401.786 345.279 394.532 343.844 387.766 341.039C381.001 338.234 374.858 334.117 369.693 328.924L277.356 236.606C271.723 230.941 265.023 226.45 257.643 223.391C250.264 220.332 242.351 218.767 234.362 218.786L234.359 218.783ZM321.553 29.0648L219.398 29.0648C211.41 29.0454 203.497 30.6105 196.118 33.6693C188.738 36.7281 182.039 41.2201 176.407 46.8851L84.066 139.236C78.8999 144.424 72.7567 148.536 65.9915 151.336C59.2264 154.135 51.9734 155.566 44.6519 155.545L-0.00797122 155.545L-0.007971 160.627L44.6519 160.627C52.6401 160.646 60.5528 159.081 67.9321 156.022C75.3114 152.964 82.0109 148.472 87.643 142.807L179.984 50.4559C185.15 45.2681 191.293 41.156 198.059 38.3568C204.824 35.5576 212.077 34.1269 219.398 34.1478L442.098 34.1478L400.246 75.9969C395.08 81.1847 388.937 85.2974 382.171 88.0965C375.406 90.8957 368.153 92.326 360.832 92.305L282.632 92.305C274.643 92.286 266.73 93.8513 259.351 96.91C251.971 99.9688 245.271 104.46 239.638 110.125L147.3 202.443C142.139 207.641 135.997 211.762 129.231 214.567C122.464 217.372 115.208 218.805 107.883 218.783L6.59701 218.783L-0.00992187 212.157L-0.00992156 219.33L49.932 269.253C55.5599 274.924 62.2591 279.42 69.64 282.479C77.0209 285.539 84.9363 287.1 92.926 287.073L171.12 287.073C178.444 287.059 185.698 288.495 192.463 291.3C199.229 294.104 205.372 298.222 210.537 303.414L252.389 345.263L29.6891 345.263C19.18 345.271 8.88341 342.304 -0.010893 336.707L-0.0108927 342.561C9.05557 347.661 19.2864 350.332 29.6891 350.313L131.84 350.313C124.877 353.359 118.544 357.679 113.167 363.051L67.738 408.502L-0.0108899 408.502L-0.0108896 413.552L62.6781 413.552L20.826 455.401C14.9531 461.292 7.83185 465.788 -0.0118638 468.557L-0.0118636 473.897C9.19837 470.935 17.5685 465.819 24.4029 458.971L116.744 366.653C121.904 361.455 128.046 357.333 134.813 354.528C141.58 351.722 148.836 350.289 156.161 350.312L257.444 350.312L302.873 395.731C308.249 401.113 314.583 405.444 321.549 408.501L219.394 408.501C211.408 408.475 203.496 410.035 196.116 413.088C188.737 416.142 182.037 420.628 176.403 426.289L84.062 518.639C78.8959 523.827 72.7527 527.94 65.9875 530.739C59.2224 533.538 51.9695 534.969 44.6481 534.948L-0.0118609 534.948L-0.0118607 539.998L44.6481 539.998C52.6343 540.023 60.5461 538.464 67.9255 535.41C75.305 532.357 82.0055 527.87 87.639 522.209L179.98 429.891C185.14 424.693 191.282 420.571 198.048 417.766C204.814 414.961 212.07 413.528 219.394 413.55L442.094 413.55L400.242 455.399C395.076 460.587 388.933 464.7 382.168 467.499C375.402 470.298 368.149 471.729 360.828 471.708L282.628 471.708C274.639 471.689 266.726 473.254 259.347 476.313C251.967 479.372 245.267 483.863 239.634 489.528L147.297 581.878C142.13 587.066 135.986 591.178 129.221 593.977C122.455 596.777 115.202 598.207 107.88 598.187L6.5941 598.187L-0.0130791 591.593L-0.0130788 598.738L49.9291 648.693C55.5631 654.354 62.264 658.841 69.644 661.894C77.024 664.948 84.9364 666.506 92.9231 666.481L171.117 666.481C178.442 666.459 185.698 667.892 192.465 670.697C199.231 673.502 205.373 677.623 210.534 682.821L252.386 724.67L29.6861 724.67C19.1698 724.698 8.86466 721.718 -0.0140502 716.082L-0.01405 722C9.06065 727.076 19.2881 729.735 29.6861 729.721L131.837 729.721C124.867 732.755 118.532 737.076 113.164 742.459L67.735 787.91L-0.0140471 787.91L-0.0140469 792.96L62.676 792.96L20.8241 834.808C14.9516 840.699 7.8304 845.195 -0.0130679 847.964L-0.0130677 853.303C9.19702 850.343 17.5672 845.226 24.401 838.378L116.742 746.06C121.903 740.861 128.044 736.74 134.811 733.934C141.577 731.129 148.834 729.697 156.159 729.719L257.442 729.719L302.884 775.138C308.26 780.52 314.594 784.851 321.56 787.908L219.405 787.908C211.419 787.883 203.507 789.442 196.128 792.495C188.748 795.549 182.048 800.036 176.414 805.696L84.073 898.046C78.9086 903.239 72.7664 907.356 66.0013 910.161C59.2363 912.966 51.9825 914.402 44.6591 914.387L-0.000857973 914.387L-0.000857752 919.437L44.6591 919.437C52.6472 919.456 60.56 917.892 67.9393 914.833C75.3187 911.774 82.0181 907.282 87.65 901.617L179.991 809.267C185.157 804.079 191.3 799.967 198.066 797.167C204.831 794.368 212.084 792.937 219.405 792.958L442.105 792.958L400.253 834.807C395.088 839.999 388.946 844.117 382.181 846.922C375.416 849.727 368.162 851.163 360.839 851.148L282.639 851.148C274.652 851.123 266.74 852.682 259.36 855.736C251.981 858.789 245.279 863.276 239.645 868.936L147.308 961.286C142.142 966.474 135.998 970.587 129.232 973.387C122.466 976.186 115.213 977.616 107.891 977.595L6.6051 977.595L-0.0020762 971.001L-0.00207589 978.138L49.9401 1028.09C55.5739 1033.75 62.2749 1038.24 69.6549 1041.29C77.0349 1044.35 84.9474 1045.91 92.9341 1045.88L171.128 1045.88C178.452 1045.87 185.706 1047.3 192.472 1050.11C199.237 1052.91 205.38 1057.03 210.545 1062.22L252.397 1104.07L29.6971 1104.07C19.1859 1104.09 8.8848 1101.13 -0.00304732 1095.52L-0.00304706 1101.4C9.06596 1106.49 19.2972 1109.15 29.6971 1109.12L131.848 1109.12C124.883 1112.18 118.551 1116.51 113.175 1121.89L67.7461 1167.31L-0.00304418 1167.31L-0.00304396 1172.36L62.687 1172.36L20.8351 1214.21C14.9641 1220.11 7.84319 1224.62 -0.00206499 1227.4L-0.00206476 1232.71C9.21365 1229.76 17.5865 1224.64 24.412 1217.78L116.753 1125.46C121.918 1120.27 128.061 1116.15 134.826 1113.35C141.592 1110.54 148.846 1109.11 156.17 1109.12L257.453 1109.12L302.882 1154.57C308.259 1159.94 314.593 1164.26 321.558 1167.31L219.403 1167.31C211.414 1167.28 203.499 1168.84 196.119 1171.9C188.738 1174.96 182.04 1179.46 176.412 1185.13L84.0711 1277.45C78.905 1282.64 72.7618 1286.75 65.9966 1289.55C59.2314 1292.35 51.9785 1293.78 44.6571 1293.76L-0.00303866 1293.76L-0.00303843 1298.84L44.6571 1298.84C52.6453 1298.86 60.5579 1297.29 67.9373 1294.23C75.3166 1291.17 82.0161 1286.68 87.6481 1281.02L179.989 1188.7C185.149 1183.5 191.29 1179.38 198.057 1176.58C204.823 1173.77 212.079 1172.34 219.403 1172.36L442.103 1172.36L400.251 1214.21C395.087 1219.4 388.944 1223.52 382.179 1226.32C375.414 1229.13 368.16 1230.56 360.837 1230.55L282.637 1230.55C274.651 1230.52 266.738 1232.08 259.359 1235.14C251.979 1238.19 245.278 1242.68 239.643 1248.34L147.306 1340.69C142.14 1345.88 135.996 1349.99 129.23 1352.79C122.465 1355.59 115.211 1357.02 107.889 1357L6.60317 1357L-0.00401274 1350.4L-0.00401243 1357.54L49.938 1407.49C55.5703 1413.16 62.2703 1417.65 69.6502 1420.71C77.03 1423.77 84.9433 1425.33 92.932 1425.31L171.126 1425.31C178.448 1425.29 185.701 1426.72 192.467 1429.52C199.233 1432.32 205.376 1436.44 210.543 1441.62L252.395 1483.47L29.695 1483.47C19.1838 1483.5 8.88287 1480.53 -0.00498386 1474.92L-0.0049836 1480.8C9.06739 1485.89 19.2943 1488.56 29.695 1488.55L131.846 1488.55C124.876 1491.59 118.541 1495.91 113.173 1501.29L96.8321 1517.63L103.989 1517.63L116.749 1504.86C121.911 1499.67 128.054 1495.55 134.821 1492.75C141.588 1489.95 148.843 1488.52 156.166 1488.55L257.449 1488.55L286.541 1517.63L293.695 1517.63L214.118 1438.05C208.485 1432.39 201.785 1427.89 194.406 1424.84C187.026 1421.78 179.113 1420.21 171.124 1420.23L92.9301 1420.23C85.6082 1420.25 78.3547 1418.82 71.589 1416.02C64.8233 1413.22 58.6796 1409.11 53.5131 1403.92L11.661 1362.07L234.361 1362.07C241.682 1362.05 248.935 1363.48 255.7 1366.28C262.466 1369.08 268.609 1373.19 273.775 1378.38L366.116 1470.74C371.748 1476.4 378.448 1480.9 385.828 1483.95C393.208 1487.01 401.121 1488.58 409.11 1488.56L511.261 1488.56C504.291 1491.59 497.956 1495.91 492.588 1501.3L476.247 1517.64L483.401 1517.64L496.165 1504.87C501.327 1499.67 507.469 1495.56 514.235 1492.76C521.001 1489.96 528.257 1488.53 535.579 1488.56L636.865 1488.56L665.953 1517.64L673.11 1517.64L593.533 1438.06C587.9 1432.39 581.199 1427.9 573.818 1424.84C566.437 1421.78 558.523 1420.22 550.533 1420.23L472.342 1420.23C465.02 1420.26 457.766 1418.83 451 1416.03C444.234 1413.23 438.089 1409.11 432.922 1403.93L391.073 1362.08L613.773 1362.08C621.095 1362.06 628.348 1363.49 635.114 1366.29C641.88 1369.09 648.024 1373.2 653.19 1378.39L745.531 1470.74C751.163 1476.4 757.863 1480.89 765.243 1483.95C772.623 1487.01 780.536 1488.58 788.525 1488.56L890.676 1488.56C883.705 1491.59 877.369 1495.91 872 1501.29L855.663 1517.63L862.816 1517.63L875.577 1504.86C880.739 1499.67 886.882 1495.55 893.649 1492.75C900.416 1489.95 907.671 1488.53 914.994 1488.56L1016.28 1488.56L1045.37 1517.63L1052.53 1517.63L972.945 1438.05C967.313 1432.39 960.613 1427.9 953.233 1424.84C945.853 1421.78 937.94 1420.21 929.951 1420.23L851.757 1420.23C844.435 1420.25 837.182 1418.82 830.416 1416.02C823.651 1413.22 817.507 1409.11 812.34 1403.92L770.491 1362.08L993.191 1362.08C1000.51 1362.05 1007.77 1363.48 1014.53 1366.28C1021.3 1369.08 1027.44 1373.2 1032.61 1378.38L1124.95 1470.73C1130.58 1476.4 1137.28 1480.89 1144.66 1483.95C1152.04 1487.01 1159.95 1488.57 1167.94 1488.56L1270.1 1488.55C1263.13 1491.59 1256.79 1495.91 1251.42 1501.29L1235.08 1517.64L1242.23 1517.64L1254.99 1504.87C1260.15 1499.67 1266.3 1495.56 1273.07 1492.76C1279.83 1489.96 1287.09 1488.53 1294.42 1488.56L1395.7 1488.56L1424.79 1517.64L1431.94 1517.64L1352.36 1438.06C1346.73 1432.39 1340.03 1427.9 1332.65 1424.84C1325.28 1421.78 1317.36 1420.22 1309.38 1420.24L1231.18 1420.24C1223.85 1420.26 1216.6 1418.83 1209.84 1416.03C1203.07 1413.23 1196.93 1409.12 1191.77 1403.93L1149.91 1362.08L1372.6 1362.08C1379.92 1362.06 1387.18 1363.49 1393.94 1366.29C1400.71 1369.09 1406.85 1373.2 1412.02 1378.39L1504.36 1470.74C1508.32 1474.68 1512.79 1478.07 1517.66 1480.81L1517.66 1474.92C1514.14 1472.7 1510.88 1470.1 1507.94 1467.17L1415.6 1374.82C1409.97 1369.16 1403.27 1364.66 1395.89 1361.6C1388.51 1358.55 1380.59 1356.98 1372.6 1357L1270.46 1357C1277.43 1353.96 1283.76 1349.64 1289.12 1344.26L1334.55 1298.84L1435.84 1298.84C1443.16 1298.82 1450.42 1300.25 1457.18 1303.05C1463.95 1305.85 1470.09 1309.96 1475.26 1315.15L1517.66 1357.55L1517.66 1350.41L1478.83 1311.58C1473.46 1306.2 1467.13 1301.88 1460.16 1298.85L1517.66 1298.85L1517.66 1293.76L1339.62 1293.76L1381.47 1251.95C1386.63 1246.75 1392.77 1242.63 1399.54 1239.82C1406.3 1237.02 1413.56 1235.58 1420.89 1235.61L1499.09 1235.61C1505.39 1235.61 1511.66 1234.63 1517.66 1232.71L1517.66 1227.4C1511.69 1229.49 1505.41 1230.55 1499.09 1230.55L1420.89 1230.55C1412.9 1230.53 1404.99 1232.08 1397.61 1235.14C1390.23 1238.19 1383.53 1242.68 1377.9 1248.34L1285.55 1340.69C1280.38 1345.88 1274.24 1349.99 1267.48 1352.79C1260.71 1355.59 1253.46 1357.02 1246.14 1357L1144.84 1357L1099.42 1311.58C1094.05 1306.2 1087.72 1301.88 1080.75 1298.84L1182.9 1298.84C1190.89 1298.86 1198.8 1297.29 1206.18 1294.24C1213.56 1291.18 1220.26 1286.69 1225.9 1281.02L1318.23 1188.7C1323.39 1183.51 1329.53 1179.38 1336.3 1176.58C1343.06 1173.77 1350.32 1172.34 1357.64 1172.36L1517.66 1172.36L1517.66 1167.31L1484.12 1167.31C1476.8 1167.33 1469.54 1165.89 1462.78 1163.09C1456.01 1160.28 1449.86 1156.16 1444.7 1150.97L1352.36 1058.65C1346.73 1052.99 1340.03 1048.5 1332.65 1045.44C1325.28 1042.38 1317.36 1040.81 1309.38 1040.83L1231.18 1040.83C1223.85 1040.86 1216.6 1039.42 1209.83 1036.62C1203.06 1033.81 1196.92 1029.69 1191.77 1024.49L1149.91 982.676L1372.6 982.676C1379.92 982.654 1387.18 984.084 1393.94 986.883C1400.71 989.683 1406.85 993.796 1412.02 998.985L1504.36 1091.3C1508.31 1095.26 1512.78 1098.66 1517.66 1101.4L1517.66 1095.52C1514.14 1093.29 1510.88 1090.68 1507.94 1087.73L1415.6 995.414C1409.97 989.749 1403.27 985.258 1395.89 982.199C1388.51 979.14 1380.59 977.575 1372.6 977.594L1270.46 977.594C1277.43 974.56 1283.76 970.238 1289.12 964.856L1334.55 919.437L1435.84 919.437C1443.16 919.415 1450.42 920.844 1457.18 923.642C1463.95 926.44 1470.09 930.551 1475.26 935.738L1517.66 978.138L1517.66 970.996L1478.83 932.171C1473.46 926.788 1467.13 922.467 1460.16 919.433L1517.66 919.433L1517.66 914.383L1339.62 914.383L1381.47 872.502C1386.64 867.313 1392.78 863.2 1399.54 860.401C1406.31 857.601 1413.56 856.172 1420.89 856.194L1499.09 856.194C1505.39 856.196 1511.66 855.217 1517.66 853.294L1517.66 847.955C1511.7 850.068 1505.41 851.145 1499.08 851.138L1420.88 851.138C1412.9 851.112 1404.98 852.671 1397.61 855.724C1390.23 858.778 1383.53 863.265 1377.9 868.926L1285.55 961.277C1280.38 966.465 1274.24 970.577 1267.47 973.377C1260.71 976.176 1253.46 977.607 1246.13 977.586L1144.84 977.586L1099.42 932.167C1094.05 926.785 1087.72 922.463 1080.75 919.429L1182.9 919.429C1190.89 919.448 1198.8 917.882 1206.18 914.823C1213.56 911.764 1220.26 907.273 1225.9 901.608L1318.23 809.258C1323.4 804.071 1329.54 799.96 1336.3 797.16C1343.07 794.361 1350.32 792.93 1357.64 792.95L1517.66 792.95L1517.66 787.9L1484.12 787.9C1476.8 787.916 1469.54 786.479 1462.78 783.675C1456.01 780.87 1449.86 776.752 1444.7 771.56L1352.36 679.241C1346.74 673.57 1340.04 669.074 1332.66 666.014C1325.28 662.955 1317.36 661.394 1309.38 661.421L1231.18 661.421C1223.85 661.443 1216.6 660.013 1209.84 657.214C1203.07 654.414 1196.93 650.301 1191.76 645.112L1149.91 603.231L1372.6 603.231C1379.93 603.214 1387.18 604.65 1393.95 607.455C1400.71 610.26 1406.85 614.378 1412.02 619.572L1504.36 711.89C1508.32 715.845 1512.79 719.243 1517.66 721.99L1517.66 716.072C1514.14 713.863 1510.87 711.262 1507.94 708.32L1415.6 616.002C1409.97 610.337 1403.27 605.846 1395.89 602.787C1388.51 599.728 1380.59 598.163 1372.6 598.182L1270.46 598.182C1277.43 595.147 1283.76 590.826 1289.12 585.444L1334.55 539.993L1435.84 539.993C1443.17 539.978 1450.42 541.415 1457.19 544.221C1463.95 547.026 1470.09 551.145 1475.26 556.338L1517.66 598.738L1517.66 591.597L1478.83 552.771C1473.46 547.389 1467.12 543.058 1460.16 540.001L1517.66 540.001L1517.66 534.951L1339.62 534.951L1381.47 493.102C1386.64 487.913 1392.78 483.799 1399.54 481C1406.31 478.2 1413.56 476.77 1420.88 476.793L1499.09 476.793C1505.39 476.794 1511.66 475.816 1517.66 473.893L1517.66 468.554C1511.69 470.657 1505.41 471.723 1499.09 471.706L1420.88 471.706C1412.9 471.686 1404.99 473.251 1397.61 476.31C1390.23 479.369 1383.53 483.861 1377.9 489.526L1285.55 581.877C1280.38 587.065 1274.24 591.178 1267.48 593.977C1260.71 596.776 1253.46 598.207 1246.14 598.186L1144.84 598.186L1099.42 552.766C1094.04 547.385 1087.71 543.054 1080.75 539.996L1182.9 539.996C1190.88 540.021 1198.8 538.461 1206.18 535.408C1213.56 532.355 1220.26 527.868 1225.9 522.208L1318.23 429.89C1323.39 424.693 1329.53 420.572 1336.3 417.767C1343.06 414.962 1350.32 413.528 1357.64 413.549L1517.66 413.549L1517.66 408.499L1484.12 408.499C1476.8 408.514 1469.54 407.078 1462.78 404.274C1456.01 401.469 1449.86 397.352 1444.7 392.159L1352.36 299.808C1346.73 294.153 1340.03 289.67 1332.65 286.617C1325.27 283.564 1317.36 282.001 1309.38 282.02L1231.18 282.02C1223.85 282.036 1216.6 280.601 1209.83 277.796C1203.07 274.992 1196.93 270.873 1191.76 265.68L1149.91 223.831L1372.6 223.831C1379.93 223.814 1387.18 225.25 1393.95 228.055C1400.71 230.86 1406.85 234.978 1412.02 240.172L1504.36 332.49C1508.3 336.454 1512.78 339.843 1517.66 342.557L1517.66 336.703C1514.14 334.472 1510.88 331.861 1507.94 328.919L1415.6 236.601C1409.97 230.936 1403.27 226.444 1395.89 223.386C1388.51 220.327 1380.59 218.761 1372.6 218.78L1270.46 218.78C1277.42 215.734 1283.75 211.414 1289.12 206.043L1334.55 160.623L1435.84 160.623C1443.16 160.602 1450.42 162.033 1457.18 164.832C1463.95 167.632 1470.09 171.744 1475.26 176.932L1517.66 219.332L1517.66 212.159L1478.83 173.367C1473.46 167.984 1467.13 163.663 1460.16 160.629L1517.66 160.629L1517.66 155.546L1339.62 155.546L1381.47 113.698C1386.64 108.509 1392.78 104.395 1399.54 101.596C1406.31 98.7966 1413.56 97.3667 1420.88 97.389L1499.09 97.389C1505.39 97.3742 1511.65 96.3964 1517.66 94.4891L1517.66 89.1502C1511.69 91.238 1505.41 92.3034 1499.09 92.3021L1420.88 92.3021C1412.9 92.2824 1404.99 93.8473 1397.61 96.9061C1390.23 99.9649 1383.53 104.457 1377.9 110.122L1285.55 202.438C1280.39 207.636 1274.25 211.758 1267.48 214.563C1260.72 217.368 1253.46 218.801 1246.14 218.779L1144.84 218.779L1099.42 173.359C1094.05 167.978 1087.72 163.656 1080.75 160.622L1182.9 160.622C1190.89 160.641 1198.8 159.075 1206.18 156.016C1213.56 152.958 1220.26 148.466 1225.9 142.801L1318.23 50.451C1323.4 45.264 1329.54 41.1521 1336.3 38.3528C1343.07 35.5536 1350.32 34.1223 1357.64 34.1419L1517.66 34.1419L1517.66 29.0599L1484.12 29.0599C1476.8 29.0811 1469.55 27.6507 1462.78 24.8514C1456.01 22.0521 1449.87 17.9393 1444.7 12.7508L1431.94 -0.0192276L1424.79 -0.0192273L1441.12 16.3211C1446.49 21.704 1452.83 26.0253 1459.8 29.0589L1357.64 29.0589C1349.65 29.0396 1341.74 30.6046 1334.37 33.6634C1326.99 36.7222 1320.29 41.2144 1314.66 46.8792L1222.31 139.229C1217.15 144.418 1211 148.531 1204.24 151.33C1197.47 154.129 1190.22 155.559 1182.9 155.537L960.197 155.537L1002.05 113.689C1007.22 108.5 1013.36 104.388 1020.12 101.589C1026.89 98.7894 1034.14 97.359 1041.47 97.3802L1119.65 97.3802C1127.64 97.4001 1135.56 95.835 1142.94 92.7762C1150.32 89.7174 1157.02 85.2254 1162.65 79.5599L1242.23 -0.0211725L1235.08 -0.0211722L1205.98 29.0579L1104.7 29.0579C1097.38 29.0791 1090.13 27.6488 1083.36 24.8494C1076.59 22.0501 1070.45 17.9372 1065.28 12.7489L1052.52 -0.0211642L1045.37 -0.0211639L1061.71 16.3192C1067.08 21.7014 1073.41 26.0227 1080.38 29.057L978.231 29.057C970.242 29.0374 962.329 30.6022 954.949 33.661C947.569 36.7198 940.869 41.2116 935.237 46.8768L842.9 139.227C837.733 144.415 831.589 148.527 824.824 151.327C818.058 154.126 810.805 155.556 803.483 155.536L580.783 155.536L622.632 113.687C627.799 108.499 633.942 104.386 640.708 101.587C647.474 98.7881 654.727 97.3579 662.049 97.3792L740.243 97.3792C748.232 97.3989 756.145 95.8337 763.525 92.7747C770.905 89.7158 777.605 85.2235 783.237 79.5579L862.814 -0.0221324L855.66 -0.0221321L826.568 29.057L725.285 29.057C717.963 29.0782 710.71 27.6478 703.944 24.8485C697.178 22.0491 691.034 17.9362 685.868 12.7479L673.107 -0.0221241L665.95 -0.0221238L682.291 16.3182C687.659 21.7004 693.994 26.0218 700.964 29.056L598.816 29.056C590.827 29.037 582.914 30.6025 575.535 33.6615C568.155 36.7204 561.455 41.2118 555.822 46.8768L463.484 139.227C458.317 144.415 452.174 148.528 445.408 151.327C438.642 154.126 431.389 155.557 424.067 155.536L201.367 155.536L243.216 113.687C248.383 108.499 254.527 104.387 261.292 101.588C268.058 98.7885 275.311 97.358 282.633 97.3783L360.833 97.3783C368.821 97.3973 376.734 95.8321 384.113 92.7733C391.492 89.7145 398.192 85.2227 403.824 79.558L483.401 -0.0221159L476.247 -0.0221155L447.159 29.057L345.873 29.057C338.551 29.0782 331.298 27.6478 324.532 24.8485C317.766 22.0491 311.622 17.9363 306.456 12.7479L293.696 -0.0221076L286.542 -0.0221073L302.88 16.3182C308.249 21.7011 314.585 26.0224 321.556 29.056"/></svg>