<svg width="45" height="45" viewBox="0 0 45 45" fill="none" xmlns="http://www.w3.org/2000/svg">
<path d="M3.24229 17.7778L0.878906 13.977H9.23098L3.24229 17.7778Z" fill="#878791"/>
<path d="M41.7559 17.7778L44.1193 13.977H35.7672L41.7559 17.7778Z" fill="#878791"/>
<path d="M11.689 26.2808C12.6598 26.2808 13.4467 25.4939 13.4467 24.5231C13.4467 23.5523 12.6598 22.7654 11.689 22.7654C10.7182 22.7654 9.93127 23.5523 9.93127 24.5231C9.93127 25.4939 10.7182 26.2808 11.689 26.2808Z" fill="#FF9155"/>
<path d="M33.3093 26.2808C34.2801 26.2808 35.067 25.4939 35.067 24.5231C35.067 23.5523 34.2801 22.7654 33.3093 22.7654C32.3385 22.7654 31.5516 23.5523 31.5516 24.5231C31.5516 25.4939 32.3385 26.2808 33.3093 26.2808Z" fill="#46C8BE"/>
<path d="M11.689 13.7133C16.97 13.7133 21.3658 17.5004 22.3105 22.5068L22.6486 22.7272C23.5042 17.612 27.9511 13.7133 33.3092 13.7133C34.149 13.7133 34.9664 13.8091 35.7512 13.9903L35.7673 13.977C28.4335 8.22958 16.5648 8.22958 9.23108 13.977L9.25042 13.9896C10.034 13.8089 10.8504 13.7133 11.689 13.7133Z" fill="#F5B955"/>
<path d="M22.4649 23.6615C22.4873 23.9459 22.4991 24.2333 22.4991 24.5236C22.4991 24.2333 22.5108 23.9459 22.5332 23.6615H22.4649Z" fill="#878791"/>
<path d="M22.4991 24.5235C22.4991 27.0505 21.6318 29.3749 20.1789 31.2156L22.5103 34.6608L24.8315 31.2307C23.3713 29.3876 22.4991 27.0575 22.4991 24.5235Z" fill="#878791"/>
<path d="M11.689 27.16C10.2352 27.16 9.05237 25.9773 9.05237 24.5234C9.05237 23.0696 10.2351 21.8867 11.689 21.8867C13.1429 21.8867 14.3256 23.0695 14.3256 24.5234C14.3256 25.9773 13.1428 27.16 11.689 27.16ZM11.689 23.6446C11.2044 23.6446 10.8101 24.0389 10.8101 24.5235C10.8101 25.0081 11.2044 25.4024 11.689 25.4024C12.1736 25.4024 12.5679 25.0081 12.5679 24.5235C12.5679 24.0389 12.1736 23.6446 11.689 23.6446Z" fill="black"/>
<path d="M11.6891 30.324C8.49055 30.324 5.88855 27.7219 5.88855 24.5235C5.88855 21.3251 8.49064 18.723 11.6891 18.723C14.8875 18.723 17.4896 21.3251 17.4896 24.5235C17.4896 27.7219 14.8875 30.324 11.6891 30.324ZM11.6891 20.4806C9.4599 20.4806 7.64627 22.2942 7.64627 24.5234C7.64627 26.7526 9.4599 28.5662 11.6891 28.5662C13.9182 28.5662 15.7319 26.7526 15.7319 24.5234C15.7319 22.2942 13.9182 20.4806 11.6891 20.4806Z" fill="black"/>
<path d="M33.3093 27.16C31.8555 27.16 30.6727 25.9773 30.6727 24.5234C30.6727 23.0696 31.8554 21.8867 33.3093 21.8867C34.7631 21.8867 35.9459 23.0695 35.9459 24.5234C35.9459 25.9773 34.7632 27.16 33.3093 27.16ZM33.3093 23.6446C32.8247 23.6446 32.4304 24.0389 32.4304 24.5235C32.4304 25.0081 32.8247 25.4024 33.3093 25.4024C33.7939 25.4024 34.1882 25.0081 34.1882 24.5235C34.1882 24.0389 33.7939 23.6446 33.3093 23.6446Z" fill="black"/>
<path d="M33.3092 30.324C30.1107 30.324 27.5087 27.7219 27.5087 24.5235C27.5087 21.3251 30.1108 18.723 33.3092 18.723C36.5077 18.723 39.1098 21.3251 39.1098 24.5235C39.1098 27.7219 36.5078 30.324 33.3092 30.324ZM33.3092 20.4806C31.0801 20.4806 29.2665 22.2942 29.2665 24.5234C29.2665 26.7526 31.0801 28.5662 33.3092 28.5662C35.5384 28.5662 37.352 26.7526 37.352 24.5234C37.352 22.2942 35.5384 20.4806 33.3092 20.4806Z" fill="black"/>
<path d="M40.9532 33.0464C40.7282 33.0464 40.5033 32.9605 40.3317 32.789C39.9885 32.4457 39.9885 31.8892 40.3317 31.546C40.3555 31.5222 40.3792 31.4982 40.4028 31.4742C40.7426 31.1276 41.299 31.122 41.6457 31.4617C41.9923 31.8015 41.9979 32.358 41.6582 32.7046C41.6306 32.7327 41.6027 32.761 41.5747 32.789C41.403 32.9605 41.1781 33.0464 40.9532 33.0464Z" fill="black"/>
<path d="M44.811 22.4344C44.5017 20.7233 43.8217 19.1256 42.8211 17.7291L44.8657 14.4409C45.0342 14.17 45.0426 13.8289 44.8876 13.5499C44.7325 13.2709 44.4385 13.0979 44.1193 13.0979H36.0662C33.3265 11.0225 29.9268 9.63042 26.2124 9.06652C25.7329 8.99374 25.2844 9.3236 25.2115 9.80357C25.1387 10.2835 25.4687 10.7316 25.9486 10.8045C28.2737 11.1575 30.4588 11.8607 32.4076 12.8688C29.6251 13.0796 27.0377 14.2642 25.0438 16.258C23.9342 17.3676 23.0755 18.661 22.4954 20.0695C20.8499 16.0914 17.0697 13.2121 12.5904 12.8688C14.5389 11.8609 16.7236 11.1577 19.0483 10.8046C19.5282 10.7317 19.8581 10.2835 19.7852 9.80357C19.7123 9.32369 19.2633 8.99357 18.7842 9.06661C15.0704 9.63078 11.6712 11.0227 8.93188 13.0978H0.878906C0.559775 13.0978 0.265693 13.2709 0.110654 13.5498C-0.0443848 13.8288 -0.0359473 14.1699 0.132539 14.4409L2.17978 17.7333C0.80833 19.6487 0 21.9934 0 24.5234C0 30.9688 5.24364 36.2124 11.689 36.2124C14.9812 36.2124 17.9594 34.8439 20.0858 32.6463L21.7823 35.1533C21.9458 35.395 22.2185 35.5397 22.5102 35.5397C22.8019 35.5397 23.0746 35.395 23.2381 35.1533L24.9224 32.6645C24.9627 32.706 25.0028 32.7478 25.0438 32.7889C27.2795 35.0246 30.2867 36.2074 33.3315 36.2073C34.9923 36.2073 36.6649 35.8552 38.2289 35.1299C38.6693 34.9256 38.8607 34.403 38.6565 33.9629C38.4523 33.5227 37.9297 33.3311 37.4895 33.5353C33.7247 35.281 29.2227 34.4819 26.2869 31.5459C26.0278 31.2869 25.7856 31.0158 25.5592 30.7345C25.5336 30.6969 25.5051 30.6611 25.4734 30.6274C24.1147 28.8904 23.378 26.7636 23.378 24.5234C23.378 21.8706 24.4111 19.3767 26.2869 17.501C28.1627 15.6252 30.6566 14.5921 33.3093 14.5921C35.962 14.5921 38.4561 15.6252 40.3318 17.501C40.5913 17.7606 40.8335 18.0318 41.0595 18.3124C41.0727 18.3296 41.0861 18.3465 41.1007 18.3628C43.3719 21.2202 43.9022 25.0791 42.4166 28.4913C42.2229 28.9363 42.4266 29.4542 42.8717 29.6479C43.3167 29.8415 43.8346 29.638 44.0283 29.1928C44.9549 27.0643 45.2256 24.7273 44.811 22.4344ZM2.46023 14.8559H5.12578C4.49367 15.2864 3.90604 15.7773 3.37069 16.32L2.46023 14.8559ZM11.689 34.4547C6.21281 34.4547 1.75772 29.9996 1.75772 24.5234C1.75772 19.0472 6.21281 14.5921 11.689 14.5921C17.1652 14.5921 21.6202 19.0473 21.6202 24.5234C21.6202 29.9995 17.1651 34.4547 11.689 34.4547ZM23.7518 31.2579L22.5103 33.0926L21.2534 31.2353C21.7463 30.535 22.1641 29.7785 22.4954 28.9773C22.8256 29.7791 23.2462 30.5435 23.7518 31.2579ZM39.8842 14.8559H42.5379L41.6301 16.3156C41.6114 16.2967 41.5934 16.277 41.5746 16.2581C41.05 15.7334 40.4837 15.2654 39.8842 14.8559Z" fill="black"/>
<path d="M22.4991 10.5453L22.546 10.5454C22.5475 10.5454 22.549 10.5454 22.5505 10.5454C23.0338 10.5454 23.4269 10.1548 23.4293 9.67086C23.4316 9.18553 23.0402 8.79011 22.5548 8.78756L22.4991 8.78748C22.0138 8.78748 21.6202 9.18105 21.6202 9.66638C21.6202 10.1517 22.0138 10.5453 22.4991 10.5453Z" fill="black"/>
</svg>
